<svg width="24" height="24" viewBox="0 0 24 24" fill="none" xmlns="http://www.w3.org/2000/svg">
<path d="M18.7608 13.5931H1.54093C1.10433 13.5931 0.738363 13.4414 0.443018 13.138C0.147673 12.8347 0 12.4587 0 12.0103C0 11.5618 0.147673 11.1859 0.443018 10.8825C0.738363 10.5792 1.10433 10.4275 1.54093 10.4275H18.7608L11.2103 2.67177C10.9021 2.35521 10.7544 1.98589 10.7673 1.56381C10.7801 1.14173 10.9406 0.772407 11.2488 0.455846C11.557 0.165666 11.9165 0.0139814 12.3274 0.0007914C12.7384 -0.0123986 13.0979 0.139286 13.4061 0.455846L23.5762 10.9023C23.7303 11.0606 23.8395 11.2321 23.9037 11.4167C23.9679 11.6014 24 11.7992 24 12.0103C24 12.2213 23.9679 12.4192 23.9037 12.6038C23.8395 12.7885 23.7303 12.96 23.5762 13.1182L13.4061 23.5647C13.1236 23.8549 12.7705 24 12.3467 24C11.923 24 11.557 23.8549 11.2488 23.5647C10.9406 23.2482 10.7865 22.8723 10.7865 22.437C10.7865 22.0017 10.9406 21.6258 11.2488 21.3092L18.7608 13.5931Z" fill="#F7F7F7"/>
</svg>
