<svg width="1145" height="471" viewBox="0 0 1145 471" fill="none" xmlns="http://www.w3.org/2000/svg">
<g clip-path="url(#clip0_734_4849)">
<path d="M1623.8 592.169C1605.45 519.655 1580.39 456.954 1549.33 405.794C1521.09 359.284 1488.57 323.223 1452.68 298.614C1426.42 280.604 1397.98 269.098 1370.45 265.345C1342.59 261.547 1316.02 265.56 1293.63 276.956C1257.43 295.376 1235.97 330.6 1234.75 373.604C1233.81 406.906 1243.65 434.782 1264.01 456.446C1280.65 474.158 1301.75 485.171 1320.36 494.89C1337.67 503.917 1354.01 512.447 1362.98 524.191C1368.84 531.858 1375.95 545.935 1370.14 579.53C1367.64 593.961 1360.58 603.649 1347.91 610.022C1319.45 624.344 1270.02 618.682 1224.91 595.934C1187.48 577.061 1167.78 543.202 1157.84 518.119C1145.64 487.355 1141.66 452.228 1147.45 426.449L1147.73 425.179L1147.92 423.893C1152.1 394.812 1158.9 374.436 1166.09 352.862C1173.24 331.41 1180.64 309.231 1186.08 278.115C1190.34 253.724 1189.06 230.655 1182.27 209.563C1175.84 189.588 1164.34 171.693 1149.02 157.812C1133.56 143.804 1114.36 133.926 1093.51 129.245C1072.87 124.616 1051.1 125.193 1030.55 130.914C993.045 141.358 957.609 169.582 933.327 208.351C908.261 248.376 897.73 294.628 903.683 338.577C914.891 421.36 953.144 479.815 990.14 536.346C1005.04 559.119 1020.45 582.674 1034.35 608.055C1054.59 645.032 1056.91 677.145 1040.89 698.476C1027.91 715.772 1004.27 723.571 980.671 718.342C947.789 711.05 923.456 680.886 913.907 635.576C909.266 613.541 907.133 585.338 904.879 555.478C902.178 519.706 899.382 482.717 891.862 449.06C882.242 406.008 866.057 375.694 842.379 356.388C818.424 336.859 787.968 329.298 751.858 333.921L760.334 400.135C783.623 397.158 794.238 403.266 800.201 408.124C811.659 417.461 820.58 436.138 826.723 463.619C833.188 492.556 835.796 527.098 838.321 560.502C840.746 592.63 843.044 622.98 848.597 649.338C856.384 686.274 871.336 716.988 893.036 740.615C913.148 762.515 938.461 777.345 966.233 783.501C1015.34 794.386 1065.6 776.744 1094.28 738.552C1126.48 695.665 1125.98 636.416 1092.91 575.994C1077.76 548.31 1061.62 523.642 1046 499.786C1010.06 444.861 979.022 397.433 969.84 329.609C965.976 301.088 973.105 270.603 989.909 243.771C1005.23 219.307 1027.13 201.152 1048.47 195.21C1068.49 189.634 1089.85 194.259 1104.21 207.272C1119.17 220.828 1124.75 241.347 1120.33 266.618C1115.76 292.829 1109.45 311.73 1102.78 331.738C1095.07 354.878 1087.09 378.792 1082.04 413.142C1078.01 431.856 1077.06 453.287 1079.27 475.222C1081.57 497.889 1087.28 521.225 1095.79 542.71C1105.22 566.502 1117.87 587.934 1133.38 606.422C1150.86 627.253 1171.55 643.776 1194.86 655.535C1252.18 684.439 1313.48 692.072 1359.99 676.982C1366.25 674.95 1372.24 672.51 1377.92 669.652C1393.2 661.962 1405.91 651.509 1415.7 638.572C1426 624.954 1432.8 608.916 1435.91 590.914C1443.63 546.353 1437.12 511.278 1416.03 483.666C1398.05 460.134 1373.19 447.16 1351.25 435.712C1316.08 417.355 1300.56 407.877 1301.48 375.489C1302 357.148 1309.75 343.645 1323.9 336.444C1342.2 327.135 1375.72 326.767 1414.93 353.657C1450.92 378.336 1517.51 444.269 1559.09 608.543L1623.81 592.16L1623.8 592.169Z" fill="#9A28CD"/>
<path d="M1123.33 481.04L1115.71 482.102L1114.46 473.138L1110.99 473.618L1112.23 482.583L1104.28 483.685L1102.88 473.599L1099.4 474.079L1101.4 488.421L1127.4 484.809L1125.4 470.467L1121.93 470.948L1123.33 481.034L1123.33 481.04Z" fill="#FFE42C"/>
<path d="M1099.22 462.493C1099.88 463.881 1100.78 464.964 1101.94 465.734C1103.09 466.506 1104.42 466.871 1105.93 466.83L1105.8 462.232C1104.67 462.163 1103.73 461.74 1102.97 460.969C1102.22 460.199 1101.83 459.093 1101.79 457.662C1101.75 456.176 1102.07 455.014 1102.76 454.163C1103.45 453.312 1104.37 452.873 1105.5 452.839C1106.38 452.813 1107.1 453.055 1107.67 453.551C1108.24 454.049 1108.69 454.68 1109.01 455.441C1109.33 456.202 1109.69 457.252 1110.08 458.604C1110.58 460.301 1111.07 461.674 1111.57 462.733C1112.06 463.792 1112.81 464.68 1113.81 465.405C1114.81 466.13 1116.12 466.473 1117.76 466.427C1119.26 466.388 1120.57 465.97 1121.68 465.188C1122.79 464.405 1123.63 463.322 1124.19 461.947C1124.76 460.572 1125.02 458.996 1124.97 457.207C1124.89 454.669 1124.2 452.604 1122.89 451.019C1121.58 449.435 1119.81 448.584 1117.59 448.466L1117.72 453.22C1118.68 453.27 1119.51 453.697 1120.21 454.51C1120.91 455.319 1121.29 456.404 1121.32 457.762C1121.36 458.991 1121.07 460.01 1120.47 460.806C1119.86 461.603 1118.96 462.016 1117.78 462.051C1116.98 462.074 1116.31 461.847 1115.78 461.371C1115.26 460.896 1114.83 460.283 1114.51 459.537C1114.18 458.79 1113.83 457.767 1113.44 456.477C1112.91 454.753 1112.4 453.353 1111.89 452.273C1111.38 451.191 1110.61 450.287 1109.6 449.545C1108.59 448.806 1107.26 448.461 1105.6 448.509C1104.26 448.545 1103.02 448.937 1101.86 449.688C1100.7 450.439 1099.78 451.508 1099.1 452.9C1098.42 454.292 1098.1 455.913 1098.16 457.776C1098.2 459.539 1098.56 461.108 1099.21 462.503L1099.22 462.493Z" fill="#FFE42C"/>
<path d="M1101.97 423.968C1102.67 426.207 1103.9 428.123 1105.66 429.705C1107.43 431.293 1109.57 432.343 1112.07 432.872C1114.59 433.392 1116.96 433.276 1119.2 432.523C1121.43 431.77 1123.32 430.505 1124.86 428.73C1126.4 426.957 1127.42 424.875 1127.91 422.487C1128.42 420.075 1128.32 417.75 1127.61 415.513C1126.91 413.275 1125.68 411.369 1123.93 409.792C1122.18 408.22 1120.04 407.176 1117.53 406.648C1115.02 406.127 1112.64 406.231 1110.4 406.974C1108.15 407.716 1106.26 408.971 1104.72 410.744C1103.18 412.517 1102.16 414.611 1101.66 417.024C1101.16 419.413 1101.26 421.724 1101.97 423.962L1101.97 423.968ZM1107.43 413.49C1108.48 412.324 1109.8 411.513 1111.4 411.062C1113 410.612 1114.74 410.585 1116.64 410.977C1118.53 411.372 1120.12 412.091 1121.39 413.143C1122.66 414.188 1123.54 415.457 1124.03 416.947C1124.51 418.439 1124.58 420.032 1124.23 421.726C1123.87 423.422 1123.18 424.859 1122.14 426.029C1121.1 427.197 1119.78 428.013 1118.2 428.465C1116.62 428.918 1114.88 428.951 1112.98 428.551C1111.09 428.156 1109.5 427.432 1108.21 426.385C1106.93 425.336 1106.04 424.066 1105.54 422.572C1105.04 421.078 1104.97 419.487 1105.32 417.791C1105.68 416.095 1106.38 414.662 1107.43 413.49Z" fill="#FFE42C"/>
<path d="M1109.75 377.478L1108.78 381.667L1124.98 398.646L1105.9 394.275L1104.93 398.464L1130.52 404.328L1131.48 400.139L1115.33 383.162L1134.37 387.525L1135.33 383.335L1109.75 377.471L1109.75 377.478Z" fill="#FFE42C"/>
<path d="M1116.38 367.168L1118.9 358.667L1115.57 357.681L1111.84 370.304L1136.97 377.739L1138.19 373.617L1116.38 367.162L1116.38 367.168Z" fill="#FFE42C"/>
<path d="M1148.08 342.744L1129.5 345.728L1120.47 342.742L1119.12 346.825L1128.14 349.812L1141.27 363.329L1142.77 358.781L1132.47 348.974L1146.59 347.249L1148.08 342.738L1148.08 342.744Z" fill="#FFE42C"/>
<path d="M1157.53 272.319L1150.86 272.44L1151.82 267.552L1148.12 266.831L1147.01 272.497L1139.88 272.645L1139.09 276.682L1146.22 276.535L1144.81 283.793L1137.67 283.942L1136.88 287.979L1144.01 287.832L1142.9 293.57L1146.6 294.29L1147.87 287.773L1154.54 287.652L1153.43 293.355L1157.13 294.075L1158.4 287.595L1165.41 287.465L1166.2 283.427L1159.18 283.558L1160.6 276.299L1167.61 276.169L1168.4 272.132L1161.39 272.262L1162.34 267.339L1158.64 266.619L1157.53 272.321L1157.53 272.319ZM1156.75 276.357L1155.33 283.615L1148.66 283.735L1150.07 276.477L1156.75 276.357Z" fill="#FFE42C"/>
<path d="M1152.02 207.577C1153.48 207.763 1154.73 208.304 1155.78 209.206C1156.82 210.108 1157.61 211.301 1158.16 212.787C1158.75 214.413 1158.93 215.999 1158.66 217.542C1158.4 219.085 1157.73 220.467 1156.65 221.678C1155.57 222.893 1154.14 223.826 1152.37 224.476C1150.6 225.126 1148.9 225.342 1147.29 225.124C1145.66 224.908 1144.25 224.29 1143.05 223.288C1141.85 222.281 1140.95 220.966 1140.35 219.34C1139.55 217.143 1139.5 215.14 1140.23 213.318C1140.95 211.495 1142.31 210.047 1144.29 208.966L1147.69 218.206L1150.91 217.019L1145.92 203.464L1142.77 204.624C1140.96 205.587 1139.44 206.915 1138.25 208.598C1137.04 210.29 1136.29 212.183 1135.98 214.294C1135.67 216.404 1135.91 218.534 1136.7 220.682C1137.55 222.994 1138.87 224.905 1140.64 226.427C1142.42 227.942 1144.48 228.911 1146.8 229.329C1149.12 229.748 1151.49 229.511 1153.89 228.628C1156.3 227.746 1158.26 226.388 1159.75 224.562C1161.25 222.74 1162.18 220.667 1162.54 218.348C1162.91 216.029 1162.67 213.727 1161.83 211.44C1160.86 208.823 1159.37 206.727 1157.33 205.161C1155.29 203.593 1152.92 202.781 1150.22 202.73L1152.01 207.581L1152.02 207.577Z" fill="#FFE42C"/>
<path d="M1129.6 202.914C1131.79 203.727 1134.07 203.923 1136.4 203.493C1138.73 203.069 1140.87 202.021 1142.82 200.354C1144.77 198.687 1146.13 196.739 1146.9 194.507C1147.67 192.275 1147.82 190.01 1147.36 187.708C1146.9 185.405 1145.87 183.333 1144.29 181.476C1142.68 179.604 1140.78 178.259 1138.58 177.448C1136.38 176.635 1134.12 176.443 1131.8 176.867C1129.49 177.291 1127.35 178.337 1125.41 180.004C1123.46 181.671 1122.09 183.622 1121.3 185.853C1120.51 188.085 1120.35 190.353 1120.81 192.648C1121.27 194.951 1122.31 197.033 1123.91 198.905C1125.5 200.76 1127.39 202.089 1129.59 202.908L1129.6 202.914ZM1124.64 192.191C1124.35 190.647 1124.53 189.099 1125.15 187.563C1125.77 186.027 1126.81 184.625 1128.28 183.364C1129.75 182.103 1131.29 181.292 1132.9 180.925C1134.5 180.561 1136.05 180.639 1137.52 181.163C1138.99 181.688 1140.3 182.612 1141.42 183.931C1142.55 185.247 1143.26 186.679 1143.55 188.215C1143.84 189.756 1143.68 191.286 1143.07 192.818C1142.47 194.35 1141.43 195.744 1139.96 197.005C1138.48 198.266 1136.94 199.079 1135.33 199.454C1133.71 199.828 1132.16 199.758 1130.68 199.238C1129.19 198.718 1127.89 197.805 1126.76 196.483C1125.63 195.166 1124.93 193.732 1124.64 192.189L1124.64 192.191Z" fill="#FFE42C"/>
<path d="M1110.72 184.489C1113.07 184.483 1115.27 183.873 1117.31 182.66C1119.34 181.447 1120.99 179.722 1122.23 177.478C1123.48 175.233 1124.07 172.936 1124.02 170.575C1123.96 168.216 1123.32 166.04 1122.08 164.042C1120.85 162.044 1119.16 160.459 1117.03 159.278C1114.88 158.082 1112.63 157.484 1110.28 157.49C1107.93 157.495 1105.75 158.101 1103.73 159.308C1101.71 160.515 1100.07 162.238 1098.82 164.483C1097.58 166.725 1096.97 169.028 1097.01 171.393C1097.05 173.759 1097.69 175.936 1098.92 177.934C1100.16 179.932 1101.85 181.528 1104.01 182.721C1106.15 183.903 1108.38 184.492 1110.73 184.487L1110.72 184.489ZM1102.34 176.164C1101.54 174.809 1101.16 173.312 1101.2 171.648C1101.25 169.993 1101.74 168.314 1102.68 166.618C1103.61 164.925 1104.77 163.629 1106.16 162.724C1107.53 161.821 1109 161.357 1110.57 161.339C1112.14 161.314 1113.68 161.727 1115.2 162.571C1116.72 163.413 1117.87 164.502 1118.68 165.847C1119.49 167.186 1119.88 168.683 1119.84 170.33C1119.8 171.978 1119.31 173.648 1118.37 175.344C1117.43 177.039 1116.27 178.342 1114.89 179.255C1113.5 180.168 1112.02 180.64 1110.45 180.672C1108.88 180.705 1107.34 180.301 1105.82 179.457C1104.3 178.614 1103.14 177.519 1102.34 176.164Z" fill="#FFE42C"/>
<path d="M1080.1 148.888C1077.84 149.546 1075.96 150.75 1074.46 152.497C1072.96 154.243 1071.96 156.434 1071.46 159.049C1070.96 161.671 1071.09 164.047 1071.85 166.187C1072.6 168.326 1073.92 170.107 1075.79 171.524C1077.66 172.941 1079.96 173.91 1082.7 174.433L1091.11 176.037L1096.01 150.286L1087.6 148.682C1084.86 148.162 1082.36 148.23 1080.1 148.882L1080.1 148.888ZM1076.9 167.225C1075.6 165.288 1075.24 162.838 1075.8 159.875C1076.37 156.89 1077.62 154.707 1079.55 153.333C1081.47 151.959 1083.94 151.56 1086.95 152.136L1091.14 152.93L1087.55 171.789L1083.36 170.995C1080.35 170.419 1078.2 169.168 1076.9 167.231L1076.9 167.225Z" fill="#FFE42C"/>
<path d="M1030.44 151.426L1045.55 174.997L1050.42 173.956L1054.6 146.259L1050.1 147.221L1047.07 170.165L1034.88 150.478L1030.45 151.424L1030.44 151.426Z" fill="#FFE42C"/>
<path d="M1020.04 156.166L1030.22 180.319L1034.18 178.645L1024 154.493L1020.04 156.166Z" fill="#FFE42C"/>
<path d="M1004.95 181.659C1004.76 183.219 1005.07 184.664 1005.89 185.995C1006.58 187.131 1007.51 187.969 1008.66 188.523C1009.8 189.071 1011.1 189.264 1012.53 189.106C1013.97 188.947 1015.43 188.412 1016.9 187.503L1025.84 182.015L1012.13 159.674L1003.61 164.904C1002.09 165.84 1000.94 166.895 1000.16 168.079C999.39 169.264 998.989 170.464 998.959 171.673C998.935 172.88 999.251 174.024 999.911 175.091C1000.7 176.374 1001.7 177.234 1002.92 177.672C1004.13 178.111 1005.44 178.176 1006.84 177.87C1005.78 178.823 1005.15 180.076 1004.95 181.644L1004.95 181.659ZM1011.92 185.217C1010.84 185.055 1009.97 184.431 1009.32 183.362C1008.65 182.27 1008.49 181.171 1008.84 180.069C1009.2 178.965 1010 178.033 1011.24 177.268L1016.06 174.306L1020.34 181.284L1015.39 184.321C1014.15 185.085 1012.99 185.379 1011.92 185.217ZM1014.23 171.318L1009.69 174.103C1008.5 174.84 1007.39 175.144 1006.38 175.009C1005.37 174.88 1004.55 174.296 1003.91 173.268C1003.29 172.263 1003.15 171.268 1003.47 170.283C1003.8 169.297 1004.57 168.443 1005.77 167.706L1010.3 164.921L1014.23 171.318Z" fill="#FFE42C"/>
<path d="M988.758 179.975L993.805 185.785L986.975 191.72L989.278 194.366L996.114 188.429L1001.39 194.492L993.7 201.169L996.002 203.815L1006.93 194.313L989.714 174.5L978.782 184.002L981.085 186.648L988.771 179.971L988.758 179.975Z" fill="#FFE42C"/>
<path d="M989.775 209.437C990.231 207.967 990.294 206.564 989.964 205.213C989.635 203.862 988.902 202.696 987.765 201.709L984.751 205.187C985.539 206.001 985.95 206.951 985.984 208.023C986.021 209.102 985.565 210.176 984.624 211.265C983.652 212.384 982.626 213.024 981.54 213.185C980.453 213.34 979.488 213.054 978.633 212.309C977.97 211.734 977.598 211.071 977.516 210.314C977.436 209.564 977.534 208.796 977.807 208.019C978.08 207.243 978.526 206.226 979.153 204.966C979.933 203.378 980.495 202.024 980.844 200.916C981.191 199.801 981.243 198.64 980.993 197.427C980.742 196.213 980.005 195.076 978.772 194.005C977.634 193.018 976.389 192.434 975.04 192.265C973.69 192.097 972.34 192.324 970.999 192.956C969.657 193.589 968.397 194.577 967.226 195.924C965.567 197.846 964.678 199.831 964.576 201.888C964.473 203.944 965.2 205.766 966.755 207.346L969.869 203.754C969.198 203.072 968.873 202.197 968.906 201.123C968.933 200.051 969.397 199.002 970.284 197.978C971.093 197.048 971.989 196.491 972.974 196.315C973.959 196.138 974.899 196.433 975.791 197.206C976.397 197.732 976.735 198.351 976.807 199.057C976.873 199.765 976.779 200.504 976.51 201.272C976.242 202.041 975.814 203.031 975.228 204.25C974.455 205.877 973.886 207.254 973.535 208.397C973.181 209.533 973.125 210.724 973.373 211.951C973.621 213.179 974.372 214.339 975.624 215.425C976.63 216.298 977.818 216.852 979.179 217.079C980.542 217.311 981.939 217.144 983.382 216.573C984.819 216.005 986.149 215.021 987.368 213.611C988.524 212.282 989.324 210.885 989.781 209.415L989.775 209.437Z" fill="#FFE42C"/>
<path d="M969.29 235.607C969.258 233.26 968.617 231.076 967.382 229.052C966.146 227.027 964.394 225.409 962.139 224.192C959.884 222.975 957.575 222.409 955.211 222.494C952.854 222.578 950.682 223.255 948.706 224.516C946.725 225.779 945.158 227.48 944.001 229.627C942.832 231.798 942.262 234.054 942.301 236.399C942.333 238.746 942.971 240.923 944.201 242.929C945.431 244.935 947.181 246.548 949.436 247.765C951.691 248.982 954.002 249.554 956.372 249.487C958.735 249.422 960.909 248.751 962.887 247.496C964.868 246.233 966.438 244.518 967.609 242.353C968.766 240.206 969.325 237.96 969.292 235.613L969.29 235.607ZM961.075 244.098C959.733 244.915 958.233 245.313 956.578 245.291C954.922 245.27 953.237 244.801 951.535 243.882C949.833 242.962 948.516 241.822 947.595 240.452C946.675 239.088 946.193 237.623 946.154 236.055C946.11 234.488 946.501 232.944 947.327 231.416C948.153 229.887 949.23 228.714 950.557 227.888C951.889 227.06 953.374 226.66 955.022 226.678C956.67 226.695 958.346 227.159 960.048 228.079C961.75 228.998 963.069 230.144 963.999 231.519C964.928 232.893 965.419 234.363 965.472 235.933C965.524 237.503 965.141 239.052 964.315 240.58C963.489 242.108 962.412 243.282 961.069 244.1L961.075 244.098Z" fill="#FFE42C"/>
<path d="M953.085 277.303L954.462 273.232L940.07 254.702L958.614 260.976L959.991 256.905L935.125 248.491L933.748 252.562L948.109 271.082L929.602 264.816L928.225 268.887L953.091 277.301L953.085 277.303Z" fill="#FFE42C"/>
<path d="M947.958 285.656L946.292 294.359L949.699 295.011L952.174 282.08L926.43 277.154L925.619 281.375L947.956 285.649L947.958 285.656Z" fill="#FFE42C"/>
<path d="M921.986 315.733L939.167 308.04L948.658 308.585L948.908 304.294L939.417 303.748L923.24 294.082L922.966 298.866L935.456 305.674L922.268 310.995L921.995 315.737L921.986 315.733Z" fill="#FFE42C"/>
<path d="M943.828 385.818L949.727 382.705L951.078 387.5L954.711 386.478L953.147 380.921L959.454 377.574L958.34 373.616L952.033 376.963L950.025 369.848L956.331 366.5L955.217 362.542L948.911 365.889L947.325 360.265L943.691 361.287L945.49 367.674L939.592 370.786L938.015 365.193L934.382 366.215L936.177 372.569L929.972 375.849L931.086 379.807L937.291 376.527L939.3 383.642L933.094 386.923L934.208 390.881L940.414 387.601L941.775 392.426L945.408 391.404L943.832 385.81L943.828 385.818ZM942.714 381.86L940.705 374.745L946.604 371.632L948.613 378.747L942.714 381.86Z" fill="#FFE42C"/>
<path d="M967.297 445.409C965.826 445.389 964.521 444.981 963.384 444.205C962.251 443.421 961.329 442.324 960.617 440.906C959.841 439.352 959.498 437.794 959.591 436.231C959.683 434.668 960.195 433.221 961.134 431.894C962.073 430.568 963.383 429.482 965.073 428.641C966.762 427.8 968.423 427.397 970.056 427.433C971.692 427.474 973.166 427.923 974.468 428.788C975.771 429.653 976.811 430.862 977.587 432.416C978.634 434.509 978.897 436.495 978.379 438.386C977.862 440.278 976.675 441.869 974.818 443.159L970.415 434.354L967.343 435.889L973.803 448.81L976.806 447.311C978.502 446.155 979.858 444.665 980.866 442.86C981.873 441.048 982.413 439.081 982.484 436.946C982.556 434.817 982.083 432.729 981.056 430.677C979.953 428.473 978.436 426.717 976.504 425.402C974.574 424.093 972.428 423.359 970.066 423.199C967.712 423.042 965.386 423.538 963.094 424.684C960.802 425.829 959.006 427.393 957.72 429.371C956.433 431.348 955.737 433.509 955.626 435.855C955.521 438.199 956.011 440.465 957.101 442.646C958.347 445.144 960.072 447.058 962.268 448.389C964.465 449.721 966.91 450.263 969.596 450.018L967.287 445.398L967.297 445.409Z" fill="#FFE42C"/>
<path d="M990.187 451.456C988.17 450.257 985.972 449.656 983.601 449.655C981.227 449.648 978.935 450.29 976.717 451.582C974.498 452.867 972.812 454.538 971.646 456.593C970.486 458.645 969.921 460.852 969.959 463.197C969.998 465.542 970.632 467.769 971.855 469.879C973.092 472.012 974.72 473.671 976.737 474.87C978.755 476.068 980.939 476.668 983.296 476.666C985.652 476.665 987.939 476.025 990.156 474.734C992.376 473.448 994.076 471.779 995.25 469.729C996.431 467.676 997 465.482 996.959 463.131C996.921 460.786 996.283 458.547 995.046 456.414C993.823 454.303 992.203 452.649 990.185 451.45L990.187 451.456ZM993.123 462.897C993.122 464.471 992.67 465.953 991.783 467.358C990.895 468.757 989.619 469.948 987.939 470.922C986.265 471.895 984.607 472.412 982.96 472.483C981.314 472.554 979.815 472.195 978.456 471.41C977.097 470.624 975.985 469.486 975.116 467.983C974.247 466.48 973.804 464.947 973.801 463.381C973.797 461.816 974.229 460.333 975.105 458.939C975.981 457.544 977.259 456.359 978.933 455.387C980.607 454.414 982.271 453.895 983.93 453.82C985.589 453.745 987.098 454.094 988.469 454.875C989.838 455.651 990.952 456.795 991.825 458.29C992.699 459.785 993.131 461.327 993.123 462.897Z" fill="#FFE42C"/>
<path d="M849.188 471.878L849.844 476.127L871.162 485.931L851.818 488.909L852.474 493.159L878.418 489.164L877.761 484.914L856.483 475.105L875.794 472.13L875.137 467.881L849.194 471.876L849.188 471.878Z" fill="#FFE42C"/>
<path d="M850.495 461.236L848.611 452.574L845.219 453.313L848.016 466.176L873.63 460.598L872.717 456.397L850.495 461.236Z" fill="#FFE42C"/>
<path d="M863.818 423.667L850.372 436.846L841.285 439.624L842.537 443.735L851.624 440.957L870.146 444.412L868.748 439.83L854.674 437.78L865.199 428.22L863.813 423.676L863.818 423.667Z" fill="#FFE42C"/>
<path d="M811.628 370.362L809.131 376.548L805.003 373.758L802.89 376.883L807.672 380.115L805.012 386.742L808.416 389.044L811.076 382.417L817.201 386.555L814.541 393.182L817.945 395.484L820.605 388.857L825.449 392.13L827.562 389.005L822.063 385.284L824.559 379.098L829.37 382.355L831.483 379.23L826.012 375.534L828.635 369.021L825.231 366.719L822.608 373.232L816.483 369.094L819.105 362.581L815.701 360.279L813.079 366.791L808.925 363.983L806.811 367.108L811.622 370.364L811.628 370.362ZM815.032 372.664L821.157 376.802L818.661 382.988L812.535 378.85L815.032 372.664Z" fill="#FFE42C"/>
</g>
<g clip-path="url(#clip1_734_4849)">
<path d="M1.93006 848.858C-2.98881 774.219 1.49585 706.845 15.2544 648.597C27.7622 595.643 47.5609 551.308 74.1059 516.824C93.5287 491.588 117.028 471.867 142.063 459.8C167.39 447.59 193.896 443.209 218.717 447.137C258.833 453.488 290.115 480.37 304.541 520.9C315.714 552.286 314.956 581.839 302.279 608.727C291.917 630.71 275.248 647.696 260.537 662.686C246.863 676.613 233.953 689.769 229.041 703.709C225.839 712.808 223.415 728.394 239.313 758.555C246.143 771.51 255.845 778.548 269.863 780.7C301.353 785.541 346.627 764.9 382.517 729.34C412.29 699.84 420.585 661.552 422.302 634.624C424.409 601.598 417.351 566.959 403.891 544.224L403.23 543.103L402.659 541.937C389.704 515.567 376.95 498.283 363.451 479.981C350.029 461.783 336.148 442.97 321.372 415.051C309.791 393.165 303.893 370.826 303.841 348.668C303.796 327.684 309.207 307.114 319.499 289.182C329.881 271.088 345.091 255.767 363.483 244.88C381.681 234.109 402.569 227.939 423.884 227.038C462.781 225.399 505.197 241.309 540.258 270.692C576.453 301.029 600.743 341.773 608.643 385.414C623.529 467.616 605.182 535.022 587.438 600.211C580.29 626.471 572.902 653.632 567.516 682.063C559.674 723.481 567.374 754.745 589.194 770.091C606.887 782.534 631.779 782.657 652.608 770.402C681.635 753.319 695.472 717.117 690.572 671.072C688.187 648.681 681.512 621.196 674.442 592.098C665.971 557.238 657.216 521.192 653.982 486.857C649.847 442.937 655.887 409.108 672.452 383.438C689.211 357.469 715.847 340.879 751.621 334.132L763.992 399.73C740.921 404.085 732.71 413.171 728.536 419.632C720.52 432.05 717.798 452.568 720.435 480.603C723.216 510.123 731.394 543.784 739.301 576.337C746.909 607.645 754.09 637.223 756.941 664.008C760.933 701.544 756.19 735.374 742.839 764.543C730.468 791.581 710.967 813.499 686.45 827.925C643.101 853.433 589.849 852.163 550.783 824.685C506.915 793.83 489.106 737.318 501.918 669.64C507.79 638.629 515.528 610.185 523.019 582.675C540.258 519.338 555.144 464.648 542.948 397.3C537.821 368.979 521.633 342.181 497.369 321.845C475.244 303.303 448.815 292.792 426.683 293.725C405.919 294.6 387.028 305.591 377.378 322.402C367.333 339.913 368.363 361.15 380.359 383.826C392.802 407.345 404.63 423.378 417.15 440.351C431.628 459.981 446.599 480.266 462.003 511.38C471.608 527.938 479.132 548.029 483.792 569.577C488.607 591.845 490.376 615.804 488.905 638.869C487.278 664.41 481.86 688.699 472.813 711.071C462.613 736.281 448.037 758.38 429.49 776.76C383.885 821.943 327.937 848.119 279.039 848.119C272.455 848.119 266.007 847.646 259.72 846.68C242.812 844.081 227.498 838.061 214.2 828.774C200.195 819.001 188.776 805.845 180.26 789.682C159.172 749.677 154.538 714.305 166.08 681.532C175.918 653.6 195.561 633.587 212.897 615.927C240.687 587.613 252.52 573.809 241.652 543.285C235.495 526.001 223.96 515.547 208.276 513.065C187.998 509.857 156.003 519.85 127.002 557.529C100.385 592.111 57.3921 675.375 68.5325 844.464L1.92358 848.851L1.93006 848.858Z" fill="#9A28CD"/>
<path d="M179.954 491.457L188.567 489.377L189.383 492.747L176.591 495.838L170.434 470.356L174.614 469.345L179.954 491.45V491.457Z" fill="#FFE42C"/>
<path d="M210.101 465.861L201.683 482.698L201.825 492.199L197.528 492.264L197.386 482.763L188.423 466.192L193.212 466.121L199.479 478.888L205.357 465.939L210.108 465.868L210.101 465.861Z" fill="#FFE42C"/>
<path d="M415.15 478.249L410.134 470.939L412.992 468.975L420.439 479.83L398.825 494.658L396.395 491.113L415.15 478.243V478.249Z" fill="#FFE42C"/>
<path d="M377.46 464.799L396.059 461.903L403.72 456.277L406.267 459.745L398.606 465.37L390.292 482.278L387.459 478.416L394.232 465.908L380.272 468.623L377.46 464.793V464.799Z" fill="#FFE42C"/>
<path d="M346.735 400.729L353.118 398.785L350.701 394.43L354 392.603L356.799 397.651L363.63 395.59L365.626 399.187L358.795 401.248L362.379 407.716L369.216 405.655L371.212 409.252L364.382 411.312L367.214 416.426L363.915 418.253L360.694 412.447L354.311 414.391L357.13 419.472L353.831 421.299L350.63 415.525L343.916 417.566L341.92 413.969L348.634 411.928L345.05 405.46L338.336 407.502L336.34 403.905L343.054 401.863L340.623 397.476L343.922 395.648L346.741 400.729H346.735ZM348.731 404.326L352.315 410.794L358.698 408.85L355.114 402.382L348.731 404.326Z" fill="#FFE42C"/>
<path d="M332.002 337.445C330.667 338.074 329.643 338.975 328.93 340.154C328.217 341.334 327.828 342.714 327.77 344.295C327.705 346.026 328.029 347.587 328.755 348.974C329.481 350.361 330.544 351.469 331.95 352.286C333.35 353.109 334.996 353.556 336.882 353.628C338.768 353.699 340.446 353.381 341.918 352.675C343.395 351.968 344.549 350.944 345.378 349.622C346.208 348.294 346.661 346.764 346.726 345.034C346.817 342.695 346.24 340.776 344.989 339.266C343.739 337.756 342.002 336.797 339.779 336.382L339.397 346.22L335.968 346.084L336.532 331.651L339.889 331.781C341.911 332.137 343.758 332.935 345.417 334.166C347.083 335.404 348.385 336.972 349.332 338.884C350.278 340.796 350.705 342.895 350.615 345.183C350.517 347.646 349.856 349.869 348.638 351.865C347.413 353.854 345.761 355.41 343.68 356.524C341.6 357.639 339.273 358.145 336.714 358.047C334.154 357.95 331.872 357.263 329.889 355.986C327.9 354.716 326.377 353.031 325.314 350.938C324.251 348.845 323.765 346.583 323.862 344.146C323.972 341.359 324.75 338.903 326.208 336.784C327.66 334.665 329.662 333.161 332.216 332.28L332.015 337.445H332.002Z" fill="#FFE42C"/>
<path d="M351.892 326.09C350.051 327.541 347.952 328.429 345.599 328.74C343.247 329.058 340.887 328.721 338.522 327.736C336.157 326.751 334.258 325.318 332.838 323.433C331.419 321.547 330.57 319.44 330.304 317.107C330.032 314.774 330.369 312.487 331.303 310.231C332.249 307.957 333.642 306.09 335.489 304.638C337.33 303.187 339.423 302.305 341.756 301.994C344.089 301.683 346.441 302.02 348.807 303.005C351.172 303.99 353.078 305.423 354.517 307.302C355.955 309.181 356.811 311.288 357.076 313.614C357.349 315.947 357.005 318.248 356.059 320.523C355.119 322.778 353.732 324.625 351.892 326.083V326.09ZM353.298 314.36C353.091 312.804 352.449 311.385 351.386 310.115C350.323 308.844 348.898 307.833 347.109 307.088C345.32 306.343 343.609 306.045 341.963 306.194C340.324 306.343 338.878 306.894 337.641 307.846C336.403 308.799 335.444 310.082 334.783 311.683C334.115 313.284 333.882 314.865 334.083 316.414C334.284 317.969 334.906 319.376 335.956 320.646C337.006 321.916 338.425 322.921 340.214 323.666C342.002 324.411 343.72 324.709 345.372 324.567C347.025 324.424 348.476 323.88 349.727 322.927C350.978 321.974 351.937 320.704 352.605 319.097C353.272 317.496 353.499 315.915 353.292 314.36H353.298Z" fill="#FFE42C"/>
<path d="M364.156 302.74C361.92 303.459 359.645 303.556 357.331 303.032C355.018 302.507 352.925 301.372 351.045 299.623C349.166 297.873 347.895 295.87 347.215 293.609C346.541 291.347 346.483 289.079 347.04 286.797C347.597 284.516 348.712 282.488 350.378 280.705C352.056 278.904 354.013 277.64 356.249 276.921C358.485 276.201 360.747 276.104 363.041 276.629C365.335 277.154 367.422 278.288 369.301 280.038C371.174 281.788 372.464 283.79 373.157 286.052C373.851 288.314 373.916 290.582 373.358 292.863C372.801 295.144 371.68 297.186 369.995 298.988C368.329 300.77 366.385 302.021 364.149 302.74H364.156ZM369.561 292.235C369.904 290.699 369.807 289.156 369.249 287.588C368.699 286.026 367.714 284.581 366.294 283.259C364.881 281.937 363.378 281.062 361.784 280.628C360.196 280.193 358.653 280.206 357.156 280.673C355.659 281.133 354.318 282.002 353.138 283.272C351.952 284.542 351.188 285.935 350.831 287.465C350.475 288.988 350.572 290.53 351.116 292.086C351.661 293.641 352.639 295.08 354.059 296.402C355.478 297.724 356.981 298.605 358.582 299.046C360.183 299.487 361.732 299.48 363.235 299.026C364.739 298.573 366.087 297.711 367.266 296.441C368.452 295.17 369.217 293.771 369.561 292.235Z" fill="#FFE42C"/>
<path d="M382.297 259.426C384.65 259.355 386.814 259.918 388.778 261.117C390.742 262.316 392.368 264.092 393.652 266.425C394.935 268.765 395.544 271.065 395.486 273.334C395.427 275.602 394.727 277.702 393.386 279.626C392.044 281.551 390.152 283.184 387.709 284.526L380.204 288.648L367.593 265.667L375.097 261.545C377.547 260.204 379.945 259.497 382.297 259.419V259.426ZM391.001 275.88C391.636 273.638 391.228 271.195 389.776 268.551C388.312 265.887 386.452 264.196 384.196 263.483C381.941 262.77 379.472 263.152 376.782 264.63L373.043 266.678L382.278 283.508L386.017 281.46C388.707 279.983 390.366 278.129 391.001 275.887V275.88Z" fill="#FFE42C"/>
<path d="M430.317 246.516L423.221 273.599L418.27 274.111L405.742 249.056L410.318 248.583L420.285 269.47L425.807 246.982L430.311 246.516H430.317Z" fill="#FFE42C"/>
<path d="M441.677 247.813L439.441 273.931L435.158 273.561L437.393 247.444L441.677 247.813Z" fill="#FFE42C"/>
<path d="M463.893 267.406C464.554 268.832 464.703 270.303 464.34 271.82C464.029 273.116 463.407 274.198 462.486 275.08C461.566 275.954 460.393 276.538 458.98 276.829C457.567 277.121 456.012 277.063 454.327 276.654L444.133 274.192L450.283 248.709L459.998 251.055C461.735 251.477 463.154 252.125 464.256 253.013C465.357 253.901 466.109 254.918 466.511 256.059C466.906 257.199 466.958 258.385 466.66 259.604C466.304 261.068 465.617 262.196 464.599 262.987C463.582 263.777 462.357 264.244 460.924 264.386C462.234 264.963 463.219 265.961 463.886 267.393L463.893 267.406ZM458.365 272.941C459.337 272.455 459.972 271.593 460.263 270.375C460.562 269.13 460.374 268.035 459.7 267.095C459.019 266.156 457.976 265.514 456.556 265.171L451.054 263.842L449.136 271.8L454.781 273.161C456.2 273.505 457.393 273.427 458.365 272.941ZM451.877 260.433L457.049 261.684C458.416 262.014 459.564 261.963 460.484 261.522C461.404 261.088 462.007 260.278 462.292 259.105C462.571 257.957 462.402 256.966 461.786 256.13C461.171 255.294 460.179 254.717 458.812 254.387L453.64 253.136L451.877 260.433Z" fill="#FFE42C"/>
<path d="M478.776 260.808L475.768 267.891L484.096 271.43L482.722 274.657L474.388 271.119L471.245 278.513L480.616 282.492L479.242 285.72L465.911 280.056L476.177 255.896L489.508 261.56L488.134 264.787L478.763 260.808H478.776Z" fill="#FFE42C"/>
<path d="M486.901 289.145C486.013 287.888 485.521 286.573 485.417 285.186C485.313 283.799 485.65 282.464 486.428 281.174L490.368 283.553C489.869 284.57 489.772 285.6 490.07 286.631C490.368 287.668 491.133 288.549 492.364 289.294C493.634 290.059 494.807 290.351 495.89 290.169C496.972 289.981 497.802 289.411 498.385 288.439C498.839 287.687 498.988 286.942 498.832 286.197C498.676 285.458 498.346 284.758 497.847 284.103C497.348 283.449 496.609 282.619 495.624 281.615C494.393 280.345 493.44 279.23 492.766 278.284C492.092 277.331 491.684 276.242 491.548 275.011C491.412 273.78 491.762 272.47 492.604 271.071C493.382 269.781 494.386 268.841 495.618 268.265C496.849 267.688 498.203 267.487 499.675 267.675C501.146 267.863 502.649 268.414 504.179 269.334C506.35 270.649 507.808 272.263 508.54 274.188C509.272 276.113 509.143 278.07 508.151 280.053L504.081 277.597C504.509 276.741 504.548 275.808 504.185 274.797C503.829 273.786 503.064 272.931 501.904 272.231C500.848 271.596 499.824 271.343 498.832 271.479C497.84 271.615 497.037 272.185 496.428 273.196C496.013 273.883 495.883 274.577 496.032 275.27C496.188 275.964 496.505 276.638 496.998 277.286C497.491 277.934 498.203 278.744 499.137 279.722C500.374 281.032 501.34 282.166 502.027 283.144C502.714 284.116 503.135 285.231 503.278 286.475C503.42 287.72 503.064 289.055 502.208 290.474C501.522 291.615 500.562 292.509 499.338 293.144C498.113 293.786 496.732 294.058 495.183 293.961C493.641 293.863 492.073 293.338 490.478 292.373C488.968 291.466 487.776 290.383 486.888 289.126L486.901 289.145Z" fill="#FFE42C"/>
<path d="M514.462 307.716C513.768 305.474 513.703 303.199 514.254 300.892C514.805 298.585 515.972 296.505 517.741 294.651C519.51 292.798 521.532 291.547 523.807 290.899C526.075 290.251 528.35 290.225 530.618 290.815C532.893 291.404 534.908 292.538 536.671 294.223C538.453 295.928 539.691 297.898 540.378 300.14C541.071 302.383 541.136 304.651 540.585 306.939C540.034 309.226 538.868 311.3 537.099 313.154C535.329 315.007 533.307 316.264 531.033 316.932C528.764 317.599 526.49 317.632 524.221 317.049C521.947 316.459 519.925 315.312 518.143 313.614C516.38 311.929 515.155 309.965 514.462 307.723V307.716ZM524.895 313.257C526.425 313.62 527.974 313.536 529.542 313.005C531.11 312.473 532.569 311.508 533.904 310.108C535.239 308.708 536.14 307.217 536.593 305.63C537.047 304.048 537.053 302.506 536.606 301.002C536.165 299.499 535.316 298.151 534.059 296.952C532.802 295.753 531.415 294.969 529.899 294.593C528.376 294.217 526.84 294.295 525.278 294.82C523.716 295.345 522.264 296.304 520.929 297.704C519.594 299.103 518.693 300.6 518.233 302.195C517.773 303.789 517.76 305.338 518.194 306.848C518.629 308.358 519.471 309.712 520.728 310.911C521.986 312.11 523.373 312.894 524.902 313.257H524.895Z" fill="#FFE42C"/>
<path d="M542.743 342.376L540.177 338.929L548.148 316.862L532.446 328.553L529.879 325.105L550.935 309.428L553.501 312.876L545.556 334.923L561.226 323.252L563.793 326.699L542.737 342.376H542.743Z" fill="#FFE42C"/>
<path d="M550.197 348.739L554.468 356.503L551.429 358.175L545.084 346.64L568.052 334.009L570.126 337.774L550.197 348.733V348.739Z" fill="#FFE42C"/>
<path d="M584.184 369.334L565.467 367.318L556.608 370.766L555.046 366.761L563.905 363.313L576.309 349.127L578.046 353.592L568.267 363.922L582.453 364.914L584.177 369.34L584.184 369.334Z" fill="#FFE42C"/>
<path d="M585.036 442.739L578.465 441.598L578.659 446.575L574.888 446.724L574.661 440.957L567.629 439.719L567.467 435.61L574.499 436.848L574.214 429.46L567.182 428.222L567.02 424.113L574.052 425.351L573.825 419.512L577.597 419.363L577.856 425.993L584.427 427.133L584.2 421.326L587.972 421.177L588.225 427.775L595.14 428.98L595.302 433.089L588.387 431.884L588.672 439.272L595.587 440.477L595.749 444.586L588.834 443.38L589.029 448.39L585.257 448.539L585.03 442.732L585.036 442.739ZM584.874 438.63L584.589 431.242L578.018 430.101L578.303 437.489L584.874 438.63Z" fill="#FFE42C"/>
<path d="M672.822 454.049L689.678 462.435L699.179 462.273L699.257 466.57L689.756 466.732L673.204 475.733L673.12 470.944L685.874 464.651L672.913 458.806L672.828 454.055L672.822 454.049Z" fill="#FFE42C"/>
<path d="M706.014 387.24L710.298 392.353L713.364 388.426L716.338 390.746L712.787 395.296L717.362 400.778L714.835 404.019L710.259 398.536L705.71 404.362L710.285 409.845L707.758 413.085L703.182 407.602L699.586 412.21L696.611 409.89L700.694 404.654L696.41 399.54L692.839 404.122L689.864 401.802L693.928 396.598L689.424 391.213L691.951 387.972L696.455 393.358L701.005 387.532L696.501 382.146L699.028 378.906L703.532 384.291L706.617 380.338L709.592 382.658L706.021 387.24H706.014ZM703.487 390.48L698.937 396.307L703.221 401.42L707.771 395.594L703.487 390.48Z" fill="#FFE42C"/>
</g>
<defs>
<clipPath id="clip0_734_4849">
<rect width="764" height="621.93" fill="white" transform="matrix(-0.951192 0.308601 0.308601 0.951192 1433.71 0)"/>
</clipPath>
<clipPath id="clip1_734_4849">
<rect width="764" height="621.93" fill="white" transform="translate(0 226.93)"/>
</clipPath>
</defs>
</svg>
