<svg width="16" height="16" viewBox="0 0 16 16" fill="none" xmlns="http://www.w3.org/2000/svg">
<path d="M5.49951 0.0229492C5.84052 -0.061599 6.30968 0.094424 6.55322 0.370605C6.74798 0.59775 6.82762 0.811348 6.82764 1.11865C6.82764 1.60426 6.76163 1.68915 5.30029 3.01221L3.99756 4.19287L7.50146 4.21924C11.3095 4.24596 11.1771 4.23762 11.9917 4.50928C13.7587 5.1018 15.1542 6.51398 15.73 8.2915C15.9426 8.9509 16.0049 9.34788 16.0005 10.1187C15.996 11.1834 15.8054 11.9635 15.3403 12.8501C14.6317 14.1866 13.4355 15.2153 12.0405 15.6831C11.0619 16.0127 11.305 15.9995 5.81787 15.9995C1.76564 15.9995 0.870726 15.9905 0.729004 15.937C0.512062 15.8611 0.237731 15.6119 0.11377 15.3804C-0.0190981 15.1264 -0.0190981 14.6451 0.11377 14.3911C0.220094 14.1951 0.467841 13.9543 0.653809 13.8696C0.737958 13.8295 2.04955 13.8123 5.72998 13.7944C10.6811 13.7677 10.6901 13.7674 11.0444 13.6694C12.1029 13.3754 12.9533 12.6758 13.436 11.7046C13.7017 11.17 13.7817 10.7912 13.7817 10.0962C13.7817 9.57065 13.7678 9.4459 13.6616 9.10303C13.5996 8.88471 13.4932 8.60375 13.4312 8.479C13.0414 7.70389 12.3465 7.0534 11.5405 6.71924C10.8806 6.44301 10.8494 6.4383 7.25342 6.45166L3.99365 6.46533L5.25146 7.64111C6.08853 8.4208 6.54005 8.87574 6.60205 9.00049C6.73483 9.25894 6.73977 9.73585 6.60693 9.98975C6.49175 10.2036 6.23895 10.4397 6.02197 10.5288C5.80052 10.6224 5.40168 10.6127 5.17139 10.5103C5.03784 10.4472 4.29371 9.78804 2.81104 8.39893C1.61966 7.28509 0.565175 6.31396 0.472168 6.24268C0.0161466 5.87745 -0.125601 5.29364 0.117676 4.80811C0.184109 4.68336 0.919535 3.98331 2.60693 2.45068C3.92675 1.25219 5.08762 0.223447 5.18506 0.165527C5.27807 0.107621 5.42424 0.0452198 5.49951 0.0229492Z" fill="#F7F7F7"/>
</svg>
