<svg width="14" height="14" viewBox="0 0 14 14" fill="none" xmlns="http://www.w3.org/2000/svg">
<path d="M12.3592 1.0941H11.7033V0H10.6092V1.0941H3.3908V0H2.2967V1.0941H1.6408C1.20587 1.09447 0.788845 1.26736 0.481236 1.57484C0.173626 1.88232 0.000556022 2.29927 0 2.7342L0 12.3592C0.000370732 12.7943 0.173359 13.2114 0.480989 13.519C0.788618 13.8266 1.20575 13.9996 1.6408 14H12.3592C12.7943 13.9996 13.2114 13.8266 13.519 13.519C13.8266 13.2114 13.9996 12.7943 14 12.3592V2.7342C13.9994 2.29927 13.8264 1.88232 13.5188 1.57484C13.2112 1.26736 12.7941 1.09447 12.3592 1.0941ZM12.9059 12.3599C12.9057 12.5048 12.8481 12.6438 12.7456 12.7463C12.6431 12.8488 12.5041 12.9064 12.3592 12.9066H1.6408C1.49586 12.9064 1.35692 12.8488 1.25443 12.7463C1.15194 12.6438 1.09429 12.5048 1.0941 12.3599V5.1408H12.9066L12.9059 12.3599ZM12.9059 4.0474H1.0941V2.7342C1.09429 2.58926 1.15194 2.45032 1.25443 2.34783C1.35692 2.24534 1.49586 2.18769 1.6408 2.1875H2.2974V3.2816H3.3908V2.1875H10.6092V3.2816H11.7033V2.1875H12.3599C12.5048 2.18769 12.6438 2.24534 12.7463 2.34783C12.8488 2.45032 12.9064 2.58926 12.9066 2.7342L12.9059 4.0474Z" fill="#FFE42C"/>
</svg>
