<svg width="16" height="15" viewBox="0 0 16 15" fill="none" xmlns="http://www.w3.org/2000/svg">
<path d="M9.91309 0.110229C10.1535 -4.68272e-05 10.4186 -0.0280075 10.6738 0.0281982C10.929 0.084435 11.1636 0.222945 11.3477 0.426636L15.2168 4.70984C15.5869 5.11976 15.7949 5.67611 15.7949 6.25574C15.7949 6.83539 15.5869 7.3917 15.2168 7.80164L11.3477 12.0848C11.1636 12.2886 10.9291 12.428 10.6738 12.4843C10.4186 12.5405 10.1535 12.5115 9.91309 12.4012C9.67272 12.291 9.46783 12.1036 9.32324 11.8641C9.17862 11.6245 9.10064 11.3428 9.10059 11.0546V9.89929H5.26465C4.21788 9.90045 3.21385 10.361 2.47363 11.1805C1.7334 12.0002 1.31745 13.1122 1.31641 14.2714C1.31635 14.4645 1.24639 14.6494 1.12305 14.786C0.999673 14.9226 0.832677 14.9998 0.658203 14.9999C0.483676 14.9999 0.315792 14.9227 0.192383 14.786C0.0692354 14.6495 5.8312e-05 14.4644 0 14.2714V9.17078C0.00174178 7.43208 0.626022 5.76448 1.73633 4.53503C2.84663 3.30563 4.35267 2.61411 5.92285 2.61218H9.10059V1.45691C9.10064 1.16872 9.17862 0.886939 9.32324 0.647339C9.46784 0.407852 9.67273 0.220482 9.91309 0.110229ZM10.417 3.3407C10.417 3.53386 10.3479 3.71969 10.2246 3.85632C10.1012 3.99297 9.93332 4.07019 9.75879 4.07019H5.92285C4.70166 4.07173 3.53054 4.60918 2.66699 5.56531C1.80343 6.52153 1.3178 7.81847 1.31641 9.17078V10.4198C1.80966 9.79821 2.41679 9.29989 3.09766 8.95886C3.7785 8.61786 4.51739 8.44201 5.26465 8.44226H9.75879C9.93332 8.44226 10.1012 8.5185 10.2246 8.65515C10.3479 8.79179 10.417 8.97759 10.417 9.17078V11.0546L14.2861 6.77136C14.4095 6.63472 14.4785 6.44895 14.4785 6.25574C14.4785 6.06276 14.4092 5.87768 14.2861 5.74109L10.417 1.45691V3.3407Z" fill="#B433FF"/>
</svg>
