<svg width="14" height="19" viewBox="0 0 14 19" fill="none" xmlns="http://www.w3.org/2000/svg">
<path d="M11.1104 0C12.6974 0.000121163 13.7958 1.40377 13.7959 2.88867V18C13.7959 18.3753 13.585 18.7195 13.251 18.8906C12.917 19.0614 12.5153 19.0308 12.2109 18.8115L7.22461 15.2188V15.2178C7.01885 15.0695 6.77708 15.0696 6.57129 15.2178V15.2188L1.58496 18.8115C1.28049 19.0309 0.878013 19.0616 0.543945 18.8906C0.209987 18.7195 0 18.3752 0 18V2.88867C0.000147644 1.4037 1.0984 0 2.68555 0H11.1104ZM2.68555 2C2.41153 2 2.00014 2.2875 2 2.88867V16.0469L5.40234 13.5957C6.30648 12.9443 7.48948 12.9442 8.39355 13.5957L11.7959 16.0469V2.88867C11.7958 2.28764 11.3844 2.00014 11.1104 2H2.68555Z" fill="#FFD3D2"/>
</svg>
