<svg width="13" height="17" viewBox="0 0 13 17" fill="none" xmlns="http://www.w3.org/2000/svg">
<path d="M10.6074 0C11.939 0.000200279 13 1.09262 13 2.41699V15.75C12.9999 16.0251 12.8493 16.2791 12.6074 16.4102C12.3657 16.5409 12.0712 16.5288 11.8408 16.3789L6.97852 13.208C6.72299 13.0414 6.40576 13.0206 6.13477 13.1455L6.02148 13.208L1.16016 16.3789C0.929745 16.5292 0.63451 16.541 0.392578 16.4102C0.150633 16.2791 7.98371e-05 16.0252 0 15.75V2.41699C0 1.0926 1.06104 0.000181442 2.39258 0H10.6074ZM2.39258 1.5C1.90971 1.50018 1.5 1.90063 1.5 2.41699V14.3652L5.20215 11.9512C5.99229 11.436 7.00875 11.4358 7.79883 11.9512L11.5 14.3652V2.41699C11.5 1.90064 11.0903 1.5002 10.6074 1.5H2.39258Z" fill="#1FA293"/>
</svg>
