<svg width="17" height="13" viewBox="0 0 17 13" fill="none" xmlns="http://www.w3.org/2000/svg">
<path d="M11.4883 0.0233154C11.7628 0.0701548 12.0149 0.185733 12.2129 0.355347L16.3779 3.92566C16.776 4.26715 16.9999 4.72997 17 5.21277C17 5.69574 16.7762 6.15926 16.3779 6.50085L12.2129 10.0712C12.0149 10.2408 11.7628 10.3564 11.4883 10.4032C11.2136 10.45 10.9287 10.4257 10.6699 10.3339C10.4111 10.242 10.1898 10.0863 10.0342 9.8866C9.8787 9.68708 9.79507 9.45271 9.79492 9.21277V8.2489H5.66602C4.53934 8.24989 3.45879 8.63423 2.66211 9.31726C1.8655 10.0003 1.41818 10.9266 1.41699 11.8925C1.41699 12.0535 1.34181 12.2083 1.20898 12.3221C1.07617 12.436 0.895796 12.4999 0.708008 12.4999C0.520257 12.4998 0.339796 12.436 0.207031 12.3221C0.0743172 12.2083 0 12.0534 0 11.8925V7.64246C0.00187467 6.19354 0.67412 4.80371 1.86914 3.77917C3.06406 2.75482 4.68424 2.17832 6.37402 2.17664H9.79492V1.21375C9.79505 0.973792 9.87871 0.739446 10.0342 0.539917C10.1898 0.340251 10.4111 0.184548 10.6699 0.0926514C10.9287 0.000760665 11.2135 -0.0235214 11.4883 0.0233154ZM11.2119 2.78406C11.2119 2.9451 11.1367 3.09987 11.0039 3.21375C10.8712 3.32739 10.6915 3.3914 10.5039 3.39148H6.37402C5.05974 3.39284 3.79948 3.84083 2.87012 4.63757C1.94067 5.43443 1.41849 6.51553 1.41699 7.64246V8.6825C1.94781 8.16469 2.60137 7.74981 3.33398 7.4657C4.06675 7.18154 4.86178 7.03484 5.66602 7.03503H10.5039C10.6915 7.03511 10.8712 7.0991 11.0039 7.21277C11.1367 7.32664 11.2119 7.48141 11.2119 7.64246V9.21277L15.376 5.64246C15.5086 5.5286 15.583 5.3737 15.583 5.21277C15.5829 5.05201 15.5085 4.8978 15.376 4.78406L11.2119 1.21375V2.78406Z" fill="#1FA293"/>
</svg>
