<svg width="24" height="23" viewBox="0 0 24 23" fill="none" xmlns="http://www.w3.org/2000/svg">
<path d="M15.0635 0.169922C15.4288 0.000936094 15.831 -0.0431918 16.2188 0.0429688C16.6065 0.129189 16.9626 0.341975 17.2422 0.654297L23.1221 7.22266C23.6844 7.85121 24 8.70403 24 9.59277C23.9999 10.4813 23.6842 11.3334 23.1221 11.9619L17.2422 18.5312C16.9626 18.8435 16.6064 19.0564 16.2188 19.1426C15.8309 19.2288 15.4288 19.1837 15.0635 19.0146C14.6982 18.8456 14.3858 18.5597 14.166 18.1924C13.9463 17.825 13.8292 17.393 13.8291 16.9512V15.1787H7.99902C6.40844 15.1805 4.88351 15.8878 3.75879 17.1445C2.63405 18.4013 2.00159 20.1054 2 21.8828C1.99997 22.1791 1.89453 22.4633 1.70703 22.6729C1.51954 22.8823 1.26515 23 1 23C0.734856 23 0.480477 22.8823 0.292969 22.6729C0.105474 22.4633 2.55662e-05 22.1791 0 21.8828V14.0615C0.00268707 11.3956 0.95162 8.83921 2.63867 6.9541C4.32572 5.06914 6.61326 4.00884 8.99902 4.00586H13.8291V2.23438C13.8292 1.79253 13.9463 1.36052 14.166 0.993164C14.3858 0.625778 14.6981 0.339012 15.0635 0.169922ZM15.8281 5.12305C15.8281 5.41937 15.7227 5.70355 15.5352 5.91309C15.3476 6.12261 15.0933 6.24023 14.8281 6.24023H8.99902C7.14337 6.24263 5.3639 7.06799 4.05176 8.53418C2.7398 10.0003 2.00216 11.9882 2 14.0615V15.9766C2.74947 15.0235 3.67254 14.2602 4.70703 13.7373C5.74147 13.2145 6.8637 12.944 7.99902 12.9443H14.8281C15.0932 12.9443 15.3477 13.0621 15.5352 13.2715C15.7226 13.481 15.8281 13.7653 15.8281 14.0615V16.9512L21.707 10.3828C21.8944 10.1733 21.9999 9.88896 22 9.59277C22 9.29658 21.8944 9.01224 21.707 8.80273L15.8281 2.23438V5.12305Z" fill="#FFA480"/>
</svg>
