<svg width="14" height="19" viewBox="0 0 14 19" fill="none" xmlns="http://www.w3.org/2000/svg">
<path d="M11.1104 0C12.6975 0 13.7958 1.40371 13.7959 2.88867V18C13.7959 18.3753 13.5851 18.7196 13.251 18.8906C12.917 19.0615 12.5153 19.0309 12.2109 18.8115L7.22461 15.2188V15.2178C7.01881 15.0695 6.7771 15.0695 6.57129 15.2178V15.2188L1.58496 18.8115C1.28045 19.031 0.878039 19.0617 0.543945 18.8906C0.210012 18.7195 0 18.3752 0 18V2.88867C0.000147631 1.40371 1.09843 2.27722e-05 2.68555 0H11.1104ZM2.68555 2C2.41153 2.00003 2.00014 2.28753 2 2.88867V16.0469L5.40234 13.5957C6.30649 12.9442 7.48944 12.9442 8.39355 13.5957L11.7959 16.0469V2.88867C11.7958 2.28749 11.3844 2 11.1104 2H2.68555Z" fill="#B433FF"/>
</svg>
