<svg width="24" height="23" viewBox="0 0 24 23" fill="none" xmlns="http://www.w3.org/2000/svg">
<path fill-rule="evenodd" clip-rule="evenodd" d="M15.0625 0.169879C15.4278 0.000823288 15.83 -0.0431854 16.2178 0.0429259C16.6056 0.129108 16.9625 0.34184 17.2422 0.654254L23.1211 7.22261C23.6834 7.85118 23.999 8.70394 23.999 9.59273C23.999 10.4813 23.6833 11.3334 23.1211 11.9619L17.2422 18.5312C16.9625 18.8436 16.6056 19.0564 16.2178 19.1425C15.83 19.2286 15.4277 19.1836 15.0625 19.0146C14.6973 18.8455 14.3847 18.5596 14.165 18.1923C13.9453 17.825 13.8282 17.3929 13.8281 16.9511V15.1787H7.99902C6.40841 15.1804 4.88352 15.8877 3.75879 17.1445C2.63406 18.4013 2.00159 20.1054 2 21.8828C1.99997 22.179 1.89452 22.4633 1.70703 22.6728C1.51955 22.8823 1.26514 22.9999 1 23C0.734869 23 0.480471 22.8823 0.292969 22.6728C0.105482 22.4633 2.94028e-05 22.179 0 21.8828V14.0615C0.00268514 11.3955 0.951663 8.83917 2.63867 6.95406C4.32569 5.06909 6.61331 4.00877 8.99902 4.00582H13.8281V2.23433C13.8282 1.7926 13.9454 1.36043 14.165 0.993121C14.3847 0.625801 14.6972 0.338981 15.0625 0.169879ZM15.8281 5.123C15.8281 5.41924 15.7226 5.70353 15.5352 5.91304C15.3476 6.12257 15.0933 6.24019 14.8281 6.24019H8.99902C7.14339 6.24256 5.36389 7.06793 4.05176 8.53414C2.7398 10.0003 2.00216 11.9881 2 14.0615V15.9765C2.74944 15.0235 3.67258 14.2601 4.70703 13.7373C5.74147 13.2145 6.8637 12.9439 7.99902 12.9443H14.8281C15.0933 12.9443 15.3477 13.062 15.5352 13.2714C15.7226 13.4809 15.8281 13.7652 15.8281 14.0615V16.9511L21.7061 10.3828C21.8935 10.1733 21.999 9.88891 21.999 9.59273C21.999 9.29647 21.8935 9.01221 21.7061 8.80269L15.8281 2.23433V5.123Z" fill="#B433FF"/>
</svg>
