<svg width="22" height="27" viewBox="0 0 22 27" fill="none" xmlns="http://www.w3.org/2000/svg">
<path d="M18.1426 0C20.2458 4.35247e-05 21.9996 1.66501 22 3.77734V26C21.9999 26.3634 21.8022 26.6978 21.4844 26.874C21.1664 27.0502 20.778 27.0403 20.4697 26.8477L12.0146 21.5635C11.398 21.1782 10.602 21.1782 9.98535 21.5635H9.98438L1.53027 26.8477C1.22205 27.0403 0.833548 27.0502 0.515625 26.874C0.197943 26.6978 6.0862e-05 26.3633 0 26V3.77734C0.000443721 1.66507 1.75434 0.000150934 3.85742 0H18.1426ZM3.85742 2C2.80549 2.00015 2.00045 2.8223 2 3.77734V24.1943L8.9248 19.8672L9.16602 19.7285C10.3911 19.0797 11.8889 19.1258 13.0752 19.8672L20 24.1953V3.77734C19.9995 2.82223 19.1946 2.00004 18.1426 2H3.85742Z" fill="#B433FF"/>
</svg>
