<svg width="22" height="27" viewBox="0 0 22 27" fill="none" xmlns="http://www.w3.org/2000/svg">
<path d="M18.3379 0.00488281C20.3531 0.104376 21.9987 1.73086 21.999 3.77734V26C21.999 26.3635 21.8013 26.6988 21.4834 26.875C21.1656 27.0508 20.7768 27.0402 20.4688 26.8477L12.0146 21.5635C11.3979 21.1782 10.601 21.178 9.98438 21.5635L1.53027 26.8477C1.2222 27.0401 0.833415 27.0509 0.515625 26.875C0.197977 26.6987 3.06029e-05 26.3633 0 26V3.77734C0.000384462 1.6651 1.7544 0.000257099 3.85742 0H18.1416L18.3379 0.00488281ZM3.85742 2C2.80561 2.00025 2.00039 2.82228 2 3.77734V24.1953L8.9248 19.8672C10.1896 19.0767 11.8082 19.0772 13.0732 19.8672H13.0742L19.999 24.1953V3.77734C19.9987 2.88172 19.2914 2.10341 18.3359 2.00977L18.1416 2H3.85742Z" fill="#FFA480"/>
</svg>
