<svg width="14" height="14" viewBox="0 0 14 14" fill="none" xmlns="http://www.w3.org/2000/svg">
<path d="M0.188817 9.2206C0.316521 9.05312 0.453557 8.90111 0.601361 8.75173C0.62531 8.72729 0.649258 8.70285 0.673932 8.67767C0.75361 8.59644 0.833496 8.51542 0.913386 8.4344C0.970822 8.37597 1.02822 8.3175 1.08561 8.25903C1.24113 8.10068 1.39687 7.94255 1.55265 7.78447C1.65006 7.68563 1.74742 7.58674 1.84478 7.48785C2.11476 7.21362 2.38481 6.93945 2.65505 6.66548C2.67231 6.64799 2.68957 6.6305 2.70735 6.61247C2.73329 6.58617 2.73329 6.58617 2.75976 6.55934C2.7948 6.52382 2.82984 6.48829 2.86488 6.45277C2.88226 6.43514 2.89965 6.41752 2.91755 6.39937C3.19928 6.11374 3.4806 5.82771 3.76175 5.5415C4.05096 5.2471 4.34051 4.95304 4.63039 4.65932C4.79292 4.49462 4.95531 4.32978 5.11732 4.16456C5.25524 4.02393 5.39346 3.8836 5.53208 3.74368C5.60269 3.67238 5.67311 3.6009 5.74324 3.52911C5.81952 3.45106 5.89634 3.3736 5.97331 3.29626C5.99502 3.27378 6.01673 3.25131 6.03909 3.22815C6.30597 2.96282 6.63212 2.81496 7.00502 2.79995C7.44949 2.81182 7.76759 3.01571 8.07269 3.32763C8.09706 3.35206 8.12143 3.3765 8.14654 3.40168C8.22753 3.48304 8.3081 3.56482 8.38867 3.6466C8.44686 3.70531 8.50514 3.76392 8.56341 3.82254C8.70486 3.96495 8.84599 4.10769 8.98698 4.25055C9.10169 4.36677 9.21649 4.48289 9.33136 4.59894C9.69312 4.96442 10.0545 5.33026 10.4157 5.69637C10.7 5.98457 10.9849 6.27221 11.27 6.55961C11.5633 6.8553 11.8562 7.15139 12.1488 7.4479C12.3128 7.61412 12.4769 7.78018 12.6415 7.94582C12.7816 8.08685 12.9214 8.22825 13.0607 8.37012C13.1316 8.44237 13.2028 8.51438 13.2743 8.58606C13.6609 8.97379 13.9929 9.30726 14 9.88778C13.9994 10.259 13.8784 10.5663 13.6268 10.8396C13.5135 10.9468 13.3898 11.0198 13.2498 11.086C13.2308 11.0957 13.2117 11.1053 13.1921 11.1153C12.8963 11.2414 12.4927 11.2186 12.1996 11.0999C11.9877 10.9817 11.808 10.8427 11.6385 10.6685C11.6186 10.6484 11.5988 10.6284 11.5783 10.6077C11.5124 10.5411 11.4468 10.4742 11.3812 10.4073C11.3338 10.3592 11.2863 10.3111 11.2388 10.2631C11.1105 10.1331 10.9824 10.0028 10.8544 9.87247C10.7204 9.73614 10.5861 9.60007 10.4518 9.46397C10.2267 9.23565 10.0017 9.00718 9.77685 8.77858C9.54534 8.54323 9.31373 8.30797 9.08199 8.07283C9.06769 8.05832 9.05338 8.0438 9.03864 8.02885C8.96686 7.95602 8.89508 7.88319 8.8233 7.81036C8.22868 7.20707 7.63439 6.60346 7.0403 5.99963C6.95744 6.03794 6.89685 6.07732 6.83283 6.14279C6.81608 6.15976 6.79933 6.17673 6.78208 6.19422C6.76398 6.21287 6.74588 6.23153 6.72724 6.25074C6.69804 6.28046 6.69804 6.28046 6.66826 6.31078C6.60294 6.37734 6.53784 6.44412 6.47274 6.51089C6.42599 6.5586 6.37923 6.60631 6.33245 6.654C6.23164 6.75682 6.13091 6.85974 6.03024 6.96271C5.87084 7.12571 5.71114 7.2884 5.55137 7.45103C5.32718 7.67927 5.10301 7.90754 4.87896 8.13592C4.86474 8.15041 4.85052 8.1649 4.83587 8.17983C4.60597 8.41418 4.37636 8.64882 4.14682 8.88354C3.91078 9.12489 3.67432 9.36582 3.43753 9.60643C3.30475 9.74138 3.17218 9.87651 3.04006 10.0121C2.9156 10.1399 2.79066 10.2671 2.66534 10.394C2.61962 10.4405 2.57408 10.4871 2.52874 10.534C2.20359 10.8696 1.88055 11.173 1.39105 11.1851C1.00337 11.1884 0.704727 11.1225 0.414842 10.8452C0.0112354 10.4404 -0.161417 9.72508 0.188817 9.2206Z" fill="#FFE42C"/>
</svg>
