<svg width="14" height="14" viewBox="0 0 14 14" fill="none" xmlns="http://www.w3.org/2000/svg">
<path d="M0.188817 9.22063C0.316521 9.05315 0.453557 8.90114 0.601361 8.75176C0.62531 8.72732 0.649258 8.70288 0.673932 8.6777C0.75361 8.59647 0.833496 8.51545 0.913386 8.43443C0.970822 8.376 1.02822 8.31753 1.08561 8.25906C1.24113 8.10071 1.39687 7.94258 1.55265 7.7845C1.65006 7.68566 1.74742 7.58678 1.84478 7.48788C2.11476 7.21365 2.38481 6.93948 2.65505 6.66552C2.67231 6.64802 2.68957 6.63053 2.70735 6.6125C2.73329 6.5862 2.73329 6.5862 2.75976 6.55937C2.7948 6.52385 2.82984 6.48832 2.86488 6.4528C2.88226 6.43518 2.89965 6.41755 2.91755 6.3994C3.19928 6.11377 3.4806 5.82774 3.76175 5.54153C4.05096 5.24713 4.34051 4.95307 4.63039 4.65935C4.79292 4.49465 4.95531 4.32981 5.11732 4.16459C5.25524 4.02396 5.39346 3.88363 5.53208 3.74371C5.60269 3.67241 5.67311 3.60093 5.74324 3.52914C5.81952 3.45109 5.89634 3.37363 5.97331 3.29629C5.99502 3.27381 6.01673 3.25134 6.03909 3.22818C6.30597 2.96285 6.63212 2.815 7.00502 2.79998C7.44949 2.81185 7.76759 3.01574 8.07269 3.32766C8.09706 3.3521 8.12143 3.37653 8.14654 3.40171C8.22753 3.48307 8.3081 3.56485 8.38867 3.64663C8.44686 3.70534 8.50514 3.76395 8.56341 3.82257C8.70486 3.96498 8.84599 4.10772 8.98698 4.25058C9.10169 4.3668 9.21649 4.48292 9.33136 4.59897C9.69312 4.96445 10.0545 5.33029 10.4157 5.6964C10.7 5.9846 10.9849 6.27224 11.27 6.55964C11.5633 6.85533 11.8562 7.15142 12.1488 7.44793C12.3128 7.61415 12.4769 7.78021 12.6415 7.94585C12.7816 8.08688 12.9214 8.22828 13.0607 8.37015C13.1316 8.4424 13.2028 8.51441 13.2743 8.58609C13.6609 8.97382 13.9929 9.30729 14 9.88781C13.9994 10.2591 13.8784 10.5664 13.6268 10.8396C13.5135 10.9468 13.3898 11.0199 13.2498 11.086C13.2308 11.0957 13.2117 11.1054 13.1921 11.1153C12.8963 11.2414 12.4927 11.2187 12.1996 11.0999C11.9877 10.9817 11.808 10.8427 11.6385 10.6685C11.6186 10.6485 11.5988 10.6284 11.5783 10.6077C11.5124 10.5411 11.4468 10.4742 11.3812 10.4073C11.3338 10.3592 11.2863 10.3111 11.2388 10.2631C11.1105 10.1331 10.9824 10.0028 10.8544 9.87251C10.7204 9.73617 10.5861 9.6001 10.4518 9.464C10.2267 9.23568 10.0017 9.00721 9.77685 8.77861C9.54534 8.54326 9.31373 8.308 9.08199 8.07286C9.06769 8.05835 9.05338 8.04383 9.03864 8.02888C8.96686 7.95605 8.89508 7.88322 8.8233 7.81039C8.22868 7.2071 7.63439 6.60349 7.0403 5.99966C6.95744 6.03797 6.89685 6.07735 6.83283 6.14282C6.81608 6.15979 6.79933 6.17677 6.78208 6.19425C6.76398 6.21291 6.74588 6.23156 6.72724 6.25078C6.69804 6.28049 6.69804 6.28049 6.66826 6.31081C6.60294 6.37737 6.53784 6.44415 6.47274 6.51092C6.42599 6.55864 6.37923 6.60634 6.33245 6.65403C6.23164 6.75685 6.13091 6.85977 6.03024 6.96274C5.87084 7.12574 5.71114 7.28843 5.55137 7.45106C5.32718 7.6793 5.10301 7.90757 4.87896 8.13595C4.86474 8.15044 4.85052 8.16493 4.83587 8.17986C4.60597 8.41421 4.37636 8.64885 4.14682 8.88357C3.91078 9.12492 3.67432 9.36585 3.43753 9.60646C3.30475 9.74141 3.17218 9.87655 3.04006 10.0122C2.9156 10.1399 2.79066 10.2672 2.66534 10.394C2.61962 10.4405 2.57408 10.4872 2.52874 10.534C2.20359 10.8696 1.88055 11.1731 1.39105 11.1851C1.00337 11.1884 0.704727 11.1225 0.414842 10.8453C0.0112354 10.4405 -0.161417 9.72511 0.188817 9.22063Z" fill="#B433FF"/>
</svg>
