<svg width="49" height="49" viewBox="0 0 49 49" fill="none" xmlns="http://www.w3.org/2000/svg">
<path d="M0 24.125C0 10.8011 10.8011 0 24.125 0C37.4489 0 48.25 10.8011 48.25 24.125C48.25 37.4489 37.4489 48.25 24.125 48.25C10.8011 48.25 0 37.4489 0 24.125Z" fill="#B433FF"/>
<path d="M31.3828 12.835C32.4962 11.7219 34.3018 11.7217 35.415 12.835C36.5282 13.9482 36.5281 15.7538 35.415 16.8672L28.5596 23.7217C28.337 23.9443 28.3372 24.3056 28.5596 24.5283L35.415 31.3828C36.5282 32.4961 36.5281 34.3017 35.415 35.415C34.3017 36.5284 32.4962 36.5283 31.3828 35.415L24.5283 28.5605C24.3057 28.3379 23.9444 28.338 23.7217 28.5605L16.8672 35.415C15.7538 36.5284 13.9483 36.5284 12.835 35.415C11.7216 34.3017 11.7216 32.4962 12.835 31.3828L19.6895 24.5283C19.912 24.3056 19.9121 23.9443 19.6895 23.7217L12.835 16.8672C11.7216 15.7538 11.7216 13.9483 12.835 12.835C13.9483 11.7219 15.7539 11.7217 16.8672 12.835L23.7217 19.6895C23.9444 19.9121 24.3056 19.9121 24.5283 19.6895L31.3828 12.835Z" fill="#F7F7F7"/>
</svg>
