<svg width="15" height="12" viewBox="0 0 15 12" fill="none" xmlns="http://www.w3.org/2000/svg">
<path fill-rule="evenodd" clip-rule="evenodd" d="M7.34749 0C4.12583 0 1.51416 2.61167 1.51416 5.83333C1.51416 9.055 4.12583 11.6667 7.34749 11.6667C10.5692 11.6667 13.1808 9.055 13.1808 5.83333C13.1808 2.61167 10.5692 0 7.34749 0ZM3.7038 8.5568C3.43685 8.62747 3.27773 8.9012 3.3484 9.16813C3.41907 9.43507 3.69275 9.5942 3.9597 9.52353C5.24572 9.18307 6.76909 8.59987 8.33823 7.81753C9.90089 7.0384 11.2785 6.17673 12.3228 5.3576C12.54 5.18713 12.578 4.87287 12.4076 4.6556C12.2371 4.43832 11.9228 4.40035 11.7056 4.5708C10.7238 5.34087 9.40576 6.16787 7.89203 6.9226C6.37196 7.68047 4.91253 8.23687 3.7038 8.5568Z" fill="#2C2C2C"/>
<path d="M12.9051 2.33681C12.4756 2.30997 11.8719 2.37801 11.1281 2.55235L10.8999 1.57875C11.6881 1.39397 12.3994 1.30325 12.9675 1.33876C13.495 1.37173 14.0934 1.52855 14.3535 2.05023C14.5965 2.53757 14.4054 3.06909 14.1518 3.48426C13.8825 3.92529 13.4474 4.39791 12.9058 4.87457L12.2451 4.12392C12.7515 3.67823 13.1034 3.28225 13.2984 2.96309C13.509 2.61806 13.4592 2.4978 13.4586 2.49643C13.4568 2.49283 13.3752 2.36619 12.9051 2.33681Z" fill="#2C2C2C"/>
<path d="M3.23915 9.69414C2.53256 9.83981 1.89324 9.90288 1.37894 9.85254C0.894799 9.80514 0.355272 9.63794 0.112292 9.15061C-0.147226 8.63008 0.0861388 8.05914 0.375925 7.61894C0.687872 7.14514 1.18609 6.63308 1.80519 6.11621L2.44607 6.88381C1.86206 7.37141 1.44671 7.81108 1.21118 8.16881C0.953492 8.56028 1.00548 8.70088 1.00723 8.70441C1.00791 8.70574 1.07398 8.81794 1.47633 8.85728C1.84852 8.89374 2.37659 8.85094 3.03728 8.71474L3.23915 9.69414Z" fill="#2C2C2C"/>
</svg>
