<svg width="16" height="16" viewBox="0 0 16 16" fill="none" xmlns="http://www.w3.org/2000/svg">
<path fill-rule="evenodd" clip-rule="evenodd" d="M8.0001 2.62819C8.78396 1.90581 9.80476 1.5 10.8704 1.5C12.021 1.5 13.1195 1.97318 13.9238 2.80716C14.7223 3.63454 15.1668 4.74987 15.1668 5.90815C15.1668 7.06647 14.7222 8.18187 13.9238 9.00913C13.3928 9.55953 12.8627 10.1224 12.3298 10.6882C11.2475 11.8375 10.1536 12.999 9.01723 14.0933L9.01456 14.0959C8.42856 14.6519 7.5005 14.6317 6.9395 14.0503L2.07616 9.00907C0.419276 7.2916 0.419276 4.52471 2.07616 2.80723C3.69753 1.12656 6.30842 1.06688 8.0001 2.62819Z" fill="#2C2C2C"/>
</svg>
