<svg width="16" height="16" viewBox="0 0 16 16" fill="none" xmlns="http://www.w3.org/2000/svg">
<g clip-path="url(#clip0_293_927)">
<path d="M9.4326 6.31446V2.40773C9.4326 1.81438 8.9516 1.33337 8.35827 1.33337C7.76494 1.33337 7.28394 1.81438 7.28394 2.40773V5.63078" stroke="#2C2C2C" stroke-linecap="round"/>
<path d="M10.8974 8.56063L12.3479 3.72571C12.5171 3.16173 12.1925 2.56828 11.6264 2.40652C11.063 2.24556 10.4762 2.57389 10.3187 3.13825L9.43237 6.31429" stroke="#2C2C2C" stroke-linecap="round"/>
<path d="M5.07966 6.16652L5.78335 7.72749C6.0265 8.26682 5.78782 8.90129 5.24945 9.14662C4.70798 9.39335 4.06907 9.15302 3.82451 8.61055L3.12082 7.04962C2.87767 6.51023 3.11635 5.87579 3.65471 5.63045C4.19619 5.38368 4.8351 5.62405 5.07966 6.16652Z" stroke="#2C2C2C" stroke-linecap="round"/>
<path d="M7.81273 8.17436C7.9492 7.79602 7.93313 7.37949 7.7678 7.01282L7.0524 5.42585C6.812 4.89264 6.18402 4.65638 5.6518 4.89893C5.10972 5.14597 4.87916 5.79224 5.14248 6.3266L5.2329 6.5101" stroke="#2C2C2C" stroke-linecap="round"/>
<path d="M9.23782 11.7844L9.56588 11.1284C9.59848 11.0631 9.56415 10.9842 9.49408 10.9636L7.12695 10.2674C6.65243 10.1278 6.34539 9.66916 6.39717 9.17729C6.45589 8.61942 6.95235 8.21249 7.51088 8.26449L10.7029 8.56143C10.7029 8.56143 13.2422 8.95209 12.3632 11.4914C11.4842 14.0308 11.1912 14.9098 9.23782 14.9098C7.96815 14.9098 6.11245 14.9098 6.11245 14.9098H5.91711C4.35283 14.9098 3.08473 13.6418 3.08473 12.0775L2.98706 6.60803" stroke="#2C2C2C" stroke-linecap="round"/>
</g>
<defs>
<clipPath id="clip0_293_927">
<rect width="16" height="16" fill="white"/>
</clipPath>
</defs>
</svg>
