<svg width="16" height="16" viewBox="0 0 16 16" fill="none" xmlns="http://www.w3.org/2000/svg">
<path fill-rule="evenodd" clip-rule="evenodd" d="M6.71299 3.48411L9.60799 6.79263C10.2128 7.48383 10.2128 8.51603 9.60799 9.20716L6.71305 12.5157C5.9826 13.3505 4.68399 13.3505 3.95357 12.5157L1.0586 9.20716C0.453778 8.51603 0.453775 7.48383 1.05859 6.79263L3.95357 3.48411C4.68399 2.64934 5.98259 2.64934 6.71299 3.48411Z" fill="#2C2C2C"/>
<path d="M8.6665 12.6667L11.9228 8.86777C12.3507 8.36844 12.3507 7.63164 11.9228 7.13231L8.6665 3.33337" stroke="#2C2C2C" stroke-width="1.5" stroke-linecap="round" stroke-linejoin="round"/>
<path d="M11.3335 12.6667L14.5898 8.86777C15.0177 8.36844 15.0177 7.63164 14.5898 7.13231L11.3335 3.33337" stroke="#2C2C2C" stroke-width="1.5" stroke-linecap="round" stroke-linejoin="round"/>
</svg>
