<svg width="16" height="16" viewBox="0 0 16 16" fill="none" xmlns="http://www.w3.org/2000/svg">
<g clip-path="url(#clip0_293_830)">
<path d="M7.30864 4.04844C7.66838 3.61667 8.33164 3.61667 8.69138 4.04844L11.504 7.4236C11.7822 7.7574 11.7822 8.2422 11.5041 8.57593L8.69144 11.9511C8.33164 12.3829 7.66838 12.3829 7.30864 11.9511L4.49588 8.57593C4.21778 8.2422 4.21788 7.7574 4.49598 7.4236L7.30864 4.04844Z" fill="black"/>
<path fill-rule="evenodd" clip-rule="evenodd" d="M8 12.8334C8.27613 12.8334 8.5 13.0572 8.5 13.3334V14.6667C8.5 14.9428 8.27613 15.1667 8 15.1667C7.72387 15.1667 7.5 14.9428 7.5 14.6667V13.3334C7.5 13.0572 7.72387 12.8334 8 12.8334Z" fill="black"/>
<path fill-rule="evenodd" clip-rule="evenodd" d="M8 0.833374C8.27613 0.833374 8.5 1.05723 8.5 1.33337V2.66671C8.5 2.94285 8.27613 3.16671 8 3.16671C7.72387 3.16671 7.5 2.94285 7.5 2.66671V1.33337C7.5 1.05723 7.72387 0.833374 8 0.833374Z" fill="black"/>
<path fill-rule="evenodd" clip-rule="evenodd" d="M0.833374 8C0.833374 7.72387 1.05723 7.5 1.33337 7.5H2.66671C2.94285 7.5 3.16671 7.72387 3.16671 8C3.16671 8.27613 2.94285 8.5 2.66671 8.5H1.33337C1.05723 8.5 0.833374 8.27613 0.833374 8Z" fill="black"/>
<path fill-rule="evenodd" clip-rule="evenodd" d="M12.8334 8C12.8334 7.72387 13.0572 7.5 13.3334 7.5H14.6667C14.9428 7.5 15.1667 7.72387 15.1667 8C15.1667 8.27613 14.9428 8.5 14.6667 8.5H13.3334C13.0572 8.5 12.8334 8.27613 12.8334 8Z" fill="black"/>
</g>
<defs>
<clipPath id="clip0_293_830">
<rect width="16" height="16" fill="white"/>
</clipPath>
</defs>
</svg>
