<svg width="25" height="25" viewBox="0 0 25 25" fill="none" xmlns="http://www.w3.org/2000/svg">
<path d="M18.75 0H6.25C2.81281 0 0 2.81158 0 6.25V18.75C0 22.1872 2.81281 25 6.25 25H18.75C22.1872 25 25 22.1872 25 18.75V6.25C25 2.81158 22.1872 0 18.75 0ZM12.5 17.7081C9.62311 17.7081 7.29156 15.3756 7.29156 12.5C7.29156 9.62311 9.62311 7.29156 12.5 7.29156C15.3756 7.29156 17.7084 9.62311 17.7084 12.5C17.7084 15.3756 15.3756 17.7081 12.5 17.7081ZM19.2709 7.29156C18.4072 7.29156 17.7084 6.59186 17.7084 5.72906C17.7084 4.86627 18.4072 4.16656 19.2709 4.16656C20.1347 4.16656 20.8334 4.86627 20.8334 5.72906C20.8334 6.59186 20.1347 7.29156 19.2709 7.29156Z" fill="#B433FF"/>
</svg>
