<svg width="153" height="31" viewBox="0 0 153 31" fill="none" xmlns="http://www.w3.org/2000/svg">
<path d="M40.2366 4.40173C38.9637 3.71346 37.5159 3.37009 36.0514 3.40908C34.9094 3.39357 33.7778 3.61733 32.7375 4.0644C31.6971 4.51147 30.7736 5.17082 30.0327 5.99544C28.6824 7.42219 27.8953 9.10697 27.3673 10.1148C27.2471 10.357 27.1081 10.5904 26.9513 10.813C26.8829 10.9098 26.7935 10.9915 26.689 11.0528C26.6199 11.0908 26.5416 11.1107 26.4618 11.1105C26.3428 11.1099 26.2284 11.0665 26.1418 10.9891C26.0745 10.9278 26.0173 10.8571 25.9722 10.7796C25.8686 10.599 25.7818 10.41 25.7131 10.215C25.5371 9.7657 25.3323 9.16464 25.0443 8.49984C24.4716 7.16719 23.5692 5.59777 21.9662 4.55351C20.6882 3.75869 19.1835 3.35597 17.6561 3.39997C14.8116 3.39997 12.9078 4.4503 11.5767 5.7708C10.3885 6.95243 9.43944 8.33128 8.77691 9.83856C8.25535 11.1712 7.84899 12.8742 6.92427 12.7406C6.68749 12.7103 5.06523 12.2306 6.41231 10.0085C6.87307 9.24964 8.35454 7.46772 8.62332 6.14722C9.18007 3.41515 6.92427 1.64234 4.46368 1.64234C3.28126 1.64153 2.14688 2.08618 1.30988 2.87854C0.47288 3.67091 0.00175718 4.74616 6.10352e-05 5.86794C6.10352e-05 6.00151 6.10352e-05 6.13204 0.0224591 6.26257C0.00829704 6.31311 0.000773967 6.36511 6.10352e-05 6.41739L6.10352e-05 28.7506C6.10352e-05 28.8472 0.0405146 28.9398 0.112522 29.0082C0.18453 29.0765 0.282194 29.1148 0.384028 29.1148H7.62501C7.72517 29.1125 7.82038 29.073 7.89033 29.005C7.96027 28.9369 7.99941 28.8456 7.99937 28.7506V21.3102C7.99937 18.9576 8.24575 16.9359 8.77691 15.3088C9.30806 13.6817 10.14 12.4492 11.3047 11.6994C12.1217 11.1932 13.0775 10.9262 14.0533 10.9314C14.1012 10.9314 15.6531 11.0225 16.2131 11.2562C16.7772 11.4898 17.2457 11.8916 17.5474 12.4006C18.1873 13.4601 18.3857 15.0598 18.3889 17.4884V28.7506C18.3889 28.8472 18.4293 28.9398 18.5013 29.0082C18.5734 29.0765 18.671 29.1148 18.7728 29.1148H26.0138C26.1157 29.1148 26.2133 29.0765 26.2853 29.0082C26.3573 28.9398 26.3978 28.8472 26.3978 28.7506V21.3102C26.3978 18.9637 26.5482 16.9419 26.9929 15.3088C27.4377 13.6756 28.1928 12.4188 29.4151 11.666C30.3301 11.148 31.3838 10.8929 32.4485 10.9314C33.1569 10.9044 33.8642 11.0075 34.5315 11.2349C35.1093 11.4546 35.5942 11.8496 35.9106 12.3581C36.5761 13.4115 36.7745 15.0143 36.7777 17.4762V28.7506C36.7785 28.8469 36.8193 28.9391 36.8911 29.0073C36.9629 29.0754 37.0601 29.1141 37.1617 29.1148H44.4026C44.5045 29.1148 44.6021 29.0765 44.6742 29.0082C44.7462 28.9398 44.7866 28.8472 44.7866 28.7506V15.9796C44.7866 13.3994 44.4922 10.9678 43.7723 8.95518C43.0524 6.94256 41.9165 5.35188 40.2366 4.40173Z" fill="#FFE42C"/>
<path d="M73.0559 6.09815C70.3682 3.81535 66.6245 2.67395 62.4328 2.67395C58.2412 2.67395 54.4591 3.81535 51.7649 6.09815C49.0708 8.38095 47.4101 11.8173 47.4069 16.4891C47.4037 21.161 49.0708 24.6337 51.7649 26.9256C54.4591 29.2176 58.2124 30.3589 62.4328 30.3589C66.6533 30.3589 70.3682 29.2176 73.0559 26.9256C75.7437 24.6337 77.4043 21.1883 77.4075 16.4891C77.4107 11.79 75.7437 8.38398 73.0559 6.09815ZM67.4884 21.7165C66.2533 22.864 64.4999 23.3922 62.4328 23.3891C60.3658 23.3861 58.574 22.864 57.3325 21.7165C56.091 20.569 55.4126 18.8235 55.4126 16.4891C55.4126 14.1547 56.0878 12.4517 57.3325 11.3103C58.5772 10.1689 60.3402 9.64074 62.4328 9.64074C64.5255 9.64074 66.2533 10.1689 67.4884 11.3103C68.7235 12.4517 69.4082 14.179 69.4082 16.4891C69.4082 18.7992 68.7235 20.566 67.4884 21.7165Z" fill="#FFE42C"/>
<path d="M94.0305 9.81682C95.4604 9.77856 96.8709 10.1384 98.0877 10.852C99.1072 11.4693 99.8494 12.4232 100.171 13.5294C100.196 13.6287 100.255 13.7173 100.339 13.7811C100.423 13.8449 100.527 13.8803 100.635 13.8815H107.757C107.886 13.8784 108.008 13.8278 108.099 13.7406C108.189 13.6533 108.24 13.5362 108.24 13.4141V13.3594C108.077 11.8419 107.566 10.3766 106.744 9.06576C105.921 7.75495 104.807 6.63028 103.479 5.77031C100.919 4.06125 97.547 3.17788 94.0305 3.18092C89.7589 3.18092 86.1272 4.37089 83.5642 6.60511C81.0012 8.83934 79.4909 12.1178 79.4877 16.3738C79.4845 20.6298 81.0044 23.9629 83.5642 26.191C86.124 28.4192 89.7589 29.6213 94.0305 29.6213C97.5502 29.6213 100.91 28.741 103.479 27.0319C104.806 26.1713 105.92 25.0465 106.741 23.7357C107.563 22.425 108.074 20.96 108.237 19.4428V19.3882C108.237 19.266 108.187 19.1488 108.096 19.0619C108.006 18.975 107.883 18.9253 107.754 18.9237H100.635C100.528 18.9248 100.424 18.9597 100.34 19.0229C100.256 19.0861 100.196 19.1741 100.171 19.2728C99.8494 20.379 99.1072 21.3329 98.0877 21.9503C96.8718 22.6662 95.4609 23.0272 94.0305 22.9884C91.9315 22.9884 90.2772 22.3813 89.1637 21.2369C88.0502 20.0925 87.4967 18.4259 87.4967 16.3799C87.4967 14.3338 88.047 12.7037 89.1637 11.5623C90.2804 10.4209 91.9315 9.81378 94.0305 9.81682Z" fill="#FFE42C"/>
<path d="M142.004 22.4912H139.291C139.146 22.4912 139.002 22.4641 138.869 22.4114C138.735 22.3587 138.613 22.2815 138.511 22.1842C138.409 22.0869 138.328 21.9715 138.273 21.8444C138.218 21.7174 138.189 21.5813 138.19 21.4439V15.0114C138.19 10.8343 136.59 7.95046 134.069 6.07747C131.547 4.20448 128.101 3.3454 124.402 3.3454C120.828 3.3454 117.651 4.20752 115.321 5.79212C114.146 6.56467 113.169 7.57851 112.464 8.75833C111.758 9.93815 111.341 11.2537 111.245 12.6071V12.6527C111.246 12.8059 111.311 12.9526 111.425 13.0607C111.54 13.1688 111.695 13.2294 111.856 13.2294H118.281C118.419 13.2275 118.552 13.1782 118.655 13.0906C118.758 13.003 118.824 12.883 118.841 12.7528C118.926 12.2534 119.126 11.778 119.428 11.3607C119.729 10.9435 120.125 10.5947 120.585 10.3395C121.545 9.79006 122.825 9.50774 124.405 9.50774C125.986 9.50774 127.269 9.74149 128.2 10.1938C128.629 10.3836 129.009 10.6598 129.313 11.0032C129.618 11.3467 129.84 11.749 129.963 12.1821C129.988 12.2631 129.999 12.3469 129.999 12.4311C129.994 12.682 129.894 12.923 129.718 13.1102C129.542 13.2974 129.301 13.4183 129.039 13.451L121.321 14.4649C117.312 14.9962 114.637 15.9099 113.002 17.197C111.367 18.4841 110.691 20.1568 110.688 22.3333C110.663 24.0165 111.272 25.6529 112.406 26.9475C113.773 28.444 116.16 29.6462 120.332 29.6492C124.421 29.6492 126.968 28.5139 128.651 26.9171C130.335 25.3204 131.163 23.1863 131.72 21.1858C131.784 20.964 131.924 20.7684 132.117 20.6291C132.31 20.4898 132.546 20.4145 132.789 20.4148C132.927 20.4143 133.065 20.441 133.192 20.4932C133.319 20.5455 133.433 20.6221 133.528 20.7183C133.674 20.8654 133.769 21.051 133.801 21.2505C133.833 21.45 133.8 21.654 133.707 21.8355C133.467 22.3892 133.265 22.9571 133.102 23.5354C132.887 24.2118 132.726 24.903 132.622 25.6027C132.603 25.7939 132.59 25.9761 132.59 26.1521C132.59 27.248 132.981 27.9735 133.63 28.4532C134.28 28.9328 135.246 29.1696 136.411 29.1696H142.004C142.164 29.168 142.318 29.1066 142.431 28.9987C142.544 28.8908 142.608 28.745 142.609 28.5928V23.074C142.61 22.998 142.595 22.9226 142.565 22.8521C142.535 22.7816 142.49 22.7175 142.434 22.6633C142.378 22.6091 142.311 22.5661 142.237 22.5365C142.163 22.507 142.084 22.4916 142.004 22.4912ZM129.909 19.0548C129.509 20.5362 128.431 21.708 126.872 22.4912C125.314 23.2744 123.27 23.7054 120.883 23.7054C120.245 23.7152 119.61 23.6239 119.004 23.4352C118.427 23.2679 117.928 22.9161 117.593 22.4396C117.373 22.0819 117.262 21.6729 117.273 21.2587C117.249 20.8546 117.355 20.4531 117.576 20.1069C117.797 19.7607 118.123 19.4861 118.512 19.3189C119.305 18.9304 120.431 18.73 121.9 18.5236L128.568 17.6402C128.626 17.6372 128.684 17.6372 128.741 17.6402C129.062 17.6402 129.37 17.761 129.597 17.9761C129.825 18.1912 129.953 18.4831 129.954 18.7877C129.95 18.8781 129.935 18.9677 129.909 19.0548Z" fill="#FFE42C"/>
<path d="M151.052 1.82444C150.591 1.23577 149.985 0.762404 149.288 0.44511C148.591 0.127815 147.822 -0.0238929 147.05 0.00305396C145.665 0.00305396 144.578 0.421972 143.789 1.25981C143.007 2.08625 142.585 3.16372 142.608 4.27419C142.608 5.47226 142.99 6.41432 143.754 7.10037C144.404 7.7379 145.293 8.10657 146.227 8.12642C146.577 8.11414 146.924 8.06838 147.264 7.98981C147.541 7.90774 147.826 7.85381 148.115 7.82893C148.755 7.82893 149.075 8.21142 149.075 8.98247C149.075 10.2726 148.435 11.3867 147.155 12.3217C146.145 13.0901 144.923 13.5656 143.635 13.6907C143.47 13.7051 143.316 13.7774 143.204 13.8935C143.091 14.0097 143.028 14.1614 143.027 14.3191V15.8157C143.028 15.9036 143.047 15.9904 143.084 16.0708C143.122 16.1512 143.176 16.2234 143.244 16.2828C143.313 16.3421 143.393 16.3874 143.481 16.4157C143.569 16.444 143.662 16.4547 143.754 16.4471C146.009 16.2616 148.127 15.3401 149.747 13.8395C151.603 12.1557 152.532 9.8284 152.534 6.85752C152.532 4.73662 152.038 3.05893 151.052 1.82444Z" fill="#FFE42C"/>
</svg>
