<svg width="25" height="25" viewBox="0 0 25 25" fill="none" xmlns="http://www.w3.org/2000/svg">
<path d="M3.3575 0H3.35457C2.46293 0 1.62206 0.346678 0.987495 0.975824C0.350828 1.60668 4.03702e-07 2.44374 4.03702e-07 3.33289C-0.000439047 4.24163 0.357908 5.09328 1.00707 5.72995C1.63666 6.34659 2.4954 6.69288 3.32791 6.67286C3.35208 6.6733 3.37625 6.67369 3.40081 6.67369C4.23538 6.67369 5.06164 6.3337 5.67707 5.73371C6.32579 5.10163 6.68414 4.2533 6.68624 3.34495C6.68834 2.45663 6.34083 1.6183 5.70876 0.983734C5.07707 0.349998 4.24207 0.000830073 3.3575 0Z" fill="#B433FF"/>
<path d="M4.99934 7.50781H1.63061C0.961032 7.50781 0.416016 8.06987 0.416016 8.7603V23.341C0.416016 24.0168 0.988522 24.5877 1.66601 24.5877H4.99934C5.67682 24.5877 6.24933 24.0281 6.24933 23.3665V8.75781C6.24933 8.08032 5.67687 7.50781 4.99934 7.50781Z" fill="#B433FF"/>
<path d="M19.2215 7.08984H18.3435C16.7256 7.08984 15.1735 7.779 14.1673 8.91732V8.33984C14.1673 7.9269 13.7465 7.50649 13.334 7.50649H9.16733C8.78193 7.50649 8.33398 7.84814 8.33398 8.28857V23.8355C8.33398 24.2776 8.77314 24.586 9.16733 24.5864L13.7507 24.5876C14.1448 24.5876 14.584 24.2793 14.584 23.8368V14.8548C14.584 13.4998 15.5886 12.4269 16.871 12.4123C17.5231 12.3977 18.1393 12.6548 18.6006 13.1169C18.9819 13.4982 19.1673 14.0548 19.1673 14.819V23.7564C19.1673 24.1694 19.5881 24.5898 20.0006 24.5898H24.1672C24.5797 24.5898 25.0006 24.1694 25.0006 23.7564V13.0023C25.0006 9.6869 22.4619 7.08984 19.2215 7.08984Z" fill="#B433FF"/>
</svg>
