<svg width="285" height="238" viewBox="0 0 285 238" fill="none" xmlns="http://www.w3.org/2000/svg">
<g clip-path="url(#clip0_409_4070)">
<path d="M153.632 64.7411C153.632 64.7411 151.628 72.0601 146.261 67.3575C140.773 62.5483 152.545 55.9697 153.632 64.7411Z" fill="#AC502D"/>
<path d="M153.668 57.7852C153.668 57.7852 153.509 58.5792 154.046 59.8345C154.659 61.2559 156.476 62.9566 156.102 64.6256C155.728 66.2945 153.229 67.0642 151.796 65.9999C150.363 64.9356 149.47 59.8696 149.47 59.8696C149.47 59.8696 150.423 56.3004 153.665 57.7842L153.668 57.7852Z" fill="#AC502D"/>
<path d="M140.818 51.0346C140.818 51.0346 133.833 53.9943 139.209 58.6893C144.707 63.4876 149.656 50.9427 140.818 51.0346Z" fill="#AC502D"/>
<path d="M147.855 49.4517C147.855 49.4517 147.09 49.7172 145.773 49.348C144.285 48.9307 142.356 47.357 140.752 47.9495C139.148 48.5419 138.72 51.1203 139.962 52.3996C141.209 53.6767 146.347 53.8878 146.347 53.8878C146.347 53.8878 149.758 52.4674 147.855 49.4517Z" fill="#AC502D"/>
<path d="M99.1184 84.5412C99.1184 84.5412 76.7873 114.962 97.9621 127.393C119.134 139.823 147.315 110.474 147.411 110.154C147.508 109.834 144.863 98.9053 144.863 98.9053L99.1216 84.5422L99.1184 84.5412Z" fill="#FFE8DB"/>
<path d="M88.8395 61.9847C88.8395 61.9847 88.9578 57.4788 90.4953 56.4925C92.0338 55.5031 96.3241 57.4952 97.8149 61.4381C99.3056 65.381 99.8851 85.3253 94.2953 86.9484C87.5722 88.9006 88.8386 61.9879 88.8386 61.9879L88.8395 61.9847Z" fill="black"/>
<path d="M215.207 172.132C215.207 172.132 216.856 175.424 213.729 179.606C210.606 183.789 202.336 171.046 202.336 171.046C202.336 171.046 211.597 166.076 215.207 172.132Z" fill="black"/>
<path d="M187.727 192.723C187.727 192.723 188.888 197.112 195.128 194.955C201.368 192.797 189.23 187.741 189.23 187.741C189.23 187.741 187.152 187.425 187.727 192.723Z" fill="black"/>
<path d="M60.7153 152.571C60.7153 152.571 57.7486 151.854 57.6374 145.016C57.5262 138.177 72.3915 148.094 72.3915 148.094C72.3915 148.094 67.1723 153.819 60.7153 152.571Z" fill="black"/>
<path d="M62.9486 114.268C62.9486 114.268 60.2393 116.557 60.1935 119.803C60.1478 123.048 70.5942 124.957 70.5942 124.957C70.5942 124.957 69.2435 112.438 62.9486 114.268Z" fill="black"/>
<path d="M140.769 56.9604L131.717 62.71L139.04 71.1188L144.369 66.7235C144.369 66.7235 145.984 56.8697 140.77 56.9572L140.769 56.9604Z" fill="#FFA285"/>
<path d="M152.349 63.0884C149.335 65.5999 148.86 66.9797 146.813 67.8823C146.261 68.1247 145.347 68.202 144.365 67.9373C143.42 67.6874 142.416 67.126 141.62 66.1036C141.421 65.848 141.236 65.5687 141.066 65.252C140.978 65.082 140.896 64.9141 140.825 64.7426C139.683 62.0086 140.962 59.1558 141.849 57.7884C142.791 56.3326 145.788 52.1741 147.702 52.1292C149.617 52.0812 153.224 53.6751 154.983 57.4928C154.983 57.4928 155.083 60.8104 152.346 63.0874L152.349 63.0884Z" fill="#FFA285"/>
<path d="M143.366 67.5585C143.366 67.5585 140.945 66.3291 140.39 62.8395C140.39 62.8395 138.63 66.9866 141.107 69.4206L143.366 67.5585Z" fill="black"/>
<path d="M68.9129 121.376L57.435 117.349L50.54 144.473L70.1138 149.85C70.1138 149.85 79.4487 128.933 68.9161 121.377L68.9129 121.376Z" fill="#FFA285"/>
<path d="M187.234 187.143L194.438 197.235L210.541 176.779L205.34 169.311C205.34 169.311 199.92 165.657 187.234 187.143Z" fill="#FFA285"/>
<path d="M78.2329 120.746C91.0638 130.204 98.3186 128.377 98.3186 128.377C98.0846 127.751 97.9633 127.4 97.9633 127.4C97.9633 127.4 113.852 108.686 127.734 112.082C127.734 112.082 158.915 149.262 137.224 163.526C137.224 163.526 136.205 164.508 133.726 165.5C130.915 167.119 127.807 168.205 124.553 168.649C124.426 168.667 124.306 168.669 124.188 168.665C120.885 169.217 117.378 169.134 114.19 168.806C108.731 168.243 103.6 166.434 98.378 164.867C95.7127 164.067 93.0279 163.4 90.27 162.988C87.7492 162.612 85.1934 162.307 82.7748 161.476C79.203 160.253 76.0428 158.116 72.6806 156.452C63.4384 153.631 60.718 152.573 60.718 152.573C60.718 152.573 67.9936 152.126 68.1322 135.71C68.2675 119.293 65.3568 112.979 62.951 114.273C62.951 114.273 65.403 111.285 78.2339 120.743L78.2329 120.746Z" fill="#1D542F"/>
<path d="M134.378 61.0282C134.378 61.0282 139.546 63.8859 143.204 71.5109C146.862 79.1359 151.59 88.9457 151.59 88.9457C151.59 88.9457 149.111 97.1663 145.025 103.386L98.8616 85.3918L127.481 54.5784C127.481 54.5784 131.546 57.2469 134.374 61.0305L134.378 61.0282Z" fill="#FFE8DB"/>
<path d="M171.15 90.881L182.269 96.0954L175.676 114.489L157.938 107.275L171.15 90.881Z" fill="#FFA285"/>
<path d="M199.087 80.4447C199.015 80.4615 179.385 97.555 179.385 97.555L175.678 114.488C175.678 114.488 182.112 118.639 190.441 111.487C198.771 104.332 210.445 90.3249 210.445 90.3249C210.445 90.3249 207.196 78.6587 199.09 80.4456L199.087 80.4447Z" fill="#FFA285"/>
<path d="M199.37 81.8808C199.37 81.8808 198.002 76.7661 199.892 72.5465C201.786 68.3279 204.454 64.2413 206.475 65.3922C208.157 66.3499 207.146 69.2065 206.504 70.5817C205.925 71.8185 205.498 74.5789 205.498 74.5789C205.498 74.5789 211.799 78.718 206.819 84.1265C201.838 89.5349 199.37 81.8808 199.37 81.8808Z" fill="#FFA285"/>
<path d="M205.109 74.2978L209.914 68.9166C209.914 68.9166 217.039 75.1556 217.595 78.7118C218.154 82.269 216.3 89.4271 208.874 92.1806C201.448 94.9341 199.367 81.8838 199.367 81.8838L205.109 74.2978Z" fill="#FFA285"/>
<path d="M205.113 74.2944C205.113 74.2944 207.112 68.9722 211.042 67.1177C213.193 66.1 218.413 65.2315 220.167 66.8854C221.919 68.5383 220.1 70.0406 218.731 70.3268C217.363 70.6129 213.991 70.8576 213.991 70.8576L212.024 73.524C212.024 73.524 208.171 74.591 205.117 74.2921L205.113 74.2944Z" fill="#FFA285"/>
<path d="M208.347 77.2515C208.347 77.2515 212.068 70.96 214.277 70.0749C216.486 69.1898 221.647 68.1886 223.402 69.8425C225.153 71.4954 223.335 72.9978 221.966 73.2839C220.598 73.5701 217.226 73.8148 217.226 73.8148L215.259 76.4811C215.259 76.4811 211.405 77.5482 208.351 77.2493L208.347 77.2515Z" fill="#FFA285"/>
<path d="M208.903 75.4109C208.903 75.4109 215.537 72.3418 217.859 72.8671C220.182 73.3893 224.999 75.4984 225.501 77.8542C226.007 80.2109 223.654 80.4133 222.366 79.875C221.079 79.3366 218.162 77.6222 218.162 77.6222L215.028 78.7002C215.028 78.7002 211.247 77.3927 208.903 75.4109Z" fill="#FFA285"/>
<path d="M207.758 76.5817C207.758 76.5817 214.959 75.3256 217.068 76.4296C219.177 77.5336 223.29 80.8102 223.168 83.2189C223.047 85.6244 220.725 85.2176 219.619 84.3639C218.514 83.5102 216.138 81.1029 216.138 81.1029L212.832 81.3393C212.832 81.3393 209.516 79.1031 207.76 76.5858L207.758 76.5817Z" fill="#FFA285"/>
<path d="M97.814 61.4353L87.5321 62.0631L87.0221 85.8991L103.733 84.027C103.733 84.027 111.04 71.634 97.814 61.4353Z" fill="#FFA285"/>
<path d="M87.0294 85.896C87.0294 85.896 72.5526 88.3752 67.0398 78.549C60.148 66.2633 59.2177 40.6342 59.2177 40.6342L81.2225 38.4577L90.4689 70.7441C90.4689 70.7441 96.6406 79.2424 87.0271 85.8918L87.0294 85.896Z" fill="#FFA285"/>
<path d="M141.776 68.8711L142.902 67.9423C142.902 67.9423 148.857 69.9159 154.291 74.2335C159.724 78.5512 165.09 83.1766 168.258 85.4139C170.69 87.1286 174.938 88.9473 176.786 89.7002C177.296 89.9097 177.553 90.48 177.373 90.9985C176.258 94.1978 172.163 104.792 164.989 110.801C164.989 110.801 158.587 111.431 145.021 103.383C131.454 95.3349 141.77 68.8692 141.77 68.8692L141.776 68.8711Z" fill="#FFE8DB"/>
<path d="M127.481 54.5757C127.481 54.5757 120.685 49.306 112.835 52.55C104.986 55.794 104.75 56.7711 100.784 56.5082C96.8149 56.2443 93.7112 53.3522 90.4952 56.4875C90.4952 56.4875 99.3619 56.2086 98.7034 73.1211C98.0448 90.0336 92.3977 86.6438 92.3977 86.6438C92.3977 86.6438 94.3443 88.5302 99.442 87.1954C106.576 85.3287 112.674 84.3723 112.674 84.3723C112.674 84.3723 134.122 71.17 127.481 54.5757Z" fill="#FFE8DB"/>
<path d="M153.499 113.895C153.499 113.895 163.151 99.9563 139.602 102.597C116.049 105.239 153.168 116.894 153.168 116.894L153.5 113.892L153.499 113.895Z" fill="black"/>
<path d="M139.602 102.599C140.227 102.613 144.624 110.636 145.348 112.87C146.071 115.107 107.237 118.771 107.237 118.771C107.237 118.771 123.422 102.224 139.602 102.599Z" fill="#1D542F"/>
<path d="M136.735 109.806C136.735 109.806 156.612 114.272 167.379 118.304C169.556 118.799 171.698 119.435 173.804 120.213C174.862 120.539 175.874 121.029 176.813 121.738C180.939 124.855 182.526 130.126 186.55 133.289C188.485 134.808 190.589 136.023 192.225 137.896C193.807 139.707 194.904 141.792 195.674 144.06C196.443 146.318 196.933 148.772 198.817 150.412C200.724 152.07 203.062 153.054 204.73 155.018C207.441 158.204 208.461 162.319 210.438 165.912C213.155 169.46 215.025 171.889 215.193 172.111C214.949 171.807 211.396 167.763 199.949 177.933C188.074 188.48 187.727 192.725 187.727 192.725L179.737 181.81C178.373 180.413 176.938 179.079 175.551 177.711C173.966 176.143 172.444 174.518 171.139 172.706C169.769 170.805 168.826 168.732 167.794 166.639C166.659 164.33 165.384 162.649 163.252 161.172C161.365 159.862 159.732 158.465 158.401 156.579C156.414 153.769 155.03 151.989 154.142 148.675L153.949 148.124C144.838 146.513 136.58 142.06 136.58 142.06L115.125 115.252L136.727 109.81L136.735 109.806Z" fill="#1D542F"/>
<path d="M215.191 172.111L215.208 172.13C215.208 172.13 215.203 172.122 215.191 172.111Z" fill="#1D542F"/>
<path d="M139.601 102.603C139.601 102.603 133.461 103.501 122.892 110.62C112.477 117.636 112.023 126.394 98.3162 128.371C98.3162 128.371 90.3217 124.309 89.0751 114.654C87.8275 105.003 131.469 92.7274 139.602 102.599L139.601 102.603Z" fill="#FFE8DB"/>
<path d="M146.982 49.8558C146.982 49.8558 150.777 47.3143 154.58 51.7902C158.385 56.263 147.49 56.1784 144.009 54.7342C140.459 53.2624 146.985 49.8568 146.985 49.8568L146.982 49.8558Z" fill="#AC502D"/>
<path d="M144.482 57.1605C143.889 58.2358 142.634 58.6784 141.675 58.1517C140.716 57.625 140.42 56.3236 141.01 55.2473C141.603 54.172 142.858 53.7293 143.817 54.256C144.777 54.7827 145.072 56.0842 144.482 57.1605Z" fill="#FFA285"/>
<path d="M141.36 58.1479C141.411 58.1633 141.466 58.1448 141.496 58.1016C141.538 58.0443 141.523 57.9665 141.469 57.9257C140.972 57.5697 140.899 56.9539 140.897 56.9497C140.89 56.8811 140.828 56.8311 140.759 56.8384C140.691 56.8456 140.641 56.9074 140.648 56.976C140.653 57.0054 140.735 57.7078 141.324 58.1299C141.335 58.137 141.347 58.144 141.36 58.1479Z" fill="black"/>
<path d="M142.699 57.4501C142.721 57.4569 142.742 57.4562 142.764 57.4524C142.832 57.4346 142.874 57.3667 142.855 57.3017C142.852 57.2901 142.538 56.0252 142.61 55.2538C142.616 55.1859 142.565 55.125 142.497 55.1185C142.429 55.112 142.368 55.1635 142.361 55.2314C142.283 56.0463 142.601 57.309 142.612 57.3648C142.623 57.41 142.656 57.4408 142.698 57.4533L142.699 57.4501Z" fill="black"/>
<path d="M148.386 51.5823C148.386 51.5823 146.217 55.0122 149.518 58.362C152.816 61.7108 153.897 57.9601 153.897 57.9601C153.897 57.9601 155.782 50.3185 148.386 51.5823Z" fill="#AC502D"/>
<path d="M151.61 55.3698C151.549 55.4668 149.753 61.4233 154.615 63.3291C159.476 65.2348 160.581 54.9059 153.124 52.7102C145.667 50.5146 151.609 55.373 151.609 55.373L151.61 55.3698Z" fill="#AC502D"/>
<path d="M158.972 60.2017C159.047 60.3328 159.9 64.8519 156.823 65.0108C153.746 65.1697 153.01 62.7223 153.1 61.6489C153.189 60.5754 156.257 55.5545 158.972 60.2017Z" fill="#AC502D"/>
<path d="M154.582 51.7824C154.582 51.7824 162.765 53.9349 160.776 58.9774C159.418 62.4282 154.7 58.274 154.7 58.274C154.7 58.274 151.681 55.1594 154.582 51.7824Z" fill="#AC502D"/>
<path d="M81.8212 40.5636C81.8212 40.5636 84.0795 25.8766 74.0247 22.5414C63.9666 19.2052 56.6873 20.9513 53.9143 25.1319C51.1413 29.3125 53.2628 40.6421 59.5541 45.9275C65.8455 51.2129 81.8212 40.5636 81.8212 40.5636Z" fill="#FFA285"/>
<path d="M80.0747 27.7677C80.0747 27.7677 77.6524 16.613 74.852 12.3556C72.0526 8.09501 66.6193 3.97311 64.1396 4.46921C61.6599 4.96531 61.3291 8.12501 63.1069 10.2121C64.8847 12.2991 67.8141 15.2015 67.8141 15.2015L69.0489 22.9485L80.0747 27.7677Z" fill="#FFA285"/>
<path d="M70.5252 26.5004C70.5252 26.5004 68.0149 17.7121 64.7969 13.762C61.5768 9.80776 55.7528 6.26329 53.3374 7.00936C50.9221 7.75544 50.9146 10.9322 52.8964 12.8293C54.8782 14.7263 58.0874 17.3148 58.0874 17.3148L60.1057 24.8962L70.5275 26.5045L70.5252 26.5004Z" fill="#FFA285"/>
<path d="M66.2237 30.7177C66.2237 30.7177 63.7133 21.9293 60.4954 17.9793C57.2753 14.025 51.4512 10.4806 49.0359 11.2266C46.6206 11.9727 46.6131 15.1495 48.5949 17.0466C50.5767 18.9436 53.7859 21.5321 53.7859 21.5321L55.8042 29.1135L66.226 30.7218L66.2237 30.7177Z" fill="#FFA285"/>
<path d="M58.3167 20.1027C58.3167 20.1027 57.8847 17.1323 53.3784 17.8034C48.8721 18.4746 45.0077 19.0213 44.1875 20.6641C43.2244 22.5956 45.0538 25.9139 52.3632 25.3193C59.6441 24.7265 58.3199 20.1037 58.3199 20.1037L58.3167 20.1027Z" fill="#FFA285"/>
<path d="M51.1167 25.3811C51.1167 25.3811 52.2949 26.4211 52.772 28.9405C53.246 31.4589 54.7139 24.1215 54.7139 24.1215C54.7139 24.1215 54.0644 20.8759 51.1167 25.3811Z" fill="#FFA285"/>
<path d="M71.5581 119.712C71.8008 118.919 72.5349 118.326 73.5294 118.724C76.7711 120.022 80.3196 118.577 83.6892 119.103C87.5085 119.703 90.6181 122.031 93.666 124.239C95.1975 125.347 96.8616 126.687 98.6905 127.249C100.587 127.831 102.478 127.199 104.386 127.002C107.868 126.644 111.267 127.585 114.415 129.02C115.926 129.71 117.424 130.476 118.834 131.351C119.931 132.035 120.99 132.924 120.86 134.365C120.545 137.82 115.453 137.466 112.993 137.688C109.193 138.034 105.347 138.195 101.553 137.663C97.8479 137.147 94.4193 135.935 91.0872 134.253C90.5836 134 90.0797 133.736 89.579 133.473C88.8076 133.216 88.0558 132.871 87.3695 132.447C87.0011 132.221 86.6567 131.949 86.3114 131.681C83.9114 130.325 81.5394 128.911 79.1477 127.551C77.267 126.477 75.3278 125.47 73.4895 124.326C72.1716 123.505 71.0265 122.402 71.1569 120.73C71.1895 120.32 71.3351 119.976 71.554 119.714L71.5581 119.712Z" fill="#1D542F"/>
<path d="M147.864 59.9308C147.864 59.9308 147.174 59.9148 146.542 59.4623C146.348 59.3271 146.166 59.1536 146.005 58.9233C145.773 58.5946 145.598 58.1542 145.539 57.5739C145.539 57.5739 146.224 57.5953 146.851 58.0639C147.044 58.2023 147.229 58.3874 147.392 58.6218C147.615 58.9476 147.788 59.3733 147.857 59.9321L147.864 59.9308Z" fill="white"/>
<path d="M146.886 58.6813C146.792 59.0163 146.444 59.2115 146.109 59.1175C145.774 59.0235 145.579 58.6715 145.673 58.3365C145.767 58.0015 146.116 57.8063 146.451 57.9003C146.786 57.9943 146.98 58.3463 146.886 58.6813Z" fill="black"/>
<path d="M147.791 60.0436C147.817 60.0619 147.849 60.0716 147.882 60.0674C147.954 60.0579 148.009 59.9939 147.999 59.9212C147.958 59.5594 147.802 58.8592 147.205 58.2564C146.613 57.6588 145.923 57.4925 145.563 57.4469C145.488 57.4384 145.424 57.489 145.413 57.5623C145.404 57.6366 145.455 57.7008 145.528 57.7124C145.854 57.7548 146.476 57.904 147.015 58.4471C147.555 58.9944 147.698 59.6241 147.735 59.9532C147.74 59.9932 147.761 60.0276 147.793 60.0478L147.791 60.0436Z" fill="black"/>
<path d="M151.399 63.4989C151.399 63.4989 150.709 63.483 150.077 63.0304C149.883 62.8952 149.702 62.7217 149.541 62.4914C149.308 62.1627 149.133 61.7223 149.074 61.142C149.074 61.142 149.759 61.1635 150.387 61.6321C150.579 61.7704 150.764 61.9555 150.928 62.1899C151.151 62.5157 151.323 62.9414 151.392 63.5002L151.399 63.4989Z" fill="white"/>
<path d="M150.407 62.2296C150.313 62.5646 149.964 62.7599 149.629 62.6659C149.294 62.5719 149.1 62.2198 149.194 61.8849C149.288 61.5499 149.637 61.3546 149.972 61.4486C150.307 61.5426 150.501 61.8946 150.407 62.2296Z" fill="black"/>
<path d="M151.326 63.6068C151.352 63.6251 151.384 63.6348 151.417 63.6307C151.49 63.6212 151.544 63.5572 151.534 63.4844C151.493 63.1227 151.338 62.4224 150.74 61.8197C150.148 61.222 149.458 61.0558 149.098 61.0101C149.024 61.0017 148.959 61.0522 148.948 61.1255C148.939 61.1999 148.99 61.264 149.063 61.2756C149.389 61.318 150.012 61.4672 150.55 62.0103C151.091 62.5576 151.233 63.1874 151.27 63.5164C151.275 63.5565 151.296 63.5908 151.329 63.611L151.326 63.6068Z" fill="black"/>
<path d="M148.765 58.8318C148.794 58.8511 148.833 58.8595 148.87 58.8531C148.942 58.8362 148.987 58.7661 148.97 58.6947C148.879 58.3037 148.665 57.7363 148.157 57.2336C147.666 56.7505 147.112 56.538 146.731 56.4474C146.659 56.4294 146.587 56.4738 146.568 56.5452C146.55 56.6166 146.595 56.6894 146.666 56.7075C147.015 56.7916 147.519 56.9854 147.966 57.4243C148.427 57.8776 148.623 58.3978 148.707 58.7552C148.715 58.7888 148.735 58.8158 148.761 58.8341L148.765 58.8318Z" fill="black"/>
<path d="M152.314 62.6233C152.343 62.6426 152.382 62.651 152.419 62.6446C152.491 62.6277 152.536 62.5576 152.519 62.4862C152.428 62.0952 152.214 61.5278 151.709 61.0261C151.219 60.5429 150.664 60.3304 150.283 60.2399C150.212 60.2218 150.139 60.2663 150.121 60.3377C150.103 60.4091 150.147 60.4819 150.219 60.4999C150.567 60.584 151.071 60.7779 151.519 61.2168C151.979 61.6701 152.175 62.1903 152.26 62.5476C152.267 62.5813 152.287 62.6082 152.313 62.6265L152.314 62.6233Z" fill="black"/>
<path d="M145.678 61.2619C145.641 61.3032 145.609 61.3528 145.58 61.414C145.413 61.7585 145.392 62.395 145.824 62.955C146.263 63.5274 146.956 63.7222 147.388 63.6219C147.516 63.5906 147.62 63.5347 147.686 63.4534C147.719 63.4144 147.745 63.3734 147.757 63.3244C147.846 63.016 147.242 62.806 146.811 62.2534C146.781 62.2162 146.751 62.1758 146.721 62.1354C146.344 61.6268 146.164 61.1812 145.869 61.1622C145.803 61.1599 145.736 61.1957 145.675 61.261L145.678 61.2619Z" fill="black"/>
<path d="M145.678 61.2619C145.681 61.3327 145.708 61.9171 146.205 62.5281C146.739 63.1782 147.222 63.3727 147.686 63.4534C147.719 63.4144 147.745 63.3734 147.757 63.3244C147.846 63.016 147.242 62.806 146.811 62.2534C146.781 62.2162 146.751 62.1758 146.721 62.1354C146.344 61.6268 146.164 61.1812 145.869 61.1622C145.803 61.1599 145.736 61.1957 145.675 61.261L145.678 61.2619Z" fill="black"/>
<path d="M88.6289 153.628C91.8121 154.587 95.0137 154.721 97.5682 154.579C101.647 154.352 105.586 155.599 111.542 157.489L112.798 157.889C117.494 159.381 129.972 163.346 137.813 157.556C142.303 154.239 144.542 148.238 144.467 139.716C144.467 139.53 144.316 139.384 144.131 139.384C143.945 139.384 143.798 139.535 143.798 139.72C143.872 148.015 141.724 153.834 137.415 157.013C129.848 162.599 117.604 158.712 112.998 157.247L111.742 156.847C105.716 154.936 101.733 153.673 97.5297 153.908C93.3335 154.141 87.3577 153.615 82.7133 149.773C76.2737 144.446 67.7501 142.614 67.664 142.598C67.483 142.561 67.3054 142.675 67.2683 142.856C67.2312 143.037 67.3444 143.218 67.5263 143.252C67.6083 143.269 75.9775 145.069 82.2849 150.29C84.2482 151.912 86.432 152.965 88.6225 153.626L88.6289 153.628Z" fill="white"/>
<path d="M97.2748 141.549C100.509 142.524 102.62 142.151 104.177 141.876C104.594 141.803 104.989 141.733 105.349 141.698C107.922 141.458 111.914 143.234 118.523 146.18C119.256 146.506 120.02 146.848 120.825 147.203C125.512 149.279 131.881 150.089 135.543 147.214C137.894 145.372 138.757 142.275 138.039 138.261C136.066 127.217 122.335 112.018 121.754 111.374C121.63 111.239 121.417 111.227 121.282 111.351C121.147 111.474 121.135 111.687 121.259 111.822C121.401 111.977 135.443 127.522 137.382 138.378C138.053 142.133 137.275 145.004 135.13 146.684C132.147 149.023 126.506 148.985 121.095 146.585C120.294 146.229 119.53 145.89 118.796 145.564C111.861 142.474 108.038 140.773 105.289 141.027C104.904 141.065 104.495 141.134 104.063 141.213C101.04 141.748 96.4722 142.554 85.9222 134.14C73.728 124.413 68.1303 125.692 67.8992 125.751C67.7207 125.799 67.6106 125.979 67.6581 126.157C67.7024 126.335 67.8823 126.445 68.064 126.398C68.1165 126.386 73.633 125.192 85.5066 134.661C90.5954 138.721 94.385 140.671 97.2767 141.543L97.2748 141.549Z" fill="white"/>
<path d="M98.8198 133.348C100.607 133.886 101.909 133.542 103.182 133.202C104.078 132.963 104.925 132.739 105.924 132.855C107.349 133.019 110.051 134.208 112.912 135.469C116.749 137.157 120.719 138.902 122.783 138.742C124.283 138.624 125.341 137.986 125.846 136.891C127.29 133.746 124.175 126.896 116.582 116.53C116.473 116.381 116.262 116.349 116.114 116.458C115.966 116.567 115.934 116.778 116.043 116.926C125.306 129.574 126.156 134.612 125.239 136.61C124.84 137.482 123.996 137.975 122.733 138.073C120.834 138.22 116.769 136.432 113.181 134.855C110.272 133.576 107.524 132.367 105.999 132.19C104.874 132.06 103.925 132.312 103.006 132.556C101.1 133.061 99.1283 133.587 95.2268 130.584C89.3662 126.071 82.5973 123.807 82.531 123.784C82.3577 123.721 82.167 123.821 82.1075 123.995C82.0512 124.17 82.1445 124.359 82.3187 124.418C82.3859 124.439 89.0482 126.674 94.8188 131.114C96.412 132.342 97.7076 133.016 98.8157 133.35L98.8198 133.348Z" fill="white"/>
<path d="M113.484 129.465C113.561 129.488 113.647 129.482 113.724 129.446C113.891 129.367 113.961 129.168 113.882 129.001L110.83 122.555C110.751 122.388 110.553 122.317 110.385 122.396C110.218 122.475 110.148 122.674 110.227 122.841L113.279 129.288C113.322 129.377 113.398 129.439 113.484 129.465Z" fill="white"/>
<path d="M192.89 185.061C192.973 185.086 193.066 185.079 193.149 185.035C193.31 184.943 193.367 184.74 193.279 184.581C190.402 179.42 187.865 177.244 185.627 175.326C183.243 173.28 181.359 171.66 179.779 167.11C178.235 162.662 174.325 159.719 170.185 156.602C168.556 155.377 166.874 154.109 165.345 152.739C162.236 149.957 161.92 148.165 161.522 145.893C161.255 144.369 160.954 142.644 159.744 140.354C156.736 134.654 141.555 132.261 140.911 132.161C140.727 132.133 140.557 132.257 140.53 132.441C140.502 132.624 140.626 132.794 140.809 132.822C140.963 132.844 156.302 135.26 159.154 140.665C160.312 142.862 160.605 144.533 160.863 146.005C161.265 148.309 161.616 150.298 164.899 153.234C166.448 154.619 168.145 155.896 169.782 157.13C173.839 160.184 177.668 163.071 179.145 167.324C180.785 172.046 182.828 173.801 185.189 175.829C187.384 177.714 189.871 179.847 192.689 184.903C192.732 184.982 192.803 185.035 192.886 185.06L192.89 185.061Z" fill="white"/>
<path d="M208.213 172.061C208.325 172.095 208.451 172.07 208.541 171.982C208.674 171.854 208.678 171.642 208.55 171.509C208.497 171.455 203.314 166.028 202.002 162.883C200.595 159.507 197.199 155.416 194.276 153.571C192.797 152.636 191.265 149.596 189.786 146.656C188.422 143.949 187.013 141.149 185.537 139.743C184.413 138.674 183.372 137.931 182.365 137.215C180.628 135.979 178.987 134.806 177.114 132.083C176.505 131.196 175.976 130.202 175.417 129.15C173.242 125.064 170.542 119.977 160.392 115.855C160.221 115.786 160.025 115.867 159.956 116.038C159.887 116.209 159.968 116.405 160.139 116.474C170.062 120.503 172.701 125.47 174.823 129.463C175.391 130.532 175.928 131.543 176.56 132.46C178.5 135.285 180.185 136.484 181.975 137.757C182.961 138.46 183.982 139.187 185.073 140.225C186.466 141.55 187.849 144.297 189.187 146.954C190.78 150.117 192.283 153.103 193.917 154.137C196.74 155.921 200.019 159.875 201.382 163.144C202.743 166.405 207.85 171.749 208.064 171.974C208.107 172.019 208.154 172.047 208.209 172.063L208.213 172.061Z" fill="white"/>
<path d="M199.852 178.252C199.935 178.277 200.028 178.27 200.112 178.222C200.273 178.131 200.33 177.928 200.242 177.769C200.047 177.42 195.428 169.205 191.458 165.422C189.544 163.598 187.897 160.974 186.156 158.199C184.36 155.338 182.506 152.379 180.291 150.304C178.788 148.893 177.508 147.844 176.382 146.921C174.292 145.208 172.783 143.967 171.322 141.675C170.642 140.607 169.836 138.956 168.986 137.212C166.95 133.038 164.413 127.847 161.589 126.321C157.768 124.258 149.997 121.516 145.599 120.68C141.734 119.944 137.444 118.738 134.923 115.372C132.428 112.038 129.367 107.29 129.336 107.242C129.236 107.086 129.03 107.042 128.874 107.141C128.718 107.241 128.673 107.448 128.773 107.603C128.804 107.651 131.876 112.42 134.387 115.773C137.044 119.323 141.48 120.577 145.471 121.336C149.82 122.162 157.496 124.871 161.269 126.91C163.904 128.333 166.387 133.42 168.384 137.505C169.282 139.345 170.058 140.934 170.759 142.036C172.276 144.422 173.901 145.754 175.959 147.443C177.08 148.361 178.348 149.404 179.835 150.799C181.986 152.817 183.817 155.737 185.588 158.563C187.353 161.376 189.018 164.034 190.995 165.915C194.892 169.626 199.608 178.018 199.656 178.102C199.698 178.181 199.77 178.234 199.85 178.258L199.852 178.252Z" fill="white"/>
<path d="M139.573 110.396C139.672 110.426 139.782 110.41 139.868 110.345C140.016 110.236 140.048 110.026 139.939 109.878L135.419 103.767C135.31 103.619 135.1 103.587 134.952 103.696C134.803 103.805 134.771 104.016 134.88 104.164L139.4 110.274C139.445 110.333 139.506 110.376 139.573 110.396Z" fill="white"/>
<path d="M144.7 145.797C144.7 145.797 143.602 139.985 142.096 136.093C142.096 136.093 149.528 140.793 153.956 148.123C153.956 148.123 146.847 146.591 144.701 145.794L144.7 145.797Z" fill="black"/>
<path d="M90.3519 70.602C90.3743 70.6088 90.3987 70.6091 90.4218 70.6021C90.4868 70.5833 90.5251 70.5145 90.5072 70.4462L88.0893 62.0002C88.0705 61.9351 88.0026 61.8937 87.9334 61.9147C87.8683 61.9336 87.8301 62.0024 87.8479 62.0707L90.2659 70.5167C90.2777 70.5587 90.3103 70.5895 90.3519 70.602Z" fill="black"/>
<path d="M200.136 83.449C200.168 83.4587 200.204 83.4555 200.233 83.4398C200.293 83.4053 200.316 83.3285 200.285 83.2701C199.594 82.0383 199.217 80.4366 199.215 80.4218C199.2 80.3545 199.132 80.3131 199.065 80.3278C198.998 80.3424 198.956 80.4103 198.971 80.4776C198.986 80.5449 199.36 82.1319 200.066 83.3928C200.082 83.422 200.11 83.4445 200.139 83.4532L200.136 83.449Z" fill="black"/>
<path d="M207.948 85.0958C208.002 85.1122 208.065 85.0893 208.094 85.0387C210.454 80.8383 206.085 75.1227 205.633 74.5464L205.988 72.7076C206.002 72.6384 205.958 72.5762 205.889 72.5623C205.82 72.5485 205.753 72.5948 205.744 72.6618L205.367 74.6165L205.406 74.663C205.454 74.723 210.269 80.6637 207.879 84.9179C207.847 84.9781 207.866 85.0537 207.926 85.0891C207.935 85.092 207.942 85.0939 207.951 85.0968L207.948 85.0958Z" fill="black"/>
<path d="M220.464 79.0553C220.518 79.0717 220.581 79.0487 220.611 78.9949C220.643 78.9348 220.621 78.8582 220.561 78.826C220.548 78.8222 219.406 78.2055 218.106 77.1987C218.052 77.158 217.973 77.1656 217.932 77.2229C217.891 77.2769 217.898 77.3561 217.956 77.3978C219.276 78.4177 220.437 79.0402 220.446 79.0463C220.452 79.0482 220.462 79.0511 220.468 79.0531L220.464 79.0553Z" fill="black"/>
<path d="M216.385 80.271C216.421 80.2816 216.461 80.2762 216.492 80.2541C217.441 79.5971 218.48 77.9015 218.523 77.8272C218.558 77.768 218.54 77.6891 218.481 77.6538C218.422 77.6185 218.343 77.6366 218.308 77.6959C218.295 77.7132 217.254 79.4184 216.348 80.0467C216.291 80.0854 216.278 80.1651 216.316 80.2222C216.333 80.2482 216.357 80.2623 216.382 80.27L216.385 80.271Z" fill="black"/>
<path d="M212.738 71.3253C212.738 71.3253 212.758 71.3311 212.771 71.3317C219.968 71.5763 220.791 69.1103 220.822 69.0078C220.843 68.9405 220.805 68.8697 220.741 68.8504C220.676 68.8311 220.606 68.8691 220.586 68.9331C220.576 68.9684 219.733 71.3133 212.781 71.0796C212.712 71.0763 212.653 71.132 212.65 71.2009C212.647 71.2592 212.687 71.3098 212.738 71.3253Z" fill="black"/>
<path d="M210.869 74.8321C210.911 74.8447 210.955 74.8371 210.989 74.8054C212.238 73.7111 213.763 71.3866 213.828 71.2874C213.866 71.2291 213.848 71.1503 213.793 71.1127C213.735 71.0742 213.656 71.0924 213.618 71.1474C213.604 71.1711 212.048 73.542 210.823 74.6155C210.77 74.6625 210.764 74.741 210.811 74.7936C210.826 74.8122 210.847 74.8254 210.869 74.8321Z" fill="black"/>
<path d="M216.711 73.7908C216.711 73.7908 216.727 73.7957 216.736 73.7986C218.694 73.9451 219.999 73.6956 220.054 73.6877C220.121 73.6731 220.165 73.6094 220.154 73.5398C220.139 73.4725 220.076 73.4289 220.006 73.4394C219.991 73.4419 218.68 73.6894 216.756 73.5493C216.688 73.5428 216.626 73.5975 216.622 73.6664C216.619 73.7247 216.655 73.7776 216.713 73.795L216.711 73.7908Z" fill="black"/>
<path d="M214.123 77.6488C214.161 77.6604 214.206 77.6528 214.239 77.6243C215.743 76.3523 217.319 73.9067 217.333 73.8831C217.372 73.8248 217.354 73.746 217.294 73.7106C217.236 73.6721 217.157 73.6903 217.122 73.7495C217.108 73.7732 215.551 76.1896 214.075 77.4354C214.024 77.4792 214.017 77.5609 214.06 77.6126C214.076 77.6312 214.096 77.6443 214.119 77.6511L214.123 77.6488Z" fill="black"/>
<path d="M184.209 100.966C184.228 100.972 184.249 100.975 184.268 100.97C184.335 100.955 184.382 100.893 184.368 100.822C183.844 98.0195 181.598 95.6656 181.574 95.6409C181.526 95.5915 181.446 95.5885 181.397 95.6365C181.347 95.6845 181.344 95.7639 181.392 95.8133C181.413 95.8371 183.608 98.1406 184.121 100.866C184.13 100.915 184.165 100.95 184.207 100.962L184.209 100.966Z" fill="black"/>
<path d="M97.0404 87.7476C97.0596 87.7534 97.0798 87.756 97.1028 87.749L107.163 85.6536C111.077 84.8388 114.529 82.6236 116.887 79.4148C121.9 72.5906 129.151 59.94 121.373 51.883C121.325 51.8336 121.245 51.8306 121.196 51.8785C121.146 51.9265 121.143 52.006 121.191 52.0554C128.843 59.9796 121.651 72.5015 116.685 79.2629C114.364 82.42 110.964 84.6019 107.113 85.4043L97.0522 87.4997C96.9849 87.5143 96.9403 87.5812 96.955 87.6485C96.9658 87.6937 96.9997 87.7319 97.0413 87.7444L97.0404 87.7476Z" fill="black"/>
<path d="M111.446 59.5553C111.503 59.5727 111.571 59.5443 111.596 59.4853C111.626 59.421 111.595 59.3489 111.534 59.32C108.029 57.7358 101.996 56.4375 101.936 56.4265C101.867 56.4126 101.802 56.4558 101.789 56.5218C101.775 56.5909 101.817 56.6595 101.884 56.6692C101.944 56.6802 107.95 57.974 111.431 59.5473C111.437 59.5492 111.44 59.5502 111.447 59.5521L111.446 59.5553Z" fill="black"/>
<path d="M107.253 100.434C107.253 100.434 107.256 100.435 107.259 100.435C111.725 101.579 115.314 101.089 119.861 100.469C123.132 100.023 126.842 99.5131 131.717 99.4979C148.5 99.4396 153.52 104.387 153.568 104.437C153.616 104.486 153.696 104.486 153.746 104.438C153.795 104.39 153.798 104.31 153.747 104.26C153.696 104.21 148.625 99.1873 131.716 99.2461C126.827 99.2638 123.107 99.7704 119.827 100.221C115.309 100.839 111.742 101.326 107.322 100.192C107.255 100.172 107.186 100.214 107.169 100.283C107.15 100.347 107.189 100.414 107.253 100.434Z" fill="black"/>
<path d="M144.53 74.6427C144.555 74.6504 144.58 74.6508 144.607 74.6415C144.673 74.6195 144.709 74.5465 144.683 74.4827C143.486 71.0371 141.889 68.8231 141.875 68.8013C141.832 68.7464 141.756 68.7338 141.698 68.7725C141.64 68.8144 141.631 68.8919 141.67 68.949C141.684 68.9708 143.261 71.1579 144.444 74.5679C144.457 74.6067 144.49 74.6343 144.525 74.6449L144.53 74.6427Z" fill="black"/>
<path d="M145.258 100.824C145.312 100.841 145.371 100.82 145.4 100.769C150.391 92.604 151.43 85.5319 151.269 84.907C151.251 84.8387 151.182 84.8005 151.114 84.8183C151.046 84.8362 151.007 84.905 151.025 84.9733C151.184 85.5835 150.138 92.5415 145.187 100.642C145.152 100.701 145.17 100.78 145.229 100.815C145.239 100.818 145.247 100.824 145.26 100.828L145.258 100.824Z" fill="black"/>
<path d="M149.28 92.86C149.325 92.8735 149.374 92.8604 149.409 92.8255C149.478 92.7484 156.448 84.9808 156.519 76.3559C156.519 76.286 156.463 76.2305 156.393 76.2304C156.323 76.2303 156.268 76.287 156.267 76.3568C156.199 84.8812 149.291 92.5803 149.222 92.6574C149.175 92.7096 149.183 92.7887 149.232 92.8349C149.246 92.8461 149.263 92.8583 149.279 92.8632L149.28 92.86Z" fill="black"/>
<path d="M170.075 91.1134C170.104 91.1221 170.135 91.1211 170.164 91.1087C170.225 91.0783 170.254 91.0066 170.224 90.9419C168.355 86.9094 163.495 81.5699 163.445 81.5163C163.398 81.4637 163.319 81.4607 163.269 81.5087C163.217 81.5557 163.214 81.6352 163.262 81.6846C163.312 81.7381 168.145 87.052 169.997 91.0479C170.012 91.0803 170.042 91.1069 170.074 91.1166L170.075 91.1134Z" fill="black"/>
<path d="M136.243 109.533C136.243 109.533 136.252 109.536 136.255 109.537C141.555 110.524 144.825 111.866 144.856 111.879C144.921 111.905 144.994 111.875 145.02 111.809C145.047 111.744 145.016 111.672 144.951 111.645C144.92 111.632 141.628 110.28 136.299 109.288C136.23 109.275 136.167 109.322 136.154 109.388C136.142 109.451 136.18 109.511 136.24 109.529L136.243 109.533Z" fill="black"/>
<path d="M142.056 136.213C142.078 136.219 142.1 136.219 142.122 136.215C142.19 136.197 142.228 136.128 142.213 136.064C142.189 135.97 139.639 126.443 126.077 109.907C126.034 109.852 125.956 109.846 125.901 109.889C125.846 109.932 125.84 110.01 125.883 110.065C139.404 126.55 141.943 136.032 141.967 136.126C141.978 136.172 142.01 136.202 142.052 136.215L142.056 136.213Z" fill="black"/>
<path d="M90.6644 133.054C90.7028 133.066 90.747 133.058 90.7791 133.033C90.834 132.99 90.8401 132.912 90.7973 132.857C85.6592 126.434 76.3317 119.238 76.2376 119.168C76.1836 119.127 76.1044 119.135 76.0627 119.192C76.0219 119.246 76.0295 119.325 76.0868 119.367C76.1809 119.437 85.4825 126.615 90.6029 133.015C90.6183 133.033 90.641 133.051 90.6634 133.057L90.6644 133.054Z" fill="black"/>
<path d="M104.043 127.165C104.043 127.165 104.062 127.171 104.069 127.172C104.127 127.176 110.154 127.613 119.168 131.725C119.232 131.754 119.305 131.724 119.333 131.663C119.363 131.598 119.333 131.526 119.272 131.497C110.209 127.361 104.144 126.923 104.083 126.918C104.014 126.915 103.953 126.966 103.949 127.035C103.946 127.093 103.982 127.146 104.037 127.163L104.043 127.165Z" fill="black"/>
<path d="M153.918 148.246C153.937 148.252 153.954 148.254 153.976 148.25C154.046 148.239 154.09 148.172 154.079 148.106C154.069 148.047 152.996 142.057 150.65 139.062C150.607 139.007 150.53 138.998 150.475 139.04C150.42 139.083 150.411 139.161 150.453 139.216C152.762 142.161 153.821 148.091 153.831 148.15C153.841 148.199 153.875 148.237 153.92 148.25L153.918 148.246Z" fill="black"/>
<path d="M198.197 149.952C198.235 149.964 198.28 149.956 198.316 149.929C198.367 149.885 198.377 149.807 198.333 149.756C197.995 149.347 189.64 143.156 181.881 140.062C181.811 140.038 181.742 140.069 181.717 140.131C181.69 140.197 181.721 140.269 181.786 140.296C189.763 143.476 197.924 149.675 198.138 149.917C198.153 149.936 198.174 149.949 198.196 149.956L198.197 149.952Z" fill="black"/>
<path d="M151.386 59.7687C151.412 59.7765 151.44 59.7746 151.467 59.7653C151.531 59.7391 151.566 59.6694 151.541 59.6024C151.533 59.5825 150.846 57.7019 151.731 55.415C151.757 55.3497 151.724 55.2766 151.657 55.2532C151.591 55.2297 151.519 55.2603 151.495 55.3266C150.575 57.7077 151.276 59.6132 151.304 59.6917C151.317 59.7305 151.351 59.7581 151.386 59.7687Z" fill="black"/>
<path d="M153.881 62.9955C154.439 63.1635 155.148 63.1747 155.693 62.4902C156.695 61.2411 156.774 59.2178 156.219 58.1841C156.186 58.1216 156.112 58.0994 156.05 58.133C155.987 58.1665 155.965 58.2402 155.998 58.3027C156.515 59.2655 156.437 61.1597 155.499 62.3339C154.602 63.4572 153.193 62.3933 153.134 62.3474C153.079 62.3066 153 62.3142 152.959 62.3715C152.918 62.4256 152.925 62.5047 152.983 62.5464C152.991 62.5525 153.372 62.842 153.885 62.9965L153.881 62.9955Z" fill="black"/>
<path d="M155.521 65.0442C155.787 65.1244 155.964 65.1182 155.982 65.1166C156.049 65.1126 156.102 65.0518 156.098 64.9842C156.094 64.9165 156.033 64.8633 155.966 64.8674C155.948 64.8689 154.667 64.8986 153.608 62.7939C153.577 62.7324 153.501 62.706 153.439 62.7395C153.377 62.7699 153.351 62.8458 153.384 62.9083C154.139 64.4039 155.002 64.891 155.517 65.0465L155.521 65.0442Z" fill="black"/>
<path d="M158.754 60.4144C158.891 60.4559 158.974 60.4705 158.984 60.4734C159.053 60.4872 159.116 60.4399 159.129 60.3739C159.143 60.3047 159.096 60.2416 159.03 60.2287C159.023 60.2267 158.499 60.1245 157.912 59.7658C157.852 59.7305 157.774 59.7486 157.738 59.8079C157.703 59.8671 157.721 59.9459 157.78 59.9812C158.169 60.2208 158.529 60.35 158.75 60.4167L158.754 60.4144Z" fill="black"/>
<path d="M147.806 55.6433C147.838 55.6529 147.874 55.6498 147.904 55.6309C147.963 55.5964 147.983 55.5186 147.949 55.4592C147.944 55.4509 147.455 54.5836 147.82 53.443C147.84 53.3757 147.805 53.3058 147.738 53.2856C147.68 53.2682 147.601 53.3001 147.58 53.3674C147.182 54.6201 147.709 55.5477 147.732 55.5861C147.748 55.6153 147.774 55.6336 147.806 55.6433Z" fill="black"/>
<path d="M139.469 51.8419C139.507 51.8535 139.552 51.8458 139.585 51.8174C139.593 51.8129 140.322 51.2151 141.231 51.1189C141.653 51.075 141.938 50.9165 142.19 50.7758C142.539 50.5806 142.841 50.4131 143.455 50.5562C143.523 50.5733 143.589 50.5301 143.606 50.4619C143.623 50.3937 143.578 50.3209 143.511 50.3112C142.803 50.1465 142.429 50.3552 142.068 50.5572C141.825 50.6901 141.576 50.8317 141.205 50.87C140.217 50.9705 139.456 51.5968 139.423 51.6252C139.371 51.6691 139.361 51.7498 139.408 51.8024C139.423 51.821 139.447 51.8351 139.469 51.8419Z" fill="black"/>
<path d="M152.881 66.5747C152.942 66.5931 153.007 66.5637 153.033 66.5016C153.046 66.4673 153.368 65.6803 153.072 64.6338C153.054 64.5656 152.985 64.5274 152.917 64.5452C152.848 64.5631 152.81 64.6319 152.828 64.7002C153.098 65.6584 152.802 66.3971 152.799 66.4067C152.773 66.4721 152.803 66.5442 152.869 66.5709C152.872 66.5718 152.878 66.5738 152.881 66.5747Z" fill="black"/>
<path d="M68.1176 31.6194C68.1657 31.6339 68.215 31.6208 68.2487 31.5786C68.2651 31.5591 68.3986 31.3827 68.3183 31.0581C68.1618 30.4415 67.2291 29.3987 63.6781 27.9438C57.9716 25.6086 56.0934 23.8197 56.9814 21.5581C57.9146 19.1809 59.72 19.1138 67.6974 21.159C75.7878 23.2348 79.2058 27.7377 79.241 27.7833C79.2839 27.8381 79.3604 27.8507 79.4153 27.8079C79.4701 27.765 79.4827 27.6885 79.4399 27.6336C79.4047 27.5881 75.9326 23.0094 67.757 20.915C59.6016 18.8231 57.7494 18.918 56.747 21.4665C55.6491 24.2621 58.6853 26.1731 63.5833 28.1773C67.1845 29.6507 67.9412 30.6404 68.0709 31.1023C68.1321 31.3163 68.059 31.42 68.0548 31.4223C68.014 31.4764 68.0248 31.5565 68.0789 31.5972C68.093 31.6085 68.1048 31.6155 68.1209 31.6204L68.1176 31.6194Z" fill="black"/>
<path d="M64.0953 43.3101C64.1209 43.3178 64.1452 43.3181 64.1725 43.3089C64.2385 43.2869 64.2735 43.2171 64.2515 43.1511C61.8137 35.9182 67.2487 30.0807 67.3042 30.0241C67.3504 29.9751 67.3502 29.8947 67.298 29.8476C67.2491 29.8014 67.1686 29.8016 67.1215 29.8537C67.065 29.9136 61.5273 35.8599 64.0127 43.2363C64.0255 43.275 64.0581 43.3058 64.0965 43.3174L64.0953 43.3101Z" fill="black"/>
<path d="M59.476 17.8092C59.6393 17.8584 59.7937 17.891 59.9391 17.9069C60.007 17.9134 60.0702 17.8661 60.0777 17.7949C60.0842 17.727 60.0368 17.6639 59.9657 17.6564C57.3849 17.3639 52.1216 11.5885 52.0692 11.5307C52.033 11.4884 51.9702 11.4765 51.9202 11.5033C51.8712 11.527 51.8432 11.5849 51.8521 11.6365C51.861 11.6881 56.7027 16.9731 59.4728 17.8082L59.476 17.8092Z" fill="black"/>
<path d="M59.1493 19.6716C59.1813 19.6812 59.214 19.6771 59.2464 19.6624C59.3057 19.6279 59.3288 19.551 59.2975 19.4927L57.7264 16.6504C57.6919 16.5911 57.6151 16.568 57.5567 16.5993C57.4974 16.6338 57.4742 16.7107 57.5055 16.769L59.0766 19.6112C59.0923 19.6404 59.1204 19.6629 59.1493 19.6716Z" fill="black"/>
<path d="M54.073 21.2829C54.1338 21.3012 54.1986 21.2718 54.2233 21.2129C54.25 21.1476 54.2225 21.0765 54.1572 21.0498C52.0786 20.1576 50.7907 18.9135 50.3063 18.446C50.1876 18.3299 50.1147 18.259 50.0683 18.2275C50.01 18.189 49.9322 18.204 49.8936 18.2622C49.8551 18.3205 49.8701 18.3983 49.9283 18.4369C49.9574 18.4561 50.0381 18.5363 50.1337 18.6246C50.6258 19.1013 51.9386 20.3669 54.0601 21.279C54.0633 21.28 54.0698 21.2819 54.073 21.2829Z" fill="black"/>
<path d="M55.8288 26.9879C55.8608 26.9976 55.8999 26.9954 55.931 26.9733C55.9903 26.9388 56.0071 26.86 55.9726 26.8007C54.7412 24.8015 53.0533 20.8865 53.0152 20.6305C53.0153 20.5606 52.961 20.5093 52.8911 20.5092C52.8213 20.5091 52.7648 20.5689 52.7647 20.6388C52.7637 20.897 54.568 24.9938 55.7584 26.9317C55.775 26.9577 55.8009 26.976 55.8298 26.9847L55.8288 26.9879Z" fill="black"/>
<path d="M51.0814 25.5099C51.1006 25.5157 51.1176 25.5173 51.1397 25.5135C51.1692 25.5084 51.8745 25.3822 53.1715 24.6029C53.2308 24.5684 53.2508 24.4905 53.2163 24.4312C53.1817 24.3719 53.1039 24.3519 53.0446 24.3865C51.7944 25.1379 51.1061 25.2658 51.0987 25.2671C51.0324 25.2785 50.9846 25.3445 50.996 25.4108C51.0059 25.4592 51.0398 25.4973 51.0846 25.5109L51.0814 25.5099Z" fill="black"/>
<path d="M69.1341 15.9141C69.5633 16.0435 70.0722 16.1515 70.6414 16.1868C70.7103 16.1901 70.7713 16.1386 70.7746 16.0698C70.7779 16.0009 70.7254 15.9432 70.6575 15.9367C69.0526 15.8371 67.8919 15.1099 67.881 15.0996C67.8227 15.0611 67.7439 15.0792 67.7086 15.1385C67.6701 15.1967 67.6882 15.2755 67.7474 15.3109C67.7798 15.3311 68.3025 15.6599 69.1351 15.9109L69.1341 15.9141Z" fill="black"/>
<path d="M214.839 179.324C212.952 180.485 213.303 178.522 213.303 178.522C213.303 178.522 209.603 169.529 212.544 168.197C215.486 166.866 219.247 169.362 219.798 170.594C220.349 171.825 216.726 178.164 214.839 179.324ZM216.6 172.973C216.725 172.57 216.606 172.119 216.297 171.788C215.894 171.363 215.274 170.952 214.589 171.392C213.4 172.151 214.965 176.983 214.965 176.983C215.503 176.37 216.265 174.049 216.6 172.973Z" fill="#FFE8DB"/>
<path d="M214.233 179.927C212.259 178.92 214.118 178.198 214.118 178.198C214.118 178.198 219.871 170.357 222.537 172.174C225.203 173.991 225.03 178.505 224.27 179.613C223.509 180.722 216.207 180.935 214.233 179.927ZM220.573 178.122C220.982 178.018 221.306 177.682 221.427 177.247C221.58 176.682 221.608 175.939 220.877 175.583C219.611 174.963 216.301 178.815 216.301 178.815C217.104 178.955 219.484 178.398 220.576 178.123L220.573 178.122Z" fill="#FFE8DB"/>
<path d="M190.711 192.896C190.441 193.283 190.361 193.769 190.493 194.224C191.246 196.823 194.079 205.876 198.555 211.897L198.56 211.905C199.433 213.077 200.365 214.133 201.356 215.005C202.408 215.93 204.255 215.645 206.627 214.487C220.018 207.985 250.243 173.872 250.243 173.872C250.243 173.872 248.143 170.409 243.712 168.812C240.648 167.702 236.464 167.489 231.091 169.936C217.953 175.91 218.964 176.683 213.493 177.829L212.646 176.571C212.404 176.215 212.014 175.992 211.584 175.971C209.322 175.848 201.891 176.902 190.711 192.896Z" fill="#AC502D"/>
<path d="M198.551 211.898L198.555 211.906C198.666 212.107 200.487 215.339 203.319 216.35C203.72 216.492 204.893 215.798 206.622 214.489C217.489 206.268 250.238 173.873 250.238 173.873C250.238 173.873 248.138 170.41 243.708 168.813C243.708 168.813 237.265 170.556 231.889 176.544C226.513 182.532 222.574 187.441 218.935 190.417C207.908 199.435 200.313 202.403 198.551 211.898Z" fill="#FFE8DB"/>
<path d="M250.242 173.868C250.242 173.868 255.139 181.182 244.255 191.407C233.372 201.632 211.538 224.356 202.154 215.434C202.154 215.434 197.697 211.526 220.167 194.908C221.232 194.122 222.221 193.243 223.132 192.284C228.197 186.943 245.97 168.884 250.242 173.868Z" fill="black"/>
<path d="M197.729 210.625C197.751 210.632 197.776 210.632 197.799 210.625C197.867 210.607 197.905 210.538 197.887 210.47C196.257 204.487 213.277 192.542 217.047 190.429C219.37 189.132 222.563 185.088 226.263 180.404C227.281 179.115 228.336 177.78 229.415 176.45C234.304 170.42 240.091 168.189 240.15 168.168C240.214 168.142 240.249 168.072 240.223 168.005C240.197 167.941 240.127 167.906 240.06 167.931C240.002 167.952 234.148 170.208 229.219 176.289C228.139 177.623 227.084 178.957 226.066 180.247C222.383 184.908 219.206 188.935 216.925 190.208C214.731 191.436 195.877 204.054 197.645 210.533C197.656 210.575 197.688 210.609 197.73 210.622L197.729 210.625Z" fill="black"/>
<path d="M217.198 176.712C217.23 176.722 217.266 176.719 217.295 176.703C218.189 176.207 219.381 173.007 219.429 172.871C219.452 172.805 219.417 172.735 219.355 172.709C219.294 172.68 219.22 172.717 219.193 172.783C218.859 173.684 217.848 176.108 217.174 176.481C217.114 176.516 217.091 176.593 217.122 176.651C217.138 176.68 217.166 176.703 217.195 176.711L217.198 176.712Z" fill="black"/>
<path d="M214.548 171.506C214.596 171.521 214.649 171.505 214.682 171.466C214.693 171.452 215.793 170.135 217.409 170.346C217.476 170.356 217.54 170.305 217.55 170.238C217.56 170.172 217.509 170.107 217.442 170.098C215.685 169.868 214.538 171.248 214.489 171.307C214.445 171.36 214.453 171.439 214.506 171.483C214.52 171.494 214.535 171.502 214.548 171.506Z" fill="black"/>
<path d="M190.966 196.012C191.017 196.028 191.076 196.007 191.107 195.961C204.418 175.471 213.053 177.445 213.137 177.467C213.204 177.487 213.273 177.445 213.29 177.377C213.31 177.309 213.273 177.246 213.2 177.224C213.11 177.197 210.952 176.661 207.101 178.693C203.574 180.554 197.901 185.038 190.894 195.823C190.855 195.881 190.873 195.96 190.929 195.994C190.942 195.998 190.951 196.004 190.96 196.007L190.966 196.012Z" fill="black"/>
<path d="M194.619 190.763C194.648 190.772 194.68 190.771 194.708 190.759C194.785 190.723 202.674 187.197 211.699 193.914C211.753 193.955 211.833 193.944 211.874 193.89C211.916 193.833 211.904 193.756 211.847 193.714C202.696 186.903 194.679 190.495 194.601 190.534C194.539 190.565 194.51 190.64 194.54 190.701C194.555 190.733 194.585 190.76 194.617 190.77L194.619 190.763Z" fill="black"/>
<path d="M228.614 171.18C228.64 171.188 228.668 171.186 228.696 171.177C231.555 170.072 234.637 171.298 234.668 171.311C234.734 171.334 234.805 171.307 234.832 171.242C234.858 171.176 234.828 171.104 234.762 171.078C234.731 171.065 231.559 169.801 228.605 170.944C228.542 170.97 228.51 171.041 228.532 171.107C228.545 171.142 228.576 171.169 228.614 171.18Z" fill="black"/>
<path d="M210.533 193.084C210.578 193.097 210.628 193.084 210.663 193.049C212.028 191.543 215.506 189.661 216.992 188.858L217.414 188.629C218.606 187.975 220.34 185.99 220.415 185.904C229.548 173.328 233.37 170.927 233.409 170.904C233.468 170.87 233.488 170.792 233.45 170.732C233.416 170.672 233.338 170.652 233.278 170.69C233.124 170.783 229.387 173.119 220.217 185.75C220.207 185.761 218.443 187.776 217.291 188.41L216.873 188.637C215.375 189.447 211.869 191.342 210.477 192.878C210.429 192.93 210.437 193.009 210.486 193.056C210.5 193.067 210.517 193.079 210.533 193.084Z" fill="black"/>
<path d="M219.581 195.441C219.581 195.441 219.59 195.444 219.597 195.446C219.667 195.456 219.73 195.409 219.74 195.342C220.577 189.994 223.476 186.205 223.505 186.168C223.546 186.114 223.538 186.035 223.481 185.993C223.428 185.949 223.348 185.96 223.307 186.014C223.278 186.051 220.34 189.888 219.49 195.302C219.481 195.366 219.52 195.423 219.578 195.44L219.581 195.441Z" fill="black"/>
<path d="M9.3896 168.203C9.17023 168.85 9.70915 169.519 10.3728 169.67L13.3336 171.136C13.4518 171.161 13.5728 171.176 13.6933 171.171C13.8509 171.169 14.0099 171.141 14.1596 171.084C15.6708 170.544 20.4409 171.015 25.8286 166.504C27.9733 164.709 30.6517 161.387 33.3033 158.386C33.749 157.881 34.195 157.386 34.6393 156.909C35.8839 155.562 37.0987 154.36 38.2324 153.496C38.6019 153.209 38.9662 152.963 39.3179 152.758C40.2076 152.24 41.0909 151.72 42.0133 151.233C42.9626 150.727 43.9551 150.25 45.0562 149.831C47.7615 148.795 51.1148 148.101 55.9988 148.159C55.9988 148.159 62.4989 146.691 61.9542 118.625C61.9542 118.625 47.9273 112.08 37.5233 108.964C36.8508 108.761 36.1914 108.573 35.5537 108.405C34.6099 108.152 33.6125 108.494 33.0191 109.269C31.0995 111.789 27.196 118.225 22.9457 130.005C17.3643 145.483 16.5872 147.041 9.38639 168.203L9.3896 168.203Z" fill="#AC502D"/>
<path d="M8.33135 168.472C8.10655 169.114 8.65091 169.788 9.31451 169.939L13.3374 171.138C13.4556 171.163 13.5767 171.179 13.6971 171.173C15.6299 168.158 18.7097 162.438 20.503 152.561C23.97 133.459 26.8657 130.297 29.6748 124.584C32.4989 118.843 37.5271 108.966 37.5271 108.966C36.8546 108.764 35.0126 108.153 34.375 107.985C33.4312 107.732 32.4337 108.074 31.8403 108.849C29.9208 111.369 25.91 119.69 21.6596 131.47C16.0783 146.948 15.415 148.232 8.33135 168.472Z" fill="#FFE8DB"/>
<path d="M16.2221 170.4C16.2734 170.416 16.3352 170.396 16.3645 170.346C19.8962 164.703 23.5381 147.292 24.9405 140.068C26.6946 131.028 38.945 109.757 39.069 109.543C39.1043 109.484 39.082 109.407 39.0228 109.372C38.9626 109.34 38.8869 109.359 38.8516 109.418C38.7277 109.632 26.4551 130.942 24.6926 140.021C23.295 147.23 19.6605 164.604 16.15 170.211C16.1147 170.27 16.1296 170.348 16.1888 170.383C16.1985 170.386 16.2103 170.393 16.2199 170.396L16.2221 170.4Z" fill="black"/>
<path d="M49.8364 143.51C49.8364 143.51 52.2067 143.18 51.9743 144.912C51.7419 146.645 48.9248 147.692 48.5817 146.698C48.2409 145.708 48.5737 143.828 49.8332 143.509L49.8364 143.51Z" fill="#FFE8DB"/>
<path d="M49.2326 146.106C50.6081 144.093 51.0012 146.231 51.0012 146.231C51.0012 146.231 57.8653 153.649 55.5432 156.299C53.2211 158.949 48.6976 158.113 47.7186 157.119C46.7364 156.124 47.857 148.12 49.2326 146.106ZM49.8988 153.294C49.928 153.754 50.2074 154.159 50.6278 154.352C51.1705 154.603 51.9152 154.741 52.4099 153.992C53.2645 152.698 49.9818 148.523 49.9818 148.523C49.6955 149.38 49.8239 152.059 49.8988 153.294Z" fill="#FFE8DB"/>
<path d="M53.5186 148.318C53.5666 148.332 53.6201 148.317 53.6538 148.274C59.7784 140.451 59.1077 117.611 59.1 117.382C59.0969 117.311 59.0393 117.259 58.9695 117.258C58.8987 117.262 58.8464 117.319 58.8463 117.389C58.854 117.618 59.5209 140.366 53.4525 148.119C53.4086 148.173 53.4193 148.253 53.4725 148.297C53.4833 148.307 53.4984 148.315 53.5144 148.32L53.5186 148.318Z" fill="black"/>
<path d="M31.1552 124.161C41.0357 127.067 47.3197 124.752 50.8497 122.301C54.6773 119.64 56.1851 116.238 56.2021 116.205C56.2288 116.14 56.2013 116.068 56.137 116.038C56.0716 116.012 56.0005 116.039 55.9706 116.104C55.9568 116.138 54.4705 119.48 50.6968 122.102C47.2114 124.52 41.0088 126.797 31.2276 123.921C31.1604 123.901 31.0927 123.94 31.0724 124.007C31.0522 124.074 31.0912 124.142 31.1552 124.161Z" fill="black"/>
<path d="M21.0396 156.879C21.0684 156.888 21.1002 156.887 21.1293 156.871C26.9681 154.016 28.8406 151.479 30.8219 148.789C32.11 147.042 33.4439 145.237 35.9324 143.182C43.3557 137.053 57.1972 138.616 57.3362 138.63C57.4041 138.637 57.4673 138.589 57.4738 138.521C57.4803 138.453 57.433 138.39 57.3651 138.384C57.227 138.367 43.2795 136.796 35.7735 142.991C33.258 145.065 31.917 146.883 30.6209 148.644C28.6547 151.307 26.7996 153.822 21.0182 156.649C20.9566 156.679 20.9302 156.755 20.9606 156.817C20.9753 156.849 21.0034 156.871 21.0355 156.881L21.0396 156.879Z" fill="black"/>
<path d="M50.1889 145.1C48.302 146.26 48.6525 144.298 48.6525 144.298C48.6525 144.298 44.9532 135.305 47.8944 133.973C50.8356 132.642 54.5966 135.138 55.1476 136.37C55.6986 137.601 52.0759 143.94 50.1889 145.1ZM51.95 138.749C52.0748 138.346 51.9559 137.895 51.6469 137.564C51.2441 137.139 50.6238 136.728 49.9392 137.168C48.7496 137.927 50.3148 142.759 50.3148 142.759C50.8526 142.145 51.615 139.825 51.95 138.749Z" fill="#FFE8DB"/>
<path d="M23.2687 155.702C23.3295 155.721 23.3953 155.688 23.42 155.629C25.0098 151.735 25.6282 147.911 26.2269 144.21C26.5328 142.314 26.8507 140.356 27.2929 138.449C28.5725 132.941 32.9117 124.632 32.9579 124.548C32.9901 124.488 32.9677 124.411 32.9044 124.378C32.8442 124.346 32.7676 124.368 32.7345 124.432C32.6914 124.517 28.334 132.852 27.0479 138.393C26.6028 140.309 26.2872 142.272 25.977 144.169C25.38 147.853 24.7655 151.665 23.1866 155.534C23.1599 155.6 23.1905 155.672 23.2559 155.699C23.2591 155.699 23.2623 155.7 23.2687 155.702Z" fill="black"/>
<path d="M51.9604 138.444C51.9604 138.444 51.9668 138.446 51.97 138.447C52.0392 138.461 52.1046 138.418 52.1175 138.352C52.1242 138.33 52.5542 136.185 50.9165 135.209C50.8563 135.177 50.7816 135.193 50.7463 135.252C50.711 135.311 50.7301 135.387 50.7884 135.425C52.2689 136.309 51.8763 138.283 51.8705 138.302C51.8576 138.368 51.8954 138.428 51.9562 138.447L51.9604 138.444Z" fill="black"/>
<path d="M49.2394 145.217C49.4604 145.284 49.6808 145.295 49.9038 145.25C50.8864 145.05 51.5102 143.827 51.5362 143.775C51.5683 143.715 51.5428 143.638 51.4784 143.608C51.4183 143.576 51.3407 143.601 51.3118 143.662C51.3079 143.675 50.7159 144.828 49.8523 145.004C49.4735 145.078 49.0911 144.956 48.7135 144.633C48.6604 144.589 48.5822 144.593 48.5383 144.646C48.4943 144.699 48.4987 144.777 48.5518 144.821C48.7765 145.015 49.0089 145.148 49.2394 145.217Z" fill="black"/>
<path d="M48.7001 147.093C48.7001 147.093 48.7097 147.096 48.7129 147.097C50.8655 147.512 51.2066 146.427 51.2179 146.378C51.2382 146.311 51.1992 146.243 51.1351 146.224C51.0679 146.204 51.0002 146.243 50.9799 146.31C50.9684 146.348 50.6699 147.222 48.7619 146.853C48.6927 146.839 48.6263 146.886 48.6166 146.953C48.6047 147.016 48.6415 147.079 48.7023 147.097L48.7001 147.093Z" fill="black"/>
<path d="M51.881 155.926C52.2556 156.039 52.6977 156.103 53.217 156.095C53.2868 156.095 53.3424 156.039 53.3392 155.968C53.3393 155.898 53.2785 155.845 53.2119 155.846C50.3202 155.889 50.0765 153.65 50.0674 153.553C50.0601 153.484 49.9983 153.434 49.9307 153.438C49.8621 153.445 49.8121 153.507 49.8162 153.575C49.8168 153.596 50.0075 155.362 51.8746 155.925L51.881 155.926Z" fill="black"/>
<path d="M48.6755 144.725C48.7364 144.743 48.8011 144.714 48.8259 144.655C49.3244 143.488 50.3667 142.869 50.3792 142.863C50.4386 142.828 50.4585 142.75 50.424 142.691C50.3895 142.632 50.3117 142.612 50.2524 142.646C50.2055 142.674 49.1298 143.31 48.5934 144.557C48.5668 144.622 48.5942 144.693 48.6586 144.723C48.6618 144.724 48.6682 144.726 48.6714 144.727L48.6755 144.725Z" fill="black"/>
<path d="M49.9413 148.644C50.0053 148.663 50.0752 148.628 50.0945 148.564C50.1119 148.507 50.5718 147.178 50.6145 146.932C50.6283 146.863 50.5778 146.799 50.5118 146.786C50.4426 146.772 50.3795 146.82 50.3656 146.889C50.333 147.078 49.985 148.105 49.8531 148.485C49.8328 148.552 49.8644 148.621 49.9307 148.644L49.9371 148.646L49.9413 148.644Z" fill="black"/>
<path d="M23.8285 137.97C23.8957 137.991 23.9634 137.952 23.9836 137.884C24.0078 137.804 26.2803 129.675 24.3905 124.924C24.3643 124.86 24.2903 124.827 24.2265 124.854C24.1627 124.88 24.13 124.954 24.1561 125.017C26.015 129.686 23.7666 137.735 23.7425 137.815C23.7222 137.882 23.7612 137.95 23.8253 137.969L23.8285 137.97Z" fill="black"/>
<path d="M41.9468 139.893C43.5616 143.586 42.6635 148.64 42.0179 151.233C42.9663 150.729 43.9588 150.253 45.0598 149.834C45.6305 146.736 45.9529 142.375 44.3982 138.818C44.1024 138.142 43.3157 137.832 42.6354 138.13C41.9594 138.426 41.652 139.213 41.9468 139.893Z" fill="#FFE8DB"/>
<path d="M34.963 144.067C37.5091 149.191 35.5588 154.779 34.6438 156.91C35.8883 155.563 37.1032 154.361 38.2369 153.498C39.0003 150.444 39.2109 146.605 37.3581 142.878C37.03 142.217 36.2275 141.947 35.5661 142.275C34.9048 142.603 34.6349 143.405 34.963 144.067Z" fill="#FFE8DB"/>
</g>
<defs>
<clipPath id="clip0_409_4070">
<rect width="244.366" height="174.561" fill="white" transform="matrix(-0.957436 -0.288646 -0.288646 0.957436 284.351 70.5353)"/>
</clipPath>
</defs>
</svg>
