<svg width="24" height="13" viewBox="0 0 24 13" fill="none" xmlns="http://www.w3.org/2000/svg">
<path d="M16.3304 2.18373C15.8137 1.88936 15.2261 1.74238 14.6316 1.75881C14.1679 1.7523 13.7086 1.84815 13.2862 2.03952C12.8639 2.23089 12.4889 2.51307 12.1882 2.86594C11.7472 3.39966 11.3833 3.99253 11.1069 4.62727C11.0585 4.73126 11.0019 4.83126 10.9377 4.92635C10.9098 4.96742 10.8735 5.00214 10.8312 5.02823C10.8033 5.0443 10.7717 5.0529 10.7395 5.05321C10.6922 5.05258 10.6468 5.03442 10.6121 5.00225C10.5851 4.97611 10.562 4.94606 10.5438 4.9131C10.5023 4.83556 10.467 4.7548 10.4384 4.6716C10.367 4.47901 10.2855 4.22119 10.1678 3.9369C9.92559 3.26574 9.4908 2.6809 8.91784 2.25557C8.39912 1.91522 7.78815 1.74285 7.168 1.76187C6.7083 1.74714 6.2507 1.82997 5.82534 2.00491C5.39997 2.17984 5.01649 2.44292 4.70019 2.77679C4.21696 3.28059 3.83088 3.86923 3.56133 4.51314C3.35037 5.08327 3.18578 5.80675 2.81024 5.75428C2.71393 5.74103 2.05506 5.53518 2.60232 4.58243C2.98052 4.07816 3.28301 3.52135 3.50018 2.92963C3.54912 2.68664 3.54132 2.43563 3.47742 2.19614C3.41352 1.95665 3.29524 1.73512 3.13176 1.54879C2.96828 1.36246 2.76403 1.21635 2.53487 1.12181C2.3057 1.02728 2.05782 0.986869 1.81049 1.00374C1.33032 1.00374 0.869803 1.19446 0.530274 1.53394C0.190745 1.87343 0 2.33387 0 2.81398C0 2.87104 0.00358161 2.92708 0.00867722 2.98262C0.00327544 3.00395 0.000353789 3.02583 0 3.04783V12.6019C0.000798664 12.6426 0.0175126 12.6814 0.0465584 12.71C0.0756042 12.7386 0.114671 12.7546 0.155412 12.7547H3.09456C3.13539 12.7547 3.1746 12.7388 3.20376 12.7102C3.23291 12.6816 3.2497 12.6427 3.2505 12.6019V9.41856C3.22946 8.55209 3.3359 7.68724 3.56643 6.85173C3.71997 6.23501 4.0811 5.6899 4.58913 5.30795C4.92032 5.09003 5.3086 4.97499 5.70507 4.9773C6.00142 4.98951 6.29535 5.036 6.581 5.11587C6.81036 5.21498 7.00082 5.38664 7.12315 5.60448C7.41279 6.29167 7.53017 7.03919 7.46508 7.78206V12.6019C7.46588 12.6426 7.48259 12.6814 7.51164 12.71C7.54068 12.7386 7.57975 12.7546 7.62049 12.7547H10.5596C10.6004 12.7546 10.6395 12.7386 10.6685 12.71C10.6975 12.6814 10.7143 12.6426 10.7151 12.6019V9.41856C10.6908 8.55611 10.7721 7.69393 10.9571 6.85121C11.0732 6.22617 11.4251 5.66966 11.94 5.29674C12.2547 5.12464 12.6014 5.01929 12.9586 4.9873C13.3158 4.9553 13.6758 4.99734 14.016 5.11078C14.2508 5.20463 14.4479 5.37357 14.5765 5.59123C14.8466 6.04163 14.9281 6.72791 14.9296 7.78206V12.6019C14.9303 12.6422 14.9466 12.6807 14.9751 12.7092C15.0037 12.7378 15.0422 12.7541 15.0825 12.7547H18.0216C18.0624 12.7546 18.1015 12.7386 18.1305 12.71C18.1596 12.6814 18.1763 12.6426 18.1771 12.6019V7.13908C18.2011 6.12156 18.0623 5.10674 17.7659 4.13306C17.5388 3.33113 17.0289 2.63861 16.3304 2.18373Z" fill="#FFE42C"/>
<path d="M23.0601 0.787519C22.8733 0.534559 22.6278 0.330889 22.3446 0.194093C22.0615 0.0572971 21.7494 -0.0085003 21.4351 0.00239455C21.1883 -0.0107893 20.9416 0.0305862 20.7126 0.12358C20.4836 0.216574 20.2779 0.3589 20.1102 0.540422C19.7928 0.893617 19.6217 1.35422 19.6313 1.82893C19.6191 2.05195 19.6543 2.275 19.7344 2.48346C19.8146 2.69192 19.938 2.88108 20.0965 3.03849C20.3595 3.31116 20.7195 3.469 21.0983 3.47767C21.2404 3.47236 21.3816 3.45254 21.5196 3.41855C21.6321 3.38378 21.748 3.36074 21.8652 3.34978C22.1206 3.34978 22.2485 3.51435 22.2488 3.84348C22.2435 4.12621 22.1701 4.40349 22.0349 4.65182C21.8996 4.90015 21.7064 5.11222 21.4718 5.27006C21.0612 5.59867 20.5646 5.80194 20.0414 5.85548C19.9742 5.86121 19.9116 5.89188 19.8658 5.94148C19.8201 5.99108 19.7945 6.05601 19.7943 6.12348V6.76391C19.7943 6.80153 19.8023 6.83873 19.8175 6.87314C19.8327 6.90754 19.8549 6.9384 19.8827 6.96375C19.9105 6.9891 19.9433 7.00838 19.979 7.02038C20.0146 7.03238 20.0524 7.03682 20.0899 7.03343C21.1046 6.95793 22.0485 6.48502 22.7164 5.71749C23.3843 4.94995 23.7223 3.94984 23.6568 2.93454C23.7002 2.17265 23.4904 1.41778 23.0601 0.787519Z" fill="#FFE42C"/>
</svg>
