<svg width="24" height="16" viewBox="0 0 24 16" fill="none" xmlns="http://www.w3.org/2000/svg">
<path d="M10.1709 0.138428C14.0694 -0.451537 18.0029 0.875513 20.9336 3.54663C21.4879 4.06183 21.9948 4.60844 22.4512 5.21851C22.4937 5.27376 22.5362 5.32955 22.5801 5.38647C22.9805 5.91861 23.3168 6.48715 23.6445 7.06909C23.6659 7.10629 23.688 7.14307 23.71 7.1814C23.7646 7.27767 23.8171 7.37562 23.8691 7.47339C23.8971 7.52561 23.9253 7.57779 23.9541 7.63159C24.052 7.98223 23.9856 8.30398 23.8301 8.62671C23.7819 8.71584 23.7329 8.80446 23.6826 8.89233C23.6561 8.93993 23.6288 8.98783 23.6016 9.03687C23.1795 9.7835 22.7002 10.4865 22.1523 11.1404C22.111 11.1899 22.0699 11.2397 22.0273 11.2908C21.4087 12.016 20.7535 12.6605 20.0029 13.2371C19.9697 13.2631 19.9366 13.2893 19.9023 13.3162C19.3316 13.7639 18.7279 14.1288 18.0928 14.4705C18.0329 14.5031 18.0327 14.5035 17.9717 14.5369C16.7469 15.198 15.3925 15.5978 14.0332 15.8279C13.9623 15.8399 13.962 15.84 13.8896 15.8523C10.5969 16.376 7.0074 15.4892 4.30176 13.4841C3.97287 13.2297 3.65752 12.9598 3.34668 12.6824C3.26521 12.6102 3.26567 12.6094 3.18262 12.5359C3.03559 12.4023 2.89208 12.2659 2.75 12.1267C2.72049 12.0979 2.69055 12.0695 2.66016 12.0398C2.16243 11.5504 1.7248 11.033 1.31738 10.4617C1.27282 10.3999 1.22755 10.3378 1.18164 10.2742C0.895446 9.86272 0.640582 9.43309 0.391602 8.99683C0.360015 8.94283 0.328442 8.8884 0.295898 8.83276C0.109621 8.49937 -0.0240942 8.20116 0.00390625 7.80933C0.0564593 7.63893 0.10457 7.51485 0.186523 7.36206C0.207547 7.32097 0.228339 7.2794 0.25 7.23706C0.72782 6.33138 1.30682 5.49039 1.97363 4.72437C2.04195 4.641 2.11045 4.55778 2.17871 4.47437C4.18975 2.12376 7.04741 0.628186 10.0332 0.159912C10.1013 0.149082 10.1014 0.149472 10.1709 0.138428ZM12.2344 1.38257C9.68819 1.33755 7.14842 2.14378 5.07812 3.67651C5.02619 3.71478 5.02573 3.71456 4.97266 3.75366C4.48605 4.11652 4.04248 4.52273 3.60938 4.95093C3.53826 5.02109 3.46663 5.09082 3.39453 5.15991C2.79456 5.75078 2.30824 6.47971 1.85449 7.19214C1.78996 7.29197 1.78947 7.29244 1.72363 7.39429C1.68424 7.45863 1.64508 7.52331 1.60449 7.5896C1.5692 7.64672 1.53343 7.7036 1.49707 7.76245C1.421 7.93051 1.42081 7.9307 1.4668 8.10815C1.57747 8.35099 1.70776 8.57176 1.85059 8.79565C1.87968 8.84155 1.90851 8.88802 1.93848 8.9353C2.40673 9.66388 2.94258 10.3221 3.52539 10.9548C3.56428 10.9983 3.60349 11.0419 3.64355 11.0867C5.71556 13.3323 8.82869 14.4859 11.7725 14.6052C15.1193 14.6644 18.1478 13.2521 20.54 10.8933C20.5791 10.8563 20.619 10.8192 20.6592 10.781C21.2419 10.2118 21.7135 9.48468 22.1523 8.79565C22.2168 8.69601 22.2174 8.69626 22.2832 8.59448C22.3226 8.53009 22.3617 8.46551 22.4023 8.39917C22.4553 8.31341 22.4557 8.31283 22.5098 8.22534C22.5857 8.05763 22.585 8.05697 22.5391 7.87964C22.4284 7.63696 22.299 7.41592 22.1562 7.19214C22.1272 7.14638 22.0982 7.1006 22.0684 7.05347C21.6 6.32475 21.0634 5.66584 20.4805 5.03296C20.4416 4.98957 20.4023 4.94583 20.3623 4.90112C18.2903 2.65579 15.178 1.50188 12.2344 1.38257ZM8.85352 4.64331C10.4901 3.01605 13.0498 2.93921 14.835 4.34741C15.7112 5.12991 16.336 6.17432 16.4805 7.37769C16.5681 8.73647 16.2936 10.0116 15.4131 11.0642C14.6014 11.951 13.5418 12.582 12.3379 12.6355C11.0466 12.6656 9.85833 12.3244 8.89844 11.3865C8.0552 10.5487 7.53529 9.4041 7.50879 8.19019C7.49858 6.81303 7.92162 5.64488 8.85352 4.64331ZM12.1768 4.7019C11.0965 4.65407 10.0947 5.18752 9.43359 6.05737C8.95132 6.79473 8.72878 7.65936 8.87988 8.53979C9.07316 9.46526 9.51815 10.2228 10.291 10.7625C11.0767 11.2465 11.9303 11.3861 12.8164 11.1628C13.6546 10.9095 14.3326 10.3708 14.7812 9.59253C15.2315 8.67198 15.2571 7.78364 14.9668 6.81226C14.875 6.53846 14.7389 6.31148 14.5703 6.08179C14.5324 6.03003 14.4942 5.97789 14.4551 5.92456C13.8629 5.18517 13.0907 4.81651 12.1768 4.7019Z" fill="#F7F7F7"/>
</svg>
