<svg width="16" height="16" viewBox="0 0 16 16" fill="none" xmlns="http://www.w3.org/2000/svg">
<path d="M14.5493 0.0012207C15.3597 -0.0334581 16.0334 0.640226 15.9985 1.45044C15.9915 1.64325 15.8424 2.24236 15.3989 3.85571C15.0761 5.03747 14.2727 7.99039 13.6108 10.4211C12.9516 12.8487 12.385 14.9147 12.3521 15.0139C12.1965 15.4899 11.8711 15.8059 11.395 15.9475C10.8423 16.1099 10.1664 15.8844 9.85986 15.4387C9.79804 15.3474 9.09971 13.8926 8.31104 12.2043L6.8667 9.1311L3.79443 7.68872C2.10297 6.89772 0.647794 6.19942 0.557129 6.13794C-0.00482885 5.75257 -0.171964 4.8754 0.194824 4.25317C0.243594 4.17191 0.364362 4.03233 0.471191 3.93481C0.624375 3.79561 0.707743 3.74894 0.909668 3.677C1.04669 3.62824 3.08822 3.0639 5.44775 2.4231C7.8072 1.78231 10.7633 0.976324 12.0151 0.63501C13.7337 0.166013 14.3542 0.0105078 14.5493 0.0012207Z" fill="#F7F7F7"/>
</svg>
