<svg width="12" height="20" viewBox="0 0 12 20" fill="none" xmlns="http://www.w3.org/2000/svg">
<path d="M2.82764 0.269739C3.0669 0.452173 3.28407 0.647939 3.49746 0.859088C3.53237 0.8933 3.56729 0.927512 3.60326 0.96276C3.7193 1.07659 3.83505 1.19071 3.95079 1.30484C4.03426 1.38689 4.11779 1.46888 4.20132 1.55088C4.42754 1.77304 4.65343 1.99552 4.87926 2.21808C5.02046 2.35723 5.16172 2.49632 5.303 2.6354C5.69475 3.02109 6.08643 3.40687 6.47781 3.79293C6.5028 3.81758 6.52779 3.84224 6.55354 3.86764C6.59111 3.9047 6.59111 3.9047 6.62944 3.94251C6.68019 3.99257 6.73094 4.04263 6.78169 4.09269C6.80687 4.11752 6.83204 4.14235 6.85798 4.16793C7.26601 4.5704 7.67463 4.97229 8.0835 5.37393C8.50407 5.78709 8.92415 6.20073 9.34375 6.61484C9.57904 6.84703 9.81453 7.07901 10.0506 7.31046C10.2515 7.50748 10.4519 7.70494 10.6518 7.90297C10.7537 8.00385 10.8558 8.10444 10.9583 8.20462C11.0698 8.3136 11.1805 8.42334 11.291 8.5333C11.3231 8.56431 11.3552 8.59532 11.3883 8.62728C11.7673 9.00853 11.9786 9.47445 12 10.0072C11.983 10.6421 11.6918 11.0966 11.2462 11.5324C11.2113 11.5672 11.1764 11.602 11.1404 11.6379C11.0242 11.7536 10.9073 11.8687 10.7905 11.9838C10.7066 12.0669 10.6229 12.1502 10.5392 12.2334C10.3357 12.4355 10.1318 12.6371 9.92771 12.8385C9.76168 13.0024 9.5958 13.1664 9.43002 13.3305C8.9079 13.8473 8.38527 14.3636 7.86226 14.8795C7.45055 15.2857 7.03963 15.6927 6.62907 16.1C6.20664 16.519 5.78365 16.9375 5.36007 17.3554C5.12262 17.5897 4.88539 17.8242 4.64876 18.0593C4.44729 18.2595 4.24529 18.4591 4.04261 18.6581C3.9394 18.7595 3.83652 18.8611 3.73413 18.9633C3.18023 19.5156 2.70385 19.9898 1.87454 20C1.34417 19.9991 0.905154 19.8263 0.514801 19.4668C0.361642 19.3049 0.257308 19.1283 0.162774 18.9283C0.148974 18.9011 0.135173 18.8739 0.120954 18.8459C-0.0591694 18.4233 -0.0266934 17.8467 0.142956 17.428C0.311846 17.1253 0.510383 16.8686 0.759195 16.6265C0.787859 16.5981 0.816522 16.5697 0.846055 16.5404C0.941207 16.4463 1.03681 16.3526 1.13242 16.2589C1.20111 16.1911 1.26977 16.1233 1.3384 16.0555C1.52411 15.8721 1.71022 15.6892 1.89639 15.5063C2.09115 15.3148 2.28555 15.123 2.47998 14.9312C2.80614 14.6096 3.13253 14.2882 3.4591 13.9669C3.79532 13.6362 4.13141 13.3053 4.46731 12.9743C4.48805 12.9538 4.50879 12.9334 4.53015 12.9123C4.63419 12.8098 4.73823 12.7073 4.84227 12.6047C5.70411 11.7553 6.56642 10.9063 7.42903 10.0576C7.3743 9.93919 7.31804 9.85264 7.22452 9.76118C7.20027 9.73726 7.17602 9.71333 7.15104 9.68869C7.12439 9.66283 7.09775 9.63698 7.0703 9.61034C7.02784 9.56864 7.02784 9.56863 6.98452 9.52609C6.88944 9.43278 6.79405 9.33978 6.69866 9.24677C6.6305 9.17998 6.56235 9.11318 6.49422 9.04636C6.34733 8.90234 6.20031 8.75844 6.0532 8.61462C5.82035 8.38691 5.58793 8.15877 5.35561 7.93053C5.02955 7.61025 4.70345 7.29002 4.37719 6.96994C4.35649 6.94963 4.33579 6.92931 4.31446 6.90839C3.97967 6.57996 3.64447 6.25194 3.30916 5.92403C2.96438 5.58682 2.62018 5.24903 2.27647 4.91076C2.08368 4.72108 1.89062 4.53168 1.69689 4.34294C1.51439 4.16514 1.33261 3.98665 1.15134 3.80763C1.08496 3.74232 1.01833 3.67726 0.951415 3.61249C0.471945 3.14799 0.0384461 2.6865 0.0212024 1.98721C0.0164958 1.43339 0.110629 1.00675 0.50674 0.592631C1.08502 0.0160505 2.10696 -0.230596 2.82764 0.269739Z" fill="#FFE42C"/>
</svg>
