<svg width="20" height="20" viewBox="0 0 20 20" fill="none" xmlns="http://www.w3.org/2000/svg">
<path d="M1.00366 7.51621C1.01545 7.50553 1.03417 7.49697 1.03902 7.48415C1.10385 7.28122 1.22978 7.10473 1.39864 6.98015C1.5675 6.85558 1.77053 6.78938 1.9784 6.79112C3.16528 6.68784 4.35146 6.57744 5.53765 6.46775C5.92588 6.43214 6.31342 6.39224 6.70165 6.3609C6.75112 6.36002 6.79902 6.34288 6.83832 6.31199C6.87762 6.28109 6.90626 6.23808 6.92003 6.18925C7.55275 4.65882 8.18894 3.12957 8.8286 1.60151C8.88265 1.45882 8.96968 1.33177 9.08218 1.23135C9.19468 1.13092 9.32928 1.06012 9.47435 1.02507C9.61943 0.990011 9.77063 0.991748 9.91491 1.03013C10.0592 1.06851 10.1922 1.14239 10.3025 1.24538C10.4209 1.36255 10.5123 1.50538 10.5701 1.66347C11.194 3.15924 11.818 4.65502 12.4336 6.1572C12.453 6.21868 12.4912 6.27208 12.5426 6.30943C12.5939 6.34678 12.6556 6.36609 12.7185 6.36447C13.9498 6.47416 15.181 6.59097 16.4123 6.70565C16.7832 6.74055 17.1548 6.77331 17.525 6.81177C17.7058 6.82852 17.8777 6.89981 18.0192 7.01667C18.1606 7.13353 18.2653 7.29074 18.3201 7.46855C18.3748 7.64635 18.3772 7.83682 18.3269 8.01601C18.2766 8.1952 18.1758 8.35511 18.0373 8.47564C17.1185 9.30948 16.1974 10.1405 15.2739 10.9686C14.9807 11.2328 14.6916 11.5006 14.3921 11.7578C14.3469 11.789 14.313 11.8347 14.2956 11.8878C14.2782 11.9408 14.2782 11.9982 14.2957 12.0512C14.6555 13.6546 15.0084 15.2565 15.3641 16.8641C15.4046 16.9993 15.4152 17.1421 15.395 17.2821C15.3747 17.4221 15.3242 17.5556 15.2471 17.6728C15.17 17.7901 15.0684 17.8881 14.9495 17.9597C14.8307 18.0312 14.6978 18.0745 14.5606 18.0863C14.3397 18.1048 14.1194 18.0447 13.9366 17.9161C12.5861 17.0841 11.2329 16.2572 9.88514 15.4231C9.82903 15.3793 9.76048 15.3555 9.68999 15.3555C9.61949 15.3555 9.55094 15.3793 9.49483 15.4231C8.14203 16.2627 6.78623 17.0967 5.42742 17.9253C5.3244 17.9998 5.20766 18.0518 5.08435 18.0782C4.96105 18.1046 4.83379 18.1048 4.71041 18.0787C4.58704 18.0527 4.47014 18.001 4.36692 17.9269C4.2637 17.8527 4.17634 17.7577 4.11021 17.6476C4.04331 17.5361 3.99912 17.4118 3.98029 17.2823C3.96146 17.1528 3.9684 17.0207 4.00067 16.894C4.35354 15.3006 4.70295 13.7073 5.06276 12.1153C5.08652 12.0445 5.08712 11.9676 5.06447 11.8964C5.04182 11.8252 4.99716 11.7635 4.93727 11.7208C3.76842 10.6787 2.60858 9.62453 1.44042 8.58176C1.24105 8.41338 1.09106 8.19147 1.00713 7.94072L1.00366 7.51621Z" stroke="#FFE42C" stroke-width="2"/>
</svg>
