<svg width="20" height="20" viewBox="0 0 20 20" fill="none" xmlns="http://www.w3.org/2000/svg">
<path d="M1.59668 7.98188C1.60847 7.9712 1.62719 7.96264 1.63204 7.94982C1.69687 7.74689 1.8228 7.5704 1.99166 7.44582C2.16051 7.32124 2.36354 7.25505 2.57142 7.25679C3.7583 7.15351 4.94448 7.04311 6.13066 6.93342C6.5189 6.89781 6.90643 6.85791 7.29466 6.82657C7.34414 6.82569 7.39204 6.80855 7.43134 6.77765C7.47064 6.74676 7.49927 6.70375 7.51304 6.65492C8.14577 5.12448 8.78196 3.59524 9.42162 2.06718C9.47566 1.92449 9.56269 1.79744 9.6752 1.69702C9.7877 1.59659 9.92229 1.52579 10.0674 1.49073C10.2124 1.45568 10.3636 1.45742 10.5079 1.4958C10.6522 1.53418 10.7852 1.60806 10.8955 1.71105C11.0139 1.82822 11.1053 1.97105 11.1631 2.12914C11.7871 3.62491 12.411 5.12069 13.0266 6.62287C13.046 6.68435 13.0843 6.73775 13.1356 6.7751C13.1869 6.81245 13.2487 6.83175 13.3116 6.83014C14.5428 6.93983 15.774 7.05664 17.0053 7.17132C17.3762 7.20622 17.7478 7.23897 18.118 7.27744C18.2988 7.29419 18.4707 7.36548 18.6122 7.48234C18.7536 7.59919 18.8583 7.7564 18.9131 7.93421C18.9678 8.11202 18.9702 8.30249 18.9199 8.48168C18.8696 8.66086 18.7688 8.82078 18.6303 8.94131C17.7115 9.77514 16.7904 10.6061 15.8669 11.4343C15.5737 11.6985 15.2846 11.9663 14.9851 12.2234C14.9399 12.2547 14.906 12.3004 14.8886 12.3534C14.8712 12.4065 14.8712 12.4639 14.8887 12.5169C15.2485 14.1202 15.6014 15.7221 15.9571 17.3297C15.9977 17.4649 16.0082 17.6078 15.988 17.7478C15.9678 17.8877 15.9172 18.0212 15.8401 18.1385C15.7631 18.2558 15.6614 18.3538 15.5426 18.4253C15.4237 18.4969 15.2908 18.5402 15.1536 18.552C14.9327 18.5705 14.7124 18.5104 14.5296 18.3818C13.1791 17.5498 11.8259 16.7229 10.4782 15.8888C10.422 15.845 10.3535 15.8212 10.283 15.8212C10.2125 15.8212 10.144 15.845 10.0878 15.8888C8.73505 16.7283 7.37924 17.5624 6.02043 18.391C5.91742 18.4655 5.80067 18.5175 5.67737 18.5439C5.55406 18.5702 5.42681 18.5704 5.30343 18.5444C5.18005 18.5184 5.06316 18.4667 4.95994 18.3926C4.85672 18.3184 4.76936 18.2234 4.70322 18.1132C4.63633 18.0017 4.59214 17.8775 4.57331 17.748C4.55448 17.6184 4.56141 17.4863 4.59369 17.3596C4.94656 15.7663 5.29597 14.1729 5.65578 12.581C5.67954 12.5102 5.68014 12.4333 5.65749 12.3621C5.63484 12.2909 5.59018 12.2292 5.53029 12.1864C4.36144 11.1444 3.2016 10.0902 2.03344 9.04743C1.83407 8.87905 1.68407 8.65714 1.60015 8.40639L1.59668 7.98188Z" fill="#B433FF" stroke="#B433FF" stroke-width="2"/>
</svg>
