<svg width="20" height="20" viewBox="0 0 20 20" fill="none" xmlns="http://www.w3.org/2000/svg">
<path d="M1.59668 7.98185C1.60847 7.97117 1.62719 7.96261 1.63204 7.94979C1.69687 7.74686 1.8228 7.57036 1.99166 7.44579C2.16051 7.32121 2.36354 7.25502 2.57142 7.25676C3.7583 7.15348 4.94448 7.04308 6.13066 6.93339C6.51889 6.89777 6.90643 6.85788 7.29466 6.82654C7.34414 6.82566 7.39204 6.80851 7.43134 6.77762C7.47064 6.74673 7.49927 6.70372 7.51304 6.65489C8.14577 5.12445 8.78196 3.59521 9.42162 2.06715C9.47566 1.92445 9.56269 1.79741 9.6752 1.69698C9.7877 1.59656 9.92229 1.52576 10.0674 1.4907C10.2124 1.45565 10.3636 1.45739 10.5079 1.49577C10.6522 1.53415 10.7852 1.60803 10.8955 1.71102C11.0139 1.82819 11.1053 1.97102 11.1631 2.12911C11.7871 3.62488 12.411 5.12066 13.0266 6.62283C13.046 6.68432 13.0843 6.73772 13.1356 6.77507C13.1869 6.81242 13.2487 6.83172 13.3116 6.83011C14.5428 6.9398 15.774 7.05661 17.0053 7.17129C17.3762 7.20619 17.7478 7.23894 18.118 7.27741C18.2988 7.29416 18.4707 7.36545 18.6122 7.48231C18.7536 7.59916 18.8583 7.75637 18.9131 7.93418C18.9678 8.11199 18.9702 8.30246 18.9199 8.48164C18.8696 8.66083 18.7688 8.82075 18.6303 8.94128C17.7115 9.77511 16.7904 10.6061 15.8669 11.4342C15.5737 11.6985 15.2846 11.9663 14.9851 12.2234C14.9399 12.2547 14.906 12.3004 14.8886 12.3534C14.8712 12.4064 14.8712 12.4639 14.8887 12.5169C15.2485 14.1202 15.6014 15.7221 15.9571 17.3297C15.9977 17.4649 16.0082 17.6078 15.988 17.7477C15.9678 17.8877 15.9172 18.0212 15.8401 18.1385C15.7631 18.2557 15.6614 18.3537 15.5426 18.4253C15.4237 18.4969 15.2908 18.5401 15.1536 18.552C14.9327 18.5705 14.7124 18.5104 14.5296 18.3817C13.1791 17.5498 11.8259 16.7228 10.4782 15.8888C10.422 15.8449 10.3535 15.8212 10.283 15.8212C10.2125 15.8212 10.144 15.8449 10.0878 15.8888C8.73505 16.7283 7.37924 17.5624 6.02043 18.391C5.91742 18.4654 5.80067 18.5175 5.67737 18.5438C5.55406 18.5702 5.42681 18.5704 5.30343 18.5444C5.18005 18.5184 5.06316 18.4667 4.95994 18.3925C4.85672 18.3184 4.76936 18.2233 4.70322 18.1132C4.63633 18.0017 4.59214 17.8775 4.57331 17.7479C4.55448 17.6184 4.56141 17.4863 4.59369 17.3596C4.94656 15.7663 5.29597 14.1729 5.65578 12.581C5.67954 12.5101 5.68014 12.4333 5.65749 12.362C5.63484 12.2908 5.59018 12.2291 5.53029 12.1864C4.36144 11.1443 3.2016 10.0902 2.03344 9.0474C1.83407 8.87902 1.68407 8.65711 1.60015 8.40636L1.59668 7.98185Z" stroke="#2C2C2C" stroke-width="2"/>
</svg>
