<svg width="20" height="20" viewBox="0 0 20 20" fill="none" xmlns="http://www.w3.org/2000/svg">
<path d="M7.37849 0.0590709C6.52029 0.237288 5.8449 0.873091 5.53514 1.79308C5.34725 2.35663 5.0324 2.77087 4.6617 2.94427L4.39764 3.0695H2.53905C0.716013 3.0695 0.675388 3.0695 0.45703 3.17547C0.162499 3.31997 0 3.54635 0 3.82572C0 4.12917 0.126953 4.35074 0.380858 4.49042L0.594138 4.61084H9.99879C18.5757 4.61084 19.4238 4.60602 19.5812 4.53377C19.8351 4.41817 19.9722 4.20624 19.9976 3.89315C20.0179 3.59452 19.9113 3.3874 19.637 3.19473C19.4999 3.0984 19.4238 3.09358 17.5042 3.0695C15.5441 3.04542 15.5085 3.04542 15.3257 2.93463C14.9449 2.70825 14.7011 2.3759 14.4472 1.73528C14.107 0.887541 13.6195 0.386606 12.873 0.121688C12.5734 0.0157207 12.5175 0.0157207 10.1308 0.00127064C8.2113 -0.00354605 7.62732 0.00608733 7.37849 0.0590709ZM12.355 1.59559C12.614 1.69674 12.7308 1.86051 13 2.47223C13.1421 2.78532 13.2539 3.05023 13.2539 3.05505C13.2539 3.06468 11.7914 3.0695 9.99879 3.0695C7.41404 3.0695 6.7488 3.05505 6.76912 3.00688C6.78435 2.97798 6.89099 2.7227 7.00779 2.44333C7.25154 1.8557 7.40388 1.64376 7.63239 1.58114C7.7238 1.55706 8.78512 1.53298 9.99371 1.53298C11.7507 1.52816 12.223 1.54261 12.355 1.59559Z" fill="#FFA480"/>
<path d="M2.20904 5.76187C2.00084 5.88229 1.88404 6.01715 1.82818 6.19537C1.76217 6.42657 2.37662 15.164 2.53912 16.2671C2.82857 18.2082 3.6106 19.2679 5.10356 19.7158C5.977 19.9807 6.33754 20 10.0039 20C13 20 13.4469 19.9904 13.9547 19.9133C15.0973 19.7399 15.7067 19.4846 16.3008 18.9162C16.9051 18.3431 17.2148 17.688 17.4129 16.5464C17.5652 15.6891 17.5906 15.3808 17.9258 10.6508C18.1441 7.51033 18.2102 6.31097 18.1746 6.18574C18.1188 5.99789 17.8395 5.73779 17.6414 5.68962C17.4332 5.64145 17.0828 5.69925 16.9203 5.80522C16.6156 6.01234 16.6309 5.90155 16.3008 10.5641C15.9809 15.0822 15.9352 15.6409 15.8133 16.3152C15.5746 17.6687 15.1176 18.1504 13.8633 18.372C13.4317 18.449 13.0305 18.4587 10.0039 18.4587C6.97738 18.4587 6.57621 18.449 6.14965 18.372C4.9563 18.16 4.48911 17.7217 4.24028 16.585C4.10318 15.9395 4.01685 15.0051 3.70708 10.5641C3.37193 5.83894 3.39732 6.00752 3.05201 5.78595C2.82349 5.64145 2.43756 5.627 2.20904 5.76187Z" fill="#FFA480"/>
<path d="M6.93152 8.30991C6.65223 8.47849 6.53543 8.63744 6.51512 8.8831C6.48973 9.13838 6.97722 13.9454 7.06355 14.2922C7.22605 14.9521 8.11472 15.1014 8.51589 14.5331C8.60222 14.4127 8.63269 14.3067 8.63269 14.1044C8.62761 13.9551 8.50573 12.6979 8.35847 11.3059C8.06902 8.59891 8.06394 8.57001 7.76433 8.36289C7.54089 8.21358 7.13465 8.18468 6.93152 8.30991Z" fill="#FFA480"/>
<path d="M12.4414 8.25706C12.2789 8.31486 12.0809 8.47863 12.0047 8.61831C11.9488 8.72428 11.8422 9.51422 11.6492 11.3253C11.502 12.7318 11.375 13.9937 11.375 14.1286C11.375 15.0293 12.7258 15.169 12.9492 14.2924C13.0102 14.0419 13.5078 9.3649 13.5078 9.02292C13.5078 8.70501 13.3859 8.48345 13.1269 8.34376C12.9238 8.22816 12.6293 8.18963 12.4414 8.25706Z" fill="#FFA480"/>
</svg>
