<svg width="16" height="16" viewBox="0 0 16 16" fill="none" xmlns="http://www.w3.org/2000/svg">
<path d="M0.520508 5.7627C0.774503 5.68212 1.09765 5.82906 1.22461 6.08301C1.30148 6.23295 1.30588 6.25657 1.25586 6.75293C1.10967 8.3158 1.45154 9.9443 2.19824 11.2646C3.57627 13.7014 6.19018 15.0642 8.80762 14.7178C11.7869 14.3213 14.158 11.8958 14.6738 8.72754C14.7624 8.17703 14.7892 7.36049 14.7354 6.77148C14.6892 6.2793 14.6898 6.25609 14.7705 6.09082C14.8898 5.84832 15.059 5.75129 15.3438 5.77051C15.7786 5.8013 15.8985 5.99406 15.9678 6.76367C16.1718 9.08887 15.4092 11.4722 13.8965 13.2354C11.8372 15.6298 8.63851 16.5771 5.72852 15.6494C2.74147 14.6985 0.562272 12.0498 0.0849609 8.78906C-0.0459118 7.89208 -0.0221344 6.48659 0.131836 6.10547C0.193525 5.94782 0.343595 5.81654 0.520508 5.7627ZM8.05664 0.00390625C8.57241 0.0347019 9.03498 0.4193 10.0049 1.62793C10.3128 2.0129 10.5863 2.36402 10.6133 2.41406C10.6823 2.54141 10.6439 2.88011 10.5439 3.01855C10.3707 3.26483 9.96994 3.33738 9.72363 3.17188C9.65022 3.12525 9.37359 2.81011 9.10449 2.47949L8.61133 1.87109L8.60352 5.45117C8.59197 9.01125 8.59152 9.03095 8.51074 9.13867C8.22974 9.51594 7.76049 9.51594 7.47949 9.13867C7.39894 9.0312 7.39911 9.00418 7.37988 5.45898L7.36035 1.88672L6.87891 2.4873C6.61395 2.81755 6.34137 3.1247 6.26758 3.17188C6.02133 3.33734 5.6206 3.26469 5.44727 3.01855C5.34725 2.88005 5.30882 2.54129 5.37793 2.41406C5.47797 2.2255 6.56263 0.917124 6.86719 0.616211C7.18283 0.304386 7.41409 0.138178 7.67969 0.0380859C7.76431 0.00732488 7.91435 -0.00758546 8.05664 0.00390625Z" fill="#F7F7F7"/>
</svg>
