<svg width="10" height="17" viewBox="0 0 10 17" fill="none" xmlns="http://www.w3.org/2000/svg">
<path d="M2.35637 0.224782C2.55575 0.376811 2.73672 0.539949 2.91455 0.715906C2.94364 0.744416 2.97274 0.772926 3.00271 0.8023C3.09942 0.897155 3.19587 0.992257 3.29232 1.08736C3.36188 1.15574 3.43149 1.22407 3.5011 1.2924C3.68961 1.47754 3.87786 1.66294 4.06605 1.8484C4.18372 1.96436 4.30144 2.08027 4.41917 2.19617C4.74563 2.51758 5.07203 2.83905 5.39817 3.16078C5.419 3.18132 5.43983 3.20186 5.46128 3.22303C5.49259 3.25392 5.49259 3.25392 5.52454 3.28542C5.56683 3.32714 5.60912 3.36886 5.65141 3.41057C5.67239 3.43127 5.69337 3.45196 5.71498 3.47328C6.05501 3.80867 6.39553 4.14358 6.73625 4.47828C7.08673 4.82258 7.43679 5.16727 7.78646 5.51237C7.98253 5.70586 8.17877 5.89917 8.37546 6.09205C8.54289 6.25624 8.70994 6.42078 8.87652 6.58581C8.9614 6.66987 9.04649 6.7537 9.13196 6.83719C9.22487 6.928 9.31708 7.01945 9.40916 7.11108C9.43592 7.13693 9.46267 7.16277 9.49024 7.1894C9.80611 7.50711 9.98213 7.89538 10 8.33931C9.98587 8.86845 9.74314 9.24714 9.37181 9.61034C9.34272 9.63936 9.31363 9.66837 9.28366 9.69826C9.1868 9.79468 9.08945 9.8906 8.99208 9.98651C8.9222 10.0558 8.85242 10.1252 8.78263 10.1945C8.6131 10.3629 8.44317 10.5309 8.27309 10.6988C8.13474 10.8353 7.9965 10.972 7.85835 11.1088C7.42325 11.5394 6.98773 11.9697 6.55188 12.3996C6.20879 12.7381 5.86636 13.0772 5.52422 13.4166C5.1722 13.7658 4.81971 14.1146 4.46673 14.4628C4.26885 14.6581 4.07116 14.8535 3.87397 15.0494C3.70607 15.2162 3.53774 15.3826 3.36884 15.5484C3.28283 15.6329 3.1971 15.7176 3.11177 15.8028C2.65019 16.263 2.2532 16.6582 1.56211 16.6667C1.12014 16.6659 0.754295 16.5219 0.429001 16.2223C0.301368 16.0874 0.214423 15.9402 0.135645 15.7736C0.124145 15.7509 0.112644 15.7283 0.100795 15.7049C-0.0493078 15.3527 -0.0222445 14.8722 0.11913 14.5233C0.259872 14.2711 0.425319 14.0572 0.632663 13.8554C0.656549 13.8317 0.680435 13.8081 0.705046 13.7837C0.784339 13.7052 0.864009 13.6271 0.943685 13.5491C1.00093 13.4926 1.05814 13.4361 1.11534 13.3796C1.27009 13.2268 1.42518 13.0743 1.58033 12.9219C1.74263 12.7623 1.90462 12.6025 2.06665 12.4427C2.33845 12.1746 2.61044 11.9068 2.88258 11.6391C3.16277 11.3635 3.44284 11.0878 3.72276 10.8119C3.74004 10.7949 3.75732 10.7778 3.77513 10.7603C3.86183 10.6748 3.94853 10.5894 4.03523 10.5039C4.75343 9.79605 5.47202 9.08855 6.19086 8.38131C6.14525 8.28266 6.09837 8.21053 6.02043 8.13432C6.00023 8.11438 5.98002 8.09445 5.9592 8.0739C5.937 8.05236 5.91479 8.03082 5.89191 8.00862C5.85653 7.97386 5.85653 7.97386 5.82044 7.93841C5.7412 7.86065 5.66171 7.78315 5.58222 7.70564C5.52541 7.64999 5.46862 7.59432 5.41185 7.53863C5.28944 7.41861 5.16692 7.2987 5.04434 7.17885C4.85029 6.98909 4.65661 6.79897 4.46301 6.60877C4.19129 6.34188 3.91954 6.07501 3.64766 5.80828C3.63041 5.79136 3.61316 5.77443 3.59538 5.75699C3.31639 5.4833 3.03706 5.20995 2.75764 4.93669C2.47031 4.65568 2.18349 4.37419 1.89705 4.0923C1.7364 3.93423 1.57552 3.7764 1.41407 3.61912C1.26199 3.47095 1.11051 3.32221 0.959449 3.17302C0.904135 3.1186 0.848608 3.06439 0.792846 3.01041C0.393288 2.62332 0.0320384 2.23875 0.0176687 1.65601C0.0137465 1.19449 0.092191 0.83896 0.422283 0.493859C0.904187 0.0133755 1.7558 -0.192164 2.35637 0.224782Z" fill="#F7F7F7"/>
</svg>
