<svg width="11" height="11" viewBox="0 0 11 11" fill="none" xmlns="http://www.w3.org/2000/svg">
<path d="M8.58362 0.370117C9.07671 -0.122803 9.87673 -0.122907 10.3698 0.370117C10.8628 0.863142 10.8627 1.66316 10.3698 2.15625L7.33362 5.19238C7.23531 5.29097 7.23523 5.45029 7.33362 5.54883L10.3698 8.58496C10.8624 9.07794 10.8624 9.8771 10.3698 10.3701C9.87667 10.8632 9.07669 10.8632 8.58362 10.3701L5.54749 7.33496C5.44886 7.23649 5.28961 7.23641 5.19104 7.33496L2.15491 10.3701C1.66183 10.8632 0.862828 10.8632 0.369751 10.3701C-0.123326 9.87704 -0.123326 9.07804 0.369751 8.58496L3.40491 5.54883C3.50346 5.45026 3.50338 5.291 3.40491 5.19238L0.369751 2.15625C-0.123326 1.66317 -0.123326 0.863194 0.369751 0.370117C0.862764 -0.122501 1.66193 -0.122559 2.15491 0.370117L5.19104 3.40625C5.28958 3.50464 5.4489 3.50456 5.54749 3.40625L8.58362 0.370117Z" fill="#9E9E9E"/>
</svg>
